<svg id="illustration" xmlns="http://www.w3.org/2000/svg" viewBox="0 0 1319 1086.5"><style>.st0{fill:#2b2b2b;fill-opacity:.1}.st1{fill:#594165}.st2{fill:#785d88}.st3{fill:#9075a0}.st4{fill:#3f8f6f}.st5{fill:#35785d}.st6{opacity:.1;enable-background:new}.st7{fill:#72c9a6}.st8{fill:#54b08b}.st9{opacity:5.000000e-02;fill-rule:evenodd;clip-rule:evenodd;enable-background:new}.st10{fill:#474747}.st11{fill:#709d53}.st12{fill:#446125}.st13{fill:#99c26d}.st14{fill:#5a753d}.st15{fill:#a0cf7e}.st16,.st17,.st18,.st19{fill-rule:evenodd;clip-rule:evenodd}.st16{opacity:.1;enable-background:new}.st17,.st18,.st19{fill:#b3889d}.st18,.st19{fill:#f4d75d}.st19{fill:#73cfe5}.st20{fill:#ececeb}.st21{fill:#dddddc}.st22,.st23,.st24,.st25,.st26{fill-rule:evenodd;clip-rule:evenodd;fill:#72c9a6}.st23,.st24,.st25,.st26{fill:#54b08b}.st24,.st25,.st26{fill:#e5c828}.st25,.st26{fill:#fff}.st26{fill:#5ec0d9}.st27{fill:#1c7678}.st28,.st29,.st30,.st31{fill-rule:evenodd;clip-rule:evenodd}.st28{opacity:.2;enable-background:new}.st29,.st30,.st31{fill:#35785d}.st30,.st31{fill:#3f8f6f}.st31{fill:#ececeb}.st32{fill:#ccad14}.st33{fill:#bc8f2d}.st34{fill:#f4d75d}.st35{fill:#e5c828}.st36,.st37{fill-rule:evenodd;clip-rule:evenodd;fill:#5a753d}.st37{fill:#474747}.st38,.st39,.st40,.st41,.st42,.st43{fill-rule:evenodd;clip-rule:evenodd;fill:#2b2b2b}.st39,.st40,.st41,.st42,.st43{fill:#737373}.st40,.st41,.st42,.st43{fill:#738d56}.st41,.st42,.st43{fill:#ffe6d6}.st42,.st43{fill:#c4937d}.st43{fill:#f5cab3}.st44{fill:#fff1e8}.st44,.st45{fill-rule:evenodd;clip-rule:evenodd}.st46,.st47,.st48,.st49,.st50,.st51{fill-rule:evenodd;clip-rule:evenodd;fill:#446125}.st47,.st48,.st49,.st50,.st51{fill:#99c26d}.st48,.st49,.st50,.st51{fill:#709d53}.st49,.st50,.st51{fill:#96637c}.st50,.st51{fill:#734d60}.st51{fill:#543042}.st52,.st53,.st54,.st55,.st56,.st57{fill-rule:evenodd;clip-rule:evenodd;fill:#594165}.st53,.st54,.st55,.st56,.st57{fill:#785d88}.st54,.st55,.st56,.st57{fill:#a688ba}.st55,.st56,.st57{fill:#9075a0}.st56,.st57{fill:#858686}.st57{fill:#d1a1b8}.st58{fill:#734d60}.st59{fill:#96637c}.st60{fill-rule:evenodd;clip-rule:evenodd;fill:#3aa0ba}.st61,.st62,.st63,.st64,.st65,.st66{fill-rule:evenodd;clip-rule:evenodd;fill:#8f8f8f}.st62,.st63,.st64,.st65,.st66{fill:#856400}.st63,.st64,.st65,.st66{fill:#755800}.st64,.st65,.st66{fill:#b58b00}.st65,.st66{fill:#9e7700}.st66{fill:#ccad14}.st67,.st68,.st69,.st70,.st71,.st72{fill-rule:evenodd;clip-rule:evenodd;fill:#bc8f2d}.st68,.st69,.st70,.st71,.st72{fill:#165e60}.st69,.st70,.st71,.st72{fill:#318fa6}.st70,.st71,.st72{fill:#50a9aa}.st71,.st72{fill:#72cbcc}.st72{fill:#1c7678}.st73,.st74,.st75,.st76,.st77,.st78{fill-rule:evenodd;clip-rule:evenodd;fill:#27788c}.st74,.st75,.st76,.st77,.st78{fill:#369496}.st75,.st76,.st77,.st78{fill:#4f5253}.st76,.st77,.st78{fill:#8ce0dc}.st77,.st78{fill:#ac923c}.st78{fill:#fff6c2}</style><path class="st0" d="M637.2 921.3L472 895.7l-86.1 19.8 166.6 57.9 84.7-52.1z"/><path class="st1" d="M606.6 842.4v85.3L551.2 950 537 906.4l3.5-48.5 66.1-15.5z"/><path class="st2" d="M479.3 839.5l41.3-11.6 37.7 33.9-7.1 88.3-142.7-37.8 5.5-89.7 65.3 16.9z"/><path class="st3" d="M606.6 842.4l-91.5-33.6L414 822.5l144.2 39.3 48.4-19.4z"/><path class="st4" d="M589 849.2l-103.1-36.3-29.4 3.8 113.7 40.2 18.8-7.7z"/><path class="st5" d="M593.7 932.6l-4.7-83.4-18.9 7.8 3.5 84.4 20.1-8.8zm-116.6-2.2l3.4-91-16.2-3.2-14.5 86.8 27.3 7.4z"/><path class="st4" d="M553.4 822.9L497 836.6l-16.5 2.9-16.2-3.2 13.8-6.5 54.9-14.4 20.4 7.5z"/><path class="st6" d="M492.3 837l3.2-4.2-31.1 6.1-8.5-9.6 14.8-27.3 34.6 24.4 10.5 1.8 43.9-21.6 3.5 29-19.1 8.7-23.2-10.3 4.2 7.5 25.4 31.4-28.2 4.7-8.5-31.9-12.7-2.9-19.8 33.7-31.1-16.3 42.1-23.2z"/><path class="st7" d="M510.1 817.9l-9.9 6.4-39.5-3.5 14.8-27.3 34.6 24.4zm10.5 1.8l43.9-21.6 3.5 29-42.4-1.7-5-5.7z"/><path class="st8" d="M518.6 837l11.3-4.1 25.4 31.4L527 869l-8.4-32zm-12.7-2.9l-8.8-5.7-42 23.1 31.1 16.3 19.7-33.7zm14.7-14.4l5 5.7 4.2 7.6-11.3 4.1-12.7-2.9-8.8-5.7 3.2-4.2 9.9-6.4 10.5 1.8zm47.4 7.5l-19.1 8.7-23.3-10.4 42.4 1.7zM500.2 824.3l-39.5-3.5 8.5 9.6 31-6.1z"/><path class="st4" d="M529.9 833l-11.3 4.1-12.7-2.9-8.8-5.7 32.8 4.5z"/><path class="st9" d="M174.6 389.2l59.4-16.4 63 21.4-62.3 21.8-60.1-26.8z"/><path class="st10" d="M222.6 306.8h26.5v89.1h-26.5v-89.1z"/><path class="st6" d="M222.6 363.3l26.3 18.1v-74.6h-26.3v56.5z"/><path class="st11" d="M141.7 326.8l100.1 32 38.3-40.4 49.6 10-49.2-106.9-93-.6-45.8 105.9z"/><path class="st12" d="M241.8 358.8l87.9-30.4-44.5-95.9-44.4-.6 1 126.9z"/><path class="st6" d="M300.2 264.8l-8.9-19.1-115.9-2.3-6.5 12L241 298l59.2-33.2z"/><path class="st13" d="M139.5 248.9l83.1 31.7 37.3-43 72.1 16.8-60.2-89.2-81.4-2.9-50.9 86.6z"/><path class="st11" d="M222.6 280.6L332 254.4l-48.9-72.7-45.1 3.9-15.4 95z"/><path class="st6" d="M229.8 232.8l.7.3 58.1-43-5.5-8.4h-.1l-3.6-5.5-92.7-7.4-9.9 16.8 53 46.9v.3z"/><path class="st11" d="M194.9 105.5l-40 73.3 63.3 19.4 48.6-33.3 50.9 22-54.7-76.5-68.1-4.9z"/><path class="st14" d="M218.2 198.2l99.5-11.3-42.4-59.4-36.6 2.9-20.5 67.8z"/><path class="st6" d="M227.4 168.2l.7.3L279 133l-7.9-5.2h-.1l-6.4-4.2-76.6-6.1-6.5 12.3 45.9 38.2v.2z"/><path class="st13" d="M205.5 72.3l-43.4 52.6 62.6 19.4 33.2-28.4 38.3 9.4-41-57.5-49.7 4.5z"/><path class="st11" d="M224.7 144.3l71.5-19.1L264.3 81l-9.9 1-16.4.6-13.3 61.7z"/><path class="st6" d="M270.5 89.7l-6.2-8.7h-.1l-5.1-7.1-24.3-4.2-29.4 2.6-6.5 8.1 34.2 28.4 37.4-19.1z"/><path class="st15" d="M238.4 11.5l-51.6 61.1L238 97.1l22.6-30 19.8 10-42-65.6z"/><path class="st11" d="M238 97.1l42.4-20-42-65.6-.4 85.6z"/><path class="st16" d="M304.2 243.7l-3.6 3.6 3.8 4.4 4-3.5-4.2-4.5z"/><path class="st17" d="M303.1 243.1l-3.6 3.7 3.8 4.4 4-3.5-4.2-4.6z"/><path class="st16" d="M241.7 261.5l-3.6 3.7 3.8 4.4 4-3.5-4.2-4.6z"/><path class="st17" d="M240.6 260.9l-3.6 3.6 3.8 4.4 4-3.5-4.2-4.5z"/><path class="st16" d="M264.5 228.4l-3.6 3.6 3.8 4.4 4-3.5-4.2-4.5z"/><path class="st17" d="M263.4 227.9l-3.6 3.6 3.8 4.4 4-3.5-4.2-4.5z"/><path class="st16" d="M245.9 210.6l-3.6 3.7 3.8 4.4 4-3.5-4.2-4.6z"/><path class="st17" d="M244.8 210l-3.6 3.7 3.8 4.4 4-3.5-4.2-4.6z"/><path class="st16" d="M266.2 197.4l-3.6 3.6 3.8 4.4 4-3.5-4.2-4.5z"/><path class="st17" d="M265.1 196.9l-3.6 3.6 3.8 4.4 4-3.5-4.2-4.5z"/><path class="st16" d="M302.2 222.1l-3.6 3.6 3.8 4.4 4-3.5-4.2-4.5z"/><path class="st17" d="M301.1 221.5l-3.6 3.6 3.8 4.4 4-3.5-4.2-4.5z"/><path class="st16" d="M278.5 243.1l-3.6 3.6 3.8 4.4 4-3.5-4.2-4.5z"/><path class="st18" d="M277.4 242.6l-3.6 3.6 3.8 4.4 4-3.5-4.2-4.5z"/><path class="st16" d="M324.4 248.3l-3.6 3.6 3.8 4.4 4-3.5-4.2-4.5z"/><path class="st18" d="M323.3 247.7l-3.6 3.6 3.8 4.4 4-3.5-4.2-4.5z"/><path class="st16" d="M184.7 306.4l-3.6 3.6 3.8 4.4 4-3.5-4.2-4.5z"/><path class="st18" d="M183.6 305.8l-3.6 3.6 3.8 4.4 4-3.5-4.2-4.5z"/><path class="st16" d="M288 213.3l-3.6 3.6 3.8 4.4 4-3.5-4.2-4.5z"/><path class="st18" d="M286.9 212.8l-3.6 3.7 3.8 4.4 4-3.5-4.2-4.6z"/><path class="st16" d="M235.8 224.4l-3.6 3.7 3.8 4.4 4-3.5-4.2-4.6z"/><path class="st18" d="M234.7 223.8l-3.6 3.6 3.8 4.4 4-3.5-4.2-4.5zm20.8 16.8l-3.6 3.6 3.8 4.4 4-3.5-4.2-4.5z"/><path class="st16" d="M180.3 322l-3.6 3.6 3.8 4.4 4-3.5-4.2-4.5z"/><path class="st18" d="M179.2 321.5l-3.6 3.6 3.8 4.4 4-3.5-4.2-4.5z"/><path class="st16" d="M175.9 268.6l-3.6 3.6 3.8 4.4 4-3.5-4.2-4.5z"/><path class="st18" d="M174.8 268l-3.6 3.6 3.8 4.4 4-3.5-4.2-4.5z"/><path class="st16" d="M263 330l-3.6 3.6 3.8 4.4 4-3.5-4.2-4.5z"/><path class="st18" d="M261.9 329.5l-3.6 3.6 3.8 4.4 4-3.5-4.2-4.5z"/><path class="st16" d="M239.5 319.7l-3.6 3.6 3.8 4.4 4-3.5-4.2-4.5z"/><path class="st18" d="M238.4 319.2l-3.6 3.6 3.8 4.4 4-3.5-4.2-4.5z"/><path class="st16" d="M300.9 309.4l-3.6 3.6 3.8 4.4 4-3.5-4.2-4.5z"/><path class="st18" d="M299.8 308.9l-3.6 3.6 3.8 4.4 4-3.5-4.2-4.5z"/><path class="st16" d="M218.5 291.7l-3.6 3.6 3.8 4.4 4-3.5-4.2-4.5z"/><path class="st18" d="M217.4 291.2l-3.6 3.6 3.8 4.4 4-3.5-4.2-4.5z"/><path class="st16" d="M284.7 272.4l-3.6 3.6 3.8 4.4 4-3.5-4.2-4.5z"/><path class="st18" d="M283.6 271.9l-3.6 3.6 3.8 4.4 4-3.5-4.2-4.5z"/><path class="st16" d="M207.5 259.8l-3.6 3.7 3.8 4.4 4-3.5-4.2-4.6z"/><path class="st18" d="M206.4 259.3l-3.6 3.7 3.8 4.4 4-3.5-4.2-4.6z"/><path class="st16" d="M222.6 234.7l-2.8 3.9 4.6 4 3.3-3.8-5.1-4.1z"/><path class="st18" d="M221.4 234.2l-2.8 4 4.6 4 3.3-3.8-5.1-4.2z"/><path class="st16" d="M174.8 238.5l-2.9 4 4.6 4 3.3-3.8-5-4.2z"/><path class="st18" d="M173.6 238.1l-2.8 3.9 4.6 4 3.3-3.8-5.1-4.1z"/><path class="st16" d="M223.3 204.6l-2.9 4 4.6 4 3.3-3.8-5-4.2z"/><path class="st18" d="M222.1 204.2l-2.9 3.9 4.6 4 3.3-3.8-5-4.1z"/><path class="st16" d="M248.7 178.4l-2.8 3.9 4.6 4 3.3-3.8-5.1-4.1z"/><path class="st18" d="M247.5 177.9l-2.9 3.9 4.6 4 3.3-3.8-5-4.1z"/><path class="st16" d="M194.3 143.4l-2.8 3.9 4.6 4 3.3-3.8-5.1-4.1z"/><path class="st18" d="M193.1 143l-2.8 3.9 4.6 4 3.3-3.8-5.1-4.1z"/><path class="st16" d="M183.8 175.1l-3.8 3.5 3.5 4.5 4.2-3.4-3.9-4.6z"/><path class="st18" d="M182.8 174.5L179 178l3.5 4.5 4.2-3.4-3.9-4.6z"/><path class="st16" d="M290.8 172.2l-3.4 3.7 4 4.3 3.8-3.6-4.4-4.4z"/><path class="st18" d="M289.6 171.7l-3.4 3.7 4 4.3 3.8-3.6-4.4-4.4z"/><path class="st16" d="M274.6 118.8l-3.4 3.7 4 4.3 3.8-3.6-4.4-4.4z"/><path class="st18" d="M273.5 118.2l-3.4 3.7 4 4.3 3.8-3.6-4.4-4.4z"/><path class="st16" d="M197.8 121.6l-3.4 3.7 4 4.3 3.8-3.6-4.4-4.4z"/><path class="st18" d="M196.6 121.1l-3.4 3.7 4 4.3 3.8-3.6-4.4-4.4z"/><path class="st16" d="M197.8 93.1l-3.4 3.7 4 4.3 3.8-3.6-4.4-4.4z"/><path class="st18" d="M196.6 92.5l-3.4 3.7 4 4.3L201 97l-4.4-4.5z"/><path class="st16" d="M251.8 100l-3.4 3.7 4 4.3 3.8-3.6-4.4-4.4z"/><path class="st18" d="M250.7 99.5l-3.4 3.7 4 4.3 3.8-3.6-4.4-4.4z"/><path class="st16" d="M254.4 56.3L251 60l4 4.3 3.8-3.6-4.4-4.4z"/><path class="st18" d="M253.2 55.8l-3.4 3.7 4 4.3 3.8-3.6-4.4-4.4z"/><path class="st16" d="M239.3 22.1l-3.4 3.7 4 4.3 3.8-3.6-4.4-4.4z"/><path class="st18" d="M238.2 21.6l-3.4 3.7 4 4.3 3.8-3.6c0 .1-4.4-4.4-4.4-4.4z"/><path class="st16" d="M208.4 57.3L205 61l4 4.3 3.8-3.6-4.4-4.4z"/><path class="st19" d="M207.3 56.8l-3.4 3.7 4 4.3 3.8-3.6-4.4-4.4z"/><path class="st16" d="M229.7 32.4l-3.4 3.7 4 4.3 3.8-3.6-4.4-4.4z"/><path class="st19" d="M228.6 31.9l-3.4 3.7 4 4.3 3.8-3.6c0 .1-4.4-4.4-4.4-4.4z"/><path class="st16" d="M251.4 80.7l-3.4 3.7 4 4.3 3.8-3.6-4.4-4.4z"/><path class="st19" d="M250.3 80.2l-3.4 3.7 4 4.3 3.8-3.6-4.4-4.4z"/><path class="st16" d="M214.7 94.1l-3.4 3.7 4 4.3 3.8-3.6-4.4-4.4z"/><path class="st19" d="M213.5 93.6l-3.4 3.7 4 4.3 3.8-3.6-4.4-4.4z"/><path class="st16" d="M195.5 107.7l-3.4 3.7 4 4.3 3.8-3.6-4.4-4.4z"/><path class="st19" d="M194.4 107.2l-3.4 3.7 4 4.3 3.8-3.6-4.4-4.4z"/><path class="st16" d="M217.6 120.8l-3.4 3.7 4 4.3 3.8-3.6-4.4-4.4z"/><path class="st19" d="M216.5 120.3l-3.4 3.7 4 4.3 3.8-3.6-4.4-4.4z"/><path class="st16" d="M247.8 128.7l-3.4 3.7 4 4.3 3.8-3.6-4.4-4.4z"/><path class="st19" d="M246.7 128.2l-3.4 3.7 4 4.3 3.8-3.6-4.4-4.4z"/><path class="st16" d="M272.8 145.5l-3.4 3.7 4 4.3 3.8-3.6-4.4-4.4z"/><path class="st19" d="M271.6 145l-3.4 3.7 4 4.3 3.8-3.6-4.4-4.4z"/><path class="st16" d="M248.6 164.7l-3.4 3.7 4 4.3 3.8-3.6-4.4-4.4z"/><path class="st19" d="M247.4 164.1l-3.4 3.7 4 4.3 3.8-3.6-4.4-4.4z"/><path class="st16" d="M307.8 178.5l-3.4 3.7 4 4.3 3.8-3.6-4.4-4.4z"/><path class="st19" d="M306.6 178l-3.4 3.7 4 4.3 3.8-3.6-4.4-4.4z"/><path class="st16" d="M216.6 170.8l-3.4 3.7 4 4.3 3.8-3.6-4.4-4.4z"/><path class="st19" d="M215.4 170.3L212 174l4 4.3 3.8-3.6-4.4-4.4z"/><path class="st16" d="M190.1 164.7l-3.4 3.7 4 4.3 3.8-3.6-4.4-4.4z"/><path class="st19" d="M189 164.1l-3.4 3.7 4 4.3 3.8-3.6-4.4-4.4z"/><path class="st16" d="M210.3 142.6l-3.4 3.7 4 4.3 3.8-3.6-4.4-4.4z"/><path class="st19" d="M209.2 142l-3.4 3.7 4 4.3 3.8-3.6-4.4-4.4z"/><path class="st16" d="M195.2 197.6l-3.4 3.7 4 4.3 3.8-3.6-4.4-4.4z"/><path class="st19" d="M194.1 197l-3.4 3.7 4 4.3 3.8-3.6-4.4-4.4z"/><path class="st16" d="M167.7 222.2l-3.4 3.7 4 4.3 3.8-3.6-4.4-4.4z"/><path class="st19" d="M166.5 221.7l-3.4 3.7 4 4.3 3.8-3.6-4.4-4.4z"/><path class="st16" d="M205.9 230.5l-3.4 3.7 4 4.3 3.8-3.6-4.4-4.4z"/><path class="st19" d="M204.8 229.9l-3.4 3.7 4 4.3 3.8-3.6-4.4-4.4z"/><path class="st16" d="M183.1 250l-3.4 3.7 4 4.3 3.8-3.6-4.4-4.4z"/><path class="st19" d="M182 249.5l-3.4 3.7 4 4.3 3.8-3.6-4.4-4.4z"/><path class="st16" d="M216.6 247.4l-3.4 3.7 4 4.3 3.8-3.6-4.4-4.4z"/><path class="st19" d="M215.4 246.9l-3.4 3.7 4 4.3 3.8-3.6-4.4-4.4z"/><path class="st16" d="M240.1 245.9l-3.4 3.7 4 4.3 3.8-3.6-4.4-4.4z"/><path class="st19" d="M239 245.3l-3.4 3.7 4 4.3 3.8-3.6-4.4-4.4z"/><path class="st16" d="M271.4 213.2L268 217l4 4.3 3.8-3.6-4.4-4.5z"/><path class="st19" d="M270.2 212.7l-3.4 3.7 4 4.3 3.8-3.6-4.4-4.4z"/><path class="st16" d="M288.6 233.3l-3.4 3.7 4 4.3 3.8-3.6-4.4-4.4z"/><path class="st19" d="M287.5 232.8l-3.4 3.7 4 4.3 3.8-3.6-4.4-4.4z"/><path class="st16" d="M261.4 257.4l-3.4 3.7 4 4.3 3.8-3.6-4.4-4.4z"/><path class="st19" d="M260.3 256.9l-3.4 3.7 4 4.3 3.8-3.6-4.4-4.4z"/><path class="st16" d="M288.3 198.6l-3.4 3.7 4 4.3 3.8-3.6-4.4-4.4z"/><path class="st19" d="M287.1 198.1l-3.4 3.7 4 4.3 3.8-3.6-4.4-4.4z"/><path class="st16" d="M205.9 283.1l-3.4 3.7 4 4.3 3.8-3.6-4.4-4.4z"/><path class="st19" d="M204.8 282.6l-3.4 3.7 4 4.3 3.8-3.6-4.4-4.4z"/><path class="st16" d="M168.8 285.2l-3.4 3.7 4 4.3 3.8-3.6-4.4-4.4z"/><path class="st19" d="M167.6 284.6l-3.4 3.7 4 4.3 3.8-3.6-4.4-4.4z"/><path class="st16" d="M168.4 309.6l-3.4 3.7 4 4.3 3.8-3.6-4.4-4.4z"/><path class="st19" d="M167.3 309.1l-3.4 3.7 4 4.3 3.8-3.6-4.4-4.4z"/><path class="st16" d="M201.1 308.8l-3.4 3.7 4 4.3 3.8-3.6-4.4-4.4z"/><path class="st19" d="M200 308.3l-3.4 3.7 4 4.3 3.8-3.6-4.4-4.4z"/><path class="st16" d="M209.6 332.5l-3.4 3.7 4 4.3 3.8-3.6-4.4-4.4z"/><path class="st19" d="M208.5 331.9l-3.4 3.7 4 4.3 3.8-3.6-4.4-4.4z"/><path class="st16" d="M254.8 314.7l-3.4 3.7 4 4.3 3.8-3.6-4.4-4.4z"/><path class="st19" d="M253.7 314.2l-3.4 3.7 4 4.3 3.8-3.6-4.4-4.4z"/><path class="st16" d="M286.8 323.5l-3.4 3.7 4 4.3 3.8-3.6-4.4-4.4z"/><path class="st19" d="M285.7 322.9l-3.4 3.7 4 4.3 3.8-3.6-4.4-4.4z"/><path class="st16" d="M280.2 289.5l-3.4 3.7 4 4.3 3.8-3.6-4.4-4.4z"/><path class="st19" d="M279 289l-3.4 3.7 4 4.3 3.8-3.6-4.4-4.4z"/><path class="st16" d="M257.7 295.7l-3.4 3.7 4 4.3 3.8-3.6-4.4-4.4z"/><path class="st19" d="M256.6 295.2l-3.4 3.7 4 4.3 3.8-3.6-4.4-4.4z"/><path class="st16" d="M309.6 299l-3.4 3.7 4 4.3 3.8-3.6-4.4-4.4z"/><path class="st19" d="M308.5 298.5l-3.4 3.7 4 4.3 3.8-3.6-4.4-4.4z"/><path class="st16" d="M222.8 310.6l-3.4 3.7 4 4.3 3.8-3.6-4.4-4.4z"/><path class="st19" d="M221.7 310.1l-3.4 3.7 4 4.3 3.8-3.6-4.4-4.4z"/><path class="st16" d="M239.7 344.3l-3.4 3.7 4 4.3 3.8-3.6-4.4-4.4z"/><path class="st19" d="M238.6 343.8l-3.4 3.7 4 4.3 3.8-3.6-4.4-4.4z"/><path class="st16" d="M223.9 63l-3.4 3.7 4 4.3 3.8-3.6-4.4-4.4z"/><path class="st18" d="M222.7 62.5l-3.4 3.7 4 4.3 3.8-3.6-4.4-4.4z"/><path class="st16" d="M255.2 280.5l-3.6 3.6 3.8 4.4 4-3.5-4.2-4.5z"/><path class="st17" d="M254.1 279.9l-3.6 3.6 3.8 4.4 4-3.5-4.2-4.5z"/><path class="st16" d="M296.6 288.2l-3.6 3.6 3.8 4.4 4-3.5-4.2-4.5z"/><path class="st17" d="M295.5 287.6l-3.6 3.6 3.8 4.4 4-3.5-4.2-4.5z"/><path class="st16" d="M268.4 309.6l-3.6 3.6 3.8 4.4 4-3.5-4.2-4.5z"/><path class="st17" d="M267.3 309.1l-3.6 3.6 3.8 4.4 4-3.5-4.2-4.5z"/><path class="st16" d="M314.5 321.1l-3.6 3.6 3.8 4.4 4-3.5-4.2-4.5z"/><path class="st17" d="M313.4 320.5l-3.6 3.6 3.8 4.4 4-3.5-4.2-4.5z"/><path class="st16" d="M226 326.7l-3.6 3.6 3.8 4.4 4-3.5-4.2-4.5z"/><path class="st17" d="M224.9 326.2l-3.6 3.6 3.8 4.4 4-3.5-4.2-4.5z"/><path class="st16" d="M238.5 300.9l-3.6 3.7 3.8 4.4 4-3.5-4.2-4.6z"/><path class="st17" d="M237.4 300.3l-3.6 3.6 3.8 4.4 4-3.5-4.2-4.5z"/><path class="st16" d="M192.2 287.9l-3.6 3.7 3.8 4.4 4-3.5-4.2-4.6z"/><path class="st17" d="M191.1 287.3l-3.6 3.7 3.8 4.4 4-3.5-4.2-4.6z"/><path class="st16" d="M174.5 295.4l-3.6 3.6 3.8 4.4 4-3.5-4.2-4.5z"/><path class="st17" d="M173.4 294.8l-3.6 3.6 3.8 4.4 4-3.5-4.2-4.5z"/><path class="st16" d="M153.5 314.8l-3.6 3.6 3.8 4.4 4-3.5-4.2-4.5z"/><path class="st17" d="M152.3 314.2l-3.6 3.6 3.8 4.4 4-3.5-4.2-4.5z"/><path class="st16" d="M157.9 239.7l-3.6 3.6 3.8 4.4 4-3.5-4.2-4.5z"/><path class="st17" d="M156.8 239.2l-3.6 3.7 3.8 4.4 4-3.5-4.2-4.6z"/><path class="st16" d="M197.6 239.7l-3.6 3.6 3.8 4.4 4-3.5-4.2-4.5z"/><path class="st17" d="M196.5 239.2l-3.6 3.7 3.8 4.4 4-3.5-4.2-4.6z"/><path class="st16" d="M183.6 222.9l-3.6 3.6 3.8 4.4 4-3.5-4.2-4.5z"/><path class="st17" d="M182.5 222.4l-3.6 3.6 3.8 4.4 4-3.5-4.2-4.5z"/><path class="st16" d="M201.7 215.4l-3.6 3.6 3.8 4.4 4-3.5-4.2-4.5z"/><path class="st17" d="M200.6 214.8l-3.6 3.6 3.8 4.4 4-3.5-4.2-4.5z"/><path class="st16" d="M178.9 200.3l-3.6 3.6 3.8 4.4 4-3.5-4.2-4.5z"/><path class="st17" d="M177.8 199.8l-3.6 3.7 3.8 4.4 4-3.5-4.2-4.6z"/><path class="st16" d="M208.6 181.8l-3.6 3.7 3.8 4.4 4-3.5-4.2-4.6z"/><path class="st17" d="M207.5 181.3l-3.6 3.6 3.8 4.4 4-3.5-4.2-4.5z"/><path class="st16" d="M167.9 170.7l-3.6 3.6 3.8 4.4 4-3.5-4.2-4.5z"/><path class="st17" d="M166.8 170.1l-3.6 3.6 3.8 4.4 4-3.5-4.2-4.5z"/><path class="st16" d="M183.4 150.8l-3.6 3.6 3.8 4.4 4-3.5-4.2-4.5z"/><path class="st17" d="M182.3 150.3l-3.6 3.6 3.8 4.4 4-3.5-4.2-4.5z"/><path class="st16" d="M206.9 161.1l-3.6 3.6 3.8 4.4 4-3.5-4.2-4.5z"/><path class="st17" d="M205.8 160.5l-3.6 3.7 3.8 4.4 4-3.5-4.2-4.6z"/><path class="st16" d="M226.3 148.2l-3.6 3.6 3.8 4.4 4-3.5-4.2-4.5z"/><path class="st17" d="M225.1 147.7l-3.6 3.6 3.8 4.4 4-3.5-4.2-4.5z"/><path class="st16" d="M254.9 152l-3.6 3.6 3.8 4.4 4-3.5-4.2-4.5z"/><path class="st17" d="M253.8 151.5l-3.6 3.6 3.8 4.4 4-3.5-4.2-4.5z"/><path class="st16" d="M229.9 173.3l-3.6 3.6 3.8 4.4 4-3.5-4.2-4.5z"/><path class="st17" d="M228.8 172.7l-3.6 3.6 3.8 4.4 4-3.5-4.2-4.5z"/><path class="st16" d="M268.7 173.3l-3.6 3.6 3.8 4.4 4-3.5-4.2-4.5z"/><path class="st17" d="M267.6 172.7l-3.6 3.6 3.8 4.4 4-3.5-4.2-4.5z"/><path class="st16" d="M288 153.6l-3.6 3.6 3.8 4.4 4-3.5-4.2-4.5z"/><path class="st17" d="M286.9 153l-3.6 3.6 3.8 4.4 4-3.5-4.2-4.5z"/><path class="st16" d="M233.1 124.8l-3.6 3.6 3.8 4.4 4-3.5-4.2-4.5z"/><path class="st17" d="M232 124.2l-3.6 3.6 3.8 4.4 4-3.5-4.2-4.5z"/><path class="st16" d="M251.7 116l-3.6 3.6 3.8 4.4 4-3.5-4.2-4.5z"/><path class="st17" d="M250.6 115.5l-3.6 3.6 3.8 4.4 4-3.5-4.2-4.5z"/><path class="st16" d="M217.9 106.3l-3.6 3.6 3.8 4.4 4-3.5-4.2-4.5z"/><path class="st17" d="M216.8 105.7l-3.6 3.6 3.8 4.4 4-3.5-4.2-4.5z"/><path class="st16" d="M178.2 116.2l-3.6 3.6 3.8 4.4 4-3.5-4.2-4.5z"/><path class="st17" d="M177.1 115.6l-3.6 3.6 3.8 4.4 4-3.5-4.2-4.5z"/><path class="st16" d="M267.9 100.6l-3.6 3.7 3.8 4.4 4-3.5-4.2-4.6z"/><path class="st17" d="M266.8 100.1l-3.6 3.7 3.8 4.4 4-3.5-4.2-4.6z"/><path class="st16" d="M261.3 72l-3.6 3.7 3.8 4.4 4-3.5-4.2-4.6z"/><path class="st17" d="M260.2 71.4l-3.6 3.7 3.8 4.4 4-3.5-4.2-4.6z"/><path class="st16" d="M235.6 71.8l-3.6 3.7 3.8 4.4 4-3.5-4.2-4.6z"/><path class="st17" d="M234.5 71.3l-3.6 3.7 3.8 4.4 4-3.5-4.2-4.6z"/><path class="st16" d="M211 70.3l-3.6 3.7 3.8 4.4 4-3.5-4.2-4.6z"/><path class="st17" d="M210 69.7l-3.6 3.7 3.8 4.4 4-3.5-4.2-4.6z"/><path class="st16" d="M241.7 41.9l-3.6 3.7 3.8 4.4 4-3.5-4.2-4.6z"/><path class="st17" d="M240.6 41.3L237 45l3.8 4.4 4-3.5-4.2-4.6z"/><path class="st16" d="M222.6 47.7l-3.6 3.7 3.8 4.4 4-3.5-4.2-4.6z"/><path class="st17" d="M221.5 47.1l-3.6 3.7 3.8 4.4 4-3.5-4.2-4.6z"/><path class="st20" d="M139.7 249l29.8-14.6 52.9 46.3-82.7-31.7z"/><path class="st21" d="M222.4 280.6L256 259l75.3-4.6-108.9 26.2z"/><path class="st20" d="M155 178.8l44.1 5 30.3-12.9 22.5 9.4 65.2 6.5-99 11.3-63.1-19.3z"/><path class="st21" d="M218 198.2l7.8-25.7 3.6-1.6 22.5 9.4 65.2 6.5-99.1 11.4zm7.9-52.3l20.4-19.6 14.9 2.4 4.4-22.4 30 18.9-69.7 20.7z"/><path class="st20" d="M162.1 124.9l25.9-7.4 37.9 28.5-63.8-21.1zm24.5-52.4l33.7-8.2L237.6 97l-51-24.5z"/><path class="st21" d="M279.9 77l-16.8-2.9L237.7 97l42.2-20z"/><path class="st20" d="M142.5 326.8l32.7-14.9 39 22.9 11 2.5 15.6-5.5 41.8 6.1 8.1-23.7 38.2 14.1-87.5 30.4-98.9-31.9z"/><path class="st21" d="M241.4 358.8l-.6-26.9 33.3.1 16.6-17.8 33.5 1.7 5.5 12.4-88.3 30.5z"/><g id="grass"><path class="st9" d="M1169.5 992l31.9 11.6 23.9-13.1-34.5-5-21.3 6.5z"/><path class="st22" d="M1184.5 992.8l-37.8-43.3 54.6 44.6-16.8-1.3z"/><path class="st23" d="M1201.3 994.1l-21.2-52.4 3.9 38.2 17.3 14.2z"/><path class="st22" d="M1195.6 980l22.2-21.2-16.4 35.3-5.8-14.1z"/><path class="st23" d="M913.1 896.4l-17.5-5.7 20.4 13.4-2.9-7.7z"/><path class="st9" d="M903.1 904.1l23.2-5.5 25.2 5.5-27.7 11.1-20.7-11.1z"/><path class="st22" d="M916.1 904.1l-11.7-30.8 23.5 30.8h-11.8z"/><path class="st23" d="M919.9 893.7l18.2-23.2-10.3 33.6-7.9-10.4z"/><path class="st22" d="M930.9 894.1l22.8-5.4-19.1 14.6-6.8.8 3.1-10z"/><path class="st9" d="M990 447.3l21.5-6 21.3 7.1-24.7 4.5-18.1-5.6z"/><path class="st23" d="M1015.5 447.3l-9.5-39.5v40.5l9.5-1z"/><path class="st22" d="M1006 448.2l16.1-32.4-6.6 32.5-9.5-.1z"/><path class="st23" d="M1015.5 448.4l15-18.3-13.2 9.4-1.8 8.9z"/><path class="st22" d="M1006 434.5l-13.8-21.7 13.8 35.5v-13.8z"/><path class="st23" d="M1002.5 439.3l-10.3-5.8 13.8 14.8-3.5-9z"/></g><g id="flowers"><path class="st9" d="M1042.2 562.8l16.3-6.9 16 6.9-18.5 5.7-13.8-5.7z"/><path class="st23" d="M1058.3 564.2l-8-32.8 13-1.3-5 34.1z"/><path class="st24" d="M1034.6 534.8l11.7 9.1 12.8-7.3 13.2 5.9 7.6-14.1-12.6-3.1 6.2-7.9-14-4.2-4.2 7.7-11.7-5.5-10 4.5 7.3 7.4-6.3 7.5z"/><path class="st25" d="M1048.4 527.4l9.8-3.5 5.2 4.6-8.7 2.9-6.3-4z"/><path class="st9" d="M296.6 499.9l-18-7.6-26.3 7.6 26.5 8.6 17.8-8.6z"/><path class="st23" d="M278 499.9l1.8-27.3-7.7-2.6 5.9 29.9zm-1.9 0l-8.5-20.6-5.2 6.4 13.7 14.2zm4.7-.7l4.4-20.4 8.9 3.6-13.3 16.8z"/><path class="st19" d="M284.3 485.5l19.9-6.2-19.9-14v20.2z"/><path class="st26" d="M279.4 479.3l5.5-23.8-20.3 10.5 14.8 13.3z"/><path class="st19" d="M264.6 488l4.7-13.4-21.2 9.3 16.5 4.1z"/></g><path class="st9" d="M1107.4 305.5l-86.8 37.3L920 294.9l-67.5 29.3 92.6 31.6 20.1-2.5-.9.2 41.1 33.8 161.2-55.7-59.2-26.1z"/><path class="st27" d="M908.6 242.6h17.2v79.1h-17.2v-79.1z"/><path class="st28" d="M925.8 294.6l-17.2-15.8v-31.7h17.2v47.5z"/><path class="st29" d="M868.7 250.6l84 22.2 61.2-28 15.9-36.9-3.9-65.7-92.9 31.7-51.8 31-12.5 45.7z"/><path class="st23" d="M1025.8 142.2l-92.5 39.4-108.6-30.1 25-50.7 78.5 38.7 64.6-40.4 33 43.1z"/><path class="st23" d="M990 73.5l-61.8 66-78.5-38.7 36.3-46 66.7-29.6L990 73.5z"/><path class="st30" d="M928.1 139.6l61.8-66 2.7 25.6-64.5 40.4z"/><path class="st22" d="M952.7 25.3l-43.8 70.3L886 54.9l66.7-29.6z"/><path class="st30" d="M933.3 181.6l-64.6 69-24.7-53.4-19.3-45.6 108.6 30z"/><path class="st16" d="M952.7 25.3l-43.8 70.3 7.5 38.2 16.9 47.8-89.3 15.6 24.8 53.4 84 22.2 73.1-130.6-33-43-2.9-25.7-37.3-48.2zm77 182.6l-77 64.9 61.2-28 15.8-36.9z"/><path class="st16" d="M988 162l-3.7 3.4 3.9 4.1 4.1-3.3-4.3-4.2z"/><path class="st17" d="M986.9 161.5l-3.7 3.4 3.9 4.1 4.1-3.3-4.3-4.2z"/><path class="st16" d="M923.3 178.6l-3.7 3.4 3.9 4.1 4.1-3.3-4.3-4.2z"/><path class="st17" d="M922.1 178.1l-3.7 3.4 3.9 4.1 4.1-3.3-4.3-4.2z"/><path class="st16" d="M946.9 147.8l-3.7 3.4 3.9 4.1 4.1-3.3-4.3-4.2z"/><path class="st17" d="M945.7 147.3l-3.7 3.4 3.9 4.1 4.1-3.3-4.3-4.2z"/><path class="st16" d="M927.6 131.3l-3.7 3.4 3.9 4.1 4.1-3.3-4.3-4.2z"/><path class="st17" d="M926.4 130.8l-3.7 3.4 3.9 4.1 4.1-3.3-4.3-4.2z"/><path class="st16" d="M948.7 119l-3.7 3.4 3.9 4.1 4.1-3.3-4.3-4.2z"/><path class="st17" d="M947.5 118.5l-3.7 3.4 3.9 4.1 4.1-3.3-4.3-4.2z"/><path class="st16" d="M986 141.9l-3.7 3.4 3.9 4.1 4.1-3.3-4.3-4.2z"/><path class="st17" d="M984.8 141.4l-3.7 3.4 3.9 4.1 4.1-3.3-4.3-4.2z"/><path class="st16" d="M961.3 161.5l-3.7 3.4 3.9 4.1 4.1-3.3-4.3-4.2z"/><path class="st18" d="M960.2 161l-3.7 3.4 3.9 4.1 4.1-3.3-4.3-4.2z"/><path class="st16" d="M1009 166.3l-3.7 3.4 3.9 4.1 4.1-3.3-4.3-4.2z"/><path class="st18" d="M1007.8 165.8l-3.7 3.4 3.9 4.1 4.1-3.3-4.3-4.2z"/><path class="st16" d="M971.3 133.8l-3.7 3.4 3.9 4.1 4.1-3.3-4.3-4.2z"/><path class="st18" d="M970.1 133.3l-3.7 3.4 3.9 4.1 4.1-3.3-4.3-4.2z"/><path class="st16" d="M917.2 144.1l-3.7 3.4 3.9 4.1 4.1-3.3-4.3-4.2z"/><path class="st18" d="M916 143.6l-3.7 3.4 3.9 4.1 4.1-3.3-4.3-4.2zm21.5 15.5l-3.7 3.4 3.9 4.1 4.1-3.3-4.3-4.2z"/><path class="st16" d="M855.1 185.2l-3.7 3.4 3.9 4.1 4.1-3.3-4.3-4.2z"/><path class="st18" d="M854 184.7l-3.7 3.4 3.9 4.1 4.1-3.3-4.3-4.2z"/><path class="st16" d="M945.4 242.3l-3.7 3.4 3.9 4.1 4.1-3.3-4.3-4.2z"/><path class="st18" d="M944.2 241.8l-3.7 3.4 3.9 4.1 4.1-3.3-4.3-4.2z"/><path class="st16" d="M921 232.7l-3.7 3.4 3.9 4.1 4.1-3.3-4.3-4.2z"/><path class="st18" d="M919.8 232.2l-3.7 3.4 3.9 4.1 4.1-3.3-4.3-4.2z"/><path class="st16" d="M984.6 223.2l-3.7 3.4 3.9 4.1 4.1-3.3-4.3-4.2z"/><path class="st18" d="M983.4 222.6l-3.7 3.4 3.9 4.1 4.1-3.3-4.3-4.2z"/><path class="st16" d="M899.3 206.7l-3.7 3.4 3.9 4.1 4.1-3.3-4.3-4.2z"/><path class="st18" d="M898.1 206.2l-3.7 3.4 3.9 4.1 4.1-3.3-4.3-4.2z"/><path class="st16" d="M967.8 188.8l-3.7 3.4 3.9 4.1 4.1-3.3-4.3-4.2z"/><path class="st18" d="M966.7 188.3l-3.7 3.4 3.9 4.1 4.1-3.3-4.3-4.2z"/><path class="st16" d="M887.9 177.1l-3.7 3.4 3.9 4.1 4.1-3.3-4.3-4.2z"/><path class="st18" d="M886.7 176.6L883 180l3.9 4.1 4.1-3.3-4.3-4.2z"/><path class="st16" d="M903.5 153.7l-2.9 3.7 4.8 3.8 3.4-3.6-5.3-3.9z"/><path class="st18" d="M902.2 153.3l-3 3.7 4.8 3.8 3.4-3.6-5.2-3.9z"/><path class="st16" d="M854 157.3l-3 3.7 4.8 3.8 3.4-3.6-5.2-3.9z"/><path class="st18" d="M852.7 156.8l-2.9 3.7 4.8 3.8 3.4-3.6-5.3-3.9z"/><path class="st16" d="M904.2 125.7l-3 3.7 4.8 3.8 3.4-3.6-5.2-3.9z"/><path class="st18" d="M903 125.3l-3 3.7 4.8 3.8 3.4-3.6-5.2-3.9z"/><path class="st16" d="M930.5 101.4l-3 3.7 4.8 3.8 3.4-3.6-5.2-3.9z"/><path class="st18" d="M929.3 100.9l-3 3.7 4.8 3.8 3.4-3.6-5.2-3.9z"/><path class="st16" d="M863.4 98.2l-4 3.3 3.6 4.2 4.4-3.1-4-4.4z"/><path class="st18" d="M862.3 97.7l-4 3.3 3.6 4.2 4.3-3.1-3.9-4.4z"/><path class="st16" d="M974.1 95.6l-3.5 3.5 4.2 4 3.9-3.4-4.6-4.1z"/><path class="st18" d="M972.9 95.1l-3.5 3.5 4.2 4 3.9-3.4-4.6-4.1z"/><path class="st16" d="M957.3 45.9l-3.5 3.5 4.2 4 3.9-3.3-4.6-4.2z"/><path class="st18" d="M956.2 45.4l-3.5 3.5 4.2 4 3.9-3.3-4.6-4.2z"/><path class="st16" d="M929.6 55.2l-3.5 3.5 4.2 4 3.9-3.3-4.6-4.2z"/><path class="st19" d="M928.4 54.7l-3.5 3.5 4.2 4 3.9-3.3-4.6-4.2z"/><path class="st16" d="M955.4 70.8l-3.5 3.5 4.2 4L960 75l-4.6-4.2z"/><path class="st19" d="M954.3 70.3l-3.5 3.5 4.2 4 3.9-3.4-4.6-4.1z"/><path class="st16" d="M930.4 88.6l-3.5 3.5 4.2 4 3.9-3.3-4.6-4.2z"/><path class="st19" d="M929.2 88.1l-3.5 3.5 4.2 4 3.9-3.3-4.6-4.2z"/><path class="st16" d="M991.7 101.5l-3.5 3.5 4.2 4 3.9-3.4-4.6-4.1z"/><path class="st19" d="M990.5 101l-3.5 3.5 4.2 4 3.9-3.3-4.6-4.2z"/><path class="st16" d="M897.3 94.3l-3.5 3.5 4.2 4 3.9-3.3-4.6-4.2z"/><path class="st19" d="M896.1 93.8l-3.5 3.5 4.2 4 3.9-3.4-4.6-4.1z"/><path class="st16" d="M869.8 88.6l-3.5 3.5 4.2 4 3.9-3.3-4.6-4.2z"/><path class="st19" d="M868.7 88.1l-3.5 3.5 4.2 4 3.9-3.3-4.6-4.2z"/><path class="st16" d="M890.8 68l-3.5 3.5 4.2 4 3.9-3.4-4.6-4.1z"/><path class="st19" d="M889.6 67.6l-3.5 3.5 4.2 4 3.9-3.3c0-.1-4.6-4.2-4.6-4.2z"/><path class="st16" d="M875.2 119.2l-3.5 3.5 4.2 4 3.9-3.4-4.6-4.1z"/><path class="st19" d="M874 118.7l-3.5 3.5 4.2 4 3.9-3.4-4.6-4.1z"/><path class="st16" d="M846.6 142.1l-3.5 3.5 4.2 4 3.9-3.4-4.6-4.1z"/><path class="st19" d="M845.4 141.6l-3.5 3.5 4.2 4 3.9-3.4-4.6-4.1z"/><path class="st16" d="M886.2 149.7l-3.5 3.5 4.2 4 3.9-3.4-4.6-4.1z"/><path class="st19" d="M885 149.2l-3.5 3.5 4.2 4 3.9-3.4-4.6-4.1z"/><path class="st16" d="M862.6 167.9l-3.5 3.5 4.2 4 3.9-3.4-4.6-4.1z"/><path class="st19" d="M861.4 167.4l-3.5 3.5 4.2 4 3.9-3.3-4.6-4.2z"/><path class="st16" d="M897.3 165.5l-3.5 3.5 4.2 4 3.9-3.3-4.6-4.2z"/><path class="st19" d="M896.1 165l-3.5 3.5 4.2 4 3.9-3.3-4.6-4.2z"/><path class="st16" d="M921.6 164.1l-3.5 3.5 4.2 4 3.9-3.4-4.6-4.1z"/><path class="st19" d="M920.4 163.6l-3.5 3.5 4.2 4 3.9-3.4-4.6-4.1z"/><path class="st16" d="M954 133.7l-3.5 3.5 4.2 4 3.9-3.3-4.6-4.2z"/><path class="st19" d="M952.8 133.2l-3.5 3.5 4.2 4 3.9-3.4-4.6-4.1z"/><path class="st16" d="M971.9 152.4l-3.5 3.5 4.2 4 3.9-3.3-4.6-4.2z"/><path class="st19" d="M970.7 151.9l-3.5 3.5 4.2 4 3.9-3.4-4.6-4.1z"/><path class="st16" d="M943.7 174.8l-3.5 3.5 4.2 4 3.9-3.4-4.6-4.1z"/><path class="st19" d="M942.5 174.3l-3.5 3.5 4.2 4 3.9-3.4-4.6-4.1z"/><path class="st16" d="M971.5 120.1l-3.5 3.5 4.2 4 3.9-3.4-4.6-4.1z"/><path class="st19" d="M970.3 119.6l-3.5 3.5 4.2 4 3.9-3.3-4.6-4.2z"/><path class="st16" d="M886.2 198.7l-3.5 3.5 4.2 4 3.9-3.3-4.6-4.2z"/><path class="st19" d="M885 198.2l-3.5 3.5 4.2 4 3.9-3.4-4.6-4.1z"/><path class="st16" d="M881.3 222.6l-3.5 3.5 4.2 4 3.9-3.4-4.6-4.1z"/><path class="st19" d="M880.1 222.1l-3.5 3.5 4.2 4 3.9-3.4-4.6-4.1z"/><path class="st16" d="M890 244.6l-3.5 3.5 4.2 4 3.9-3.3-4.6-4.2z"/><path class="st19" d="M888.8 244.1l-3.5 3.5 4.2 4 3.9-3.4-4.6-4.1z"/><path class="st16" d="M936.8 228.1l-3.5 3.5 4.2 4 3.9-3.3-4.6-4.2z"/><path class="st19" d="M935.7 227.6l-3.5 3.5 4.2 4 3.9-3.3-4.6-4.2z"/><path class="st16" d="M970 236.2l-3.5 3.5 4.2 4 3.9-3.3-4.6-4.2z"/><path class="st19" d="M968.8 235.7l-3.5 3.5 4.2 4 3.9-3.4-4.6-4.1z"/><path class="st16" d="M963.1 204.7l-3.5 3.5 4.2 4 3.9-3.3-4.6-4.2z"/><path class="st19" d="M962 204.2l-3.5 3.5 4.2 4 3.9-3.4-4.6-4.1z"/><path class="st16" d="M939.9 210.4l-3.5 3.5 4.2 4 3.9-3.4-4.6-4.1z"/><path class="st19" d="M938.7 209.9l-3.5 3.5 4.2 4 3.9-3.4-4.6-4.1z"/><path class="st16" d="M993.6 213.5l-3.5 3.5 4.2 4 3.9-3.3-4.6-4.2z"/><path class="st19" d="M992.4 213l-3.5 3.5 4.2 4 3.9-3.3-4.6-4.2z"/><path class="st16" d="M903.7 224.3l-3.5 3.5 4.2 4 3.9-3.4-4.6-4.1z"/><path class="st19" d="M902.5 223.8l-3.5 3.5 4.2 4 3.9-3.3-4.6-4.2z"/><path class="st16" d="M921.2 255.5l-3.5 3.5 4.2 4 3.9-3.4-4.6-4.1z"/><path class="st19" d="M920.1 255.1l-3.5 3.5 4.2 4 3.9-3.3-4.6-4.2z"/><path class="st16" d="M937.2 196.3l-3.7 3.4 3.9 4.1 4.1-3.3-4.3-4.2z"/><path class="st17" d="M936.1 195.7l-3.7 3.4 3.9 4.1 4.1-3.3-4.3-4.2z"/><path class="st16" d="M980.1 203.4l-3.7 3.4 3.9 4.1 4.1-3.3-4.3-4.2z"/><path class="st17" d="M979 202.9l-3.7 3.4 3.9 4.1 4.1-3.3-4.3-4.2z"/><path class="st16" d="M950.9 223.3l-3.7 3.4 3.9 4.1 4.1-3.3-4.3-4.2z"/><path class="st17" d="M949.8 222.8l-3.7 3.4 3.9 4.1 4.1-3.3-4.3-4.2z"/><path class="st16" d="M998.7 234l-3.7 3.4 3.9 4.1 4.1-3.3-4.3-4.2z"/><path class="st17" d="M997.5 233.5l-3.7 3.4 3.9 4.1 4.1-3.3-4.3-4.2z"/><path class="st16" d="M907 239.2l-3.7 3.4 3.9 4.1 4.1-3.3-4.3-4.2z"/><path class="st17" d="M905.9 238.7l-3.7 3.4 3.9 4.1 4.1-3.3-4.3-4.2z"/><path class="st16" d="M920 215.2l-3.7 3.4 3.9 4.1 4.1-3.3-4.3-4.2z"/><path class="st17" d="M918.8 214.7l-3.7 3.4 3.9 4.1 4.1-3.3-4.3-4.2z"/><path class="st16" d="M872 203.1l-3.7 3.4 3.9 4.1 4.1-3.3-4.3-4.2z"/><path class="st17" d="M867.8 206.6l3.3 3.5 4.1-3.3-4.3-4.3-3.6 3.3c.1.3.3.6.5.8z"/><path class="st16" d="M836.4 158.4l-3.7 3.4 3.9 4.1 4.1-3.3-4.3-4.2z"/><path class="st17" d="M835.3 157.8l-3.7 3.4 3.9 4.1 4.1-3.3-4.3-4.2z"/><path class="st16" d="M877.6 158.4l-3.7 3.4 3.9 4.1 4.1-3.3-4.3-4.2z"/><path class="st17" d="M876.4 157.8l-3.7 3.4 3.9 4.1 4.1-3.3-4.3-4.2z"/><path class="st16" d="M863.1 142.7l-3.7 3.4 3.9 4.1 4.1-3.3-4.3-4.2z"/><path class="st17" d="M862 142.2l-3.7 3.4 3.9 4.1 4.1-3.3-4.3-4.2z"/><path class="st16" d="M881.9 135.7l-3.7 3.4 3.9 4.1 4.1-3.3-4.3-4.2z"/><path class="st17" d="M880.8 135.2l-3.7 3.4 3.9 4.1 4.1-3.3-4.3-4.2z"/><path class="st16" d="M858.3 121.7l-3.7 3.4 3.9 4.1 4.1-3.3-4.3-4.2z"/><path class="st17" d="M857.1 121.2l-3.7 3.4 3.9 4.1 4.1-3.3-4.3-4.2z"/><path class="st16" d="M889 104.5l-3.7 3.4 3.9 4.1 4.1-3.3-4.3-4.2z"/><path class="st17" d="M887.9 104l-3.7 3.4 3.9 4.1 4.1-3.3-4.3-4.2z"/><path class="st16" d="M887.2 85.3l-3.7 3.4 3.9 4.1 4.1-3.3-4.3-4.2z"/><path class="st17" d="M886.1 84.8l-3.7 3.4 3.9 4.1 4.1-3.3-4.3-4.2z"/><path class="st16" d="M907.3 73.3l-3.7 3.4 3.9 4.1 4.1-3.3-4.3-4.2z"/><path class="st17" d="M906.1 72.8l-3.7 3.4 3.9 4.1 4.1-3.3-4.3-4.2z"/><path class="st16" d="M937 76.8l-3.7 3.4 3.9 4.1 4.1-3.3-4.3-4.2z"/><path class="st17" d="M935.8 76.3l-3.7 3.4 3.9 4.1 4.1-3.3-4.3-4.2z"/><path class="st16" d="M911.1 96.6l-3.7 3.4 3.9 4.1 4.1-3.3-4.3-4.2z"/><path class="st17" d="M909.9 96.1l-3.7 3.4 3.9 4.1 4.1-3.3-4.3-4.2z"/><path class="st16" d="M951.2 96.6l-3.7 3.4 3.9 4.1 4.1-3.3-4.3-4.2z"/><path class="st17" d="M950 96.1l-3.7 3.4 3.9 4.1 4.1-3.3-4.3-4.2z"/><path class="st16" d="M971.3 78.3l-3.7 3.4 3.9 4.1 4.1-3.3-4.3-4.2z"/><path class="st17" d="M970.1 77.7l-3.7 3.4 3.9 4.1 4.1-3.3-4.3-4.2z"/><path class="st16" d="M914.4 51.5l-3.7 3.4 3.9 4.1 4.1-3.3-4.3-4.2z"/><path class="st17" d="M913.2 51l-3.7 3.4 3.9 4.1 4.1-3.3-4.3-4.2z"/><path class="st16" d="M933.7 43.4l-3.7 3.4 3.9 4.1 4.1-3.3-4.3-4.2z"/><path class="st17" d="M932.5 42.9l-3.7 3.4 3.9 4.1 4.1-3.3-4.3-4.2z"/><path class="st16" d="M950.4 29l-3.7 3.4 3.9 4.1 4.1-3.3-4.3-4.2z"/><path class="st17" d="M949.3 28.5l-3.7 3.4 3.9 4.1 4.1-3.3-4.3-4.2z"/><path class="st16" d="M1017.9 205.2l-3.5 3.5 4.2 4 3.9-3.4-4.6-4.1z"/><path class="st18" d="M1016.7 204.7l-3.5 3.5 4.2 4 3.9-3.4-4.6-4.1z"/><path class="st16" d="M1017.9 178.7l-3.5 3.5 4.2 4 3.9-3.3-4.6-4.2z"/><path class="st18" d="M1016.7 178.2l-3.5 3.5 4.2 4 3.9-3.4-4.6-4.1z"/><path class="st16" d="M1015.6 192.3l-3.5 3.5 4.2 4 3.9-3.4-4.6-4.1z"/><path class="st19" d="M1014.4 191.8l-3.5 3.5 4.2 4 3.9-3.4-4.6-4.1z"/><path class="st16" d="M997.6 200.2l-3.7 3.4 3.9 4.1 4.1-3.3-4.3-4.2z"/><path class="st17" d="M996.5 199.7l-3.7 3.4 3.9 4.1 4.1-3.3-4.3-4.2z"/><path class="st16" d="M1004.3 138.2l-3.5 3.5 4.2 4 3.9-3.3-4.6-4.2z"/><path class="st18" d="M1003.1 137.7l-3.5 3.5 4.2 4 3.9-3.4-4.6-4.1z"/><path class="st16" d="M1016.4 146.4l-3.7 3.4 3.9 4.1 4.1-3.3-4.3-4.2z"/><path class="st17" d="M1015.3 145.9l-3.7 3.4 3.9 4.1 4.1-3.3-4.3-4.2z"/><path class="st16" d="M1003 124l-3.7 3.4 3.9 4.1 4.1-3.3-4.3-4.2z"/><path class="st17" d="M1001.8 123.5l-3.7 3.4 3.9 4.1 4.1-3.3-4.3-4.2z"/><path class="st16" d="M970.8 64.1l-3.5 3.5 4.2 4 3.9-3.3c-.1 0-4.6-4.2-4.6-4.2z"/><path class="st18" d="M969.6 63.6l-3.5 3.5 4.2 4 3.9-3.3-4.6-4.2z"/><path class="st16" d="M982.9 72.3l-3.7 3.4 3.9 4.1 4.1-3.3-4.3-4.2z"/><path class="st17" d="M981.8 71.8l-3.7 3.4 3.9 4.1 4.1-3.3-4.3-4.2z"/><path class="st16" d="M969.5 49.9l-3.7 3.4 3.9 4.1 4.1-3.3-4.3-4.2z"/><path class="st17" d="M968.3 49.3l-3.7 3.4 3.9 4.1 4.1-3.3-4.3-4.2z"/><path class="st31" d="M952.7 25.3l24.7 32.1-35-16.3-24-1m-68.7 60.8l62.4 13.1 61.3-23.3-45.3 48.8-78.4-38.6zm166.7 28.8l-16.5 4-25.5-5-25.5 30.5-21.2 5.2h-56.3l61.9 17.2 92.5-39.4-9.4-12.5zm5.7 96l-29.7 20.7-27.3 2.7-22.3 13.7-28.7-20-29.3 2-29.7-23.3 13.6 29.2 84 22.2 61.2-28 8.2-19.2z"/><path class="st14" d="M963 259.1v85.3l45.6 22.3 11.6-43.6-2.9-48.5-54.3-15.5z"/><path class="st11" d="M1067.8 256.2l-33.9-11.6-31 33.9 5.8 88.3L1126 329l-4.5-89.7-53.7 16.9z"/><path class="st13" d="M963 259.1l75.2-33.5 83.2 13.7-118.6 39.3-39.8-19.5z"/><path class="st32" d="M977.6 265.9l84.8-36.3 24.2 3.9-93.5 40.2-15.5-7.8z"/><path class="st33" d="M973.7 349.3l3.9-83.4 15.5 7.8-2.9 84.4-16.5-8.8zm95.9-2.1l-2.8-91 13.3-3.2 11.9 86.8-22.4 7.4z"/><path class="st32" d="M1006.8 239.6l46.4 13.7 13.6 2.9 13.3-3.2-11.4-6.5-45.2-14.4-16.7 7.5z"/><path class="st6" d="M1057.1 253.7l-2.6-4.2 25.6 6.1 7-9.6-12.2-27.3-28.5 24.4-8.6 1.8-36.1-21.6-2.9 29 15.7 8.7 19.2-10.5-3.5 7.5-20.9 31.4 23.2 4.6 7-31.9 10.4-2.9 16.3 33.7 25.6-16.3-34.7-22.9z"/><path class="st34" d="M1042.4 234.6l8.1 6.4 32.5-3.5-12.2-27.3-28.4 24.4zm-8.6 1.8l-36.1-21.6-2.9 29 34.9-1.7 4.1-5.7z"/><path class="st35" d="M1035.5 253.8l-9.3-4.1-20.9 31.4 23.2 4.6 7-31.9zm10.4-3l7.3-5.7 34.5 23.1-25.6 16.3-16.2-33.7zM1033.8 236.4l-4.2 5.7-3.5 7.5 9.3 4.1 10.5-2.9 7.3-5.7-2.7-4.2-8.1-6.4-8.6 1.9z"/><path class="st35" d="M994.8 243.9l15.7 8.7 19.2-10.5-34.9 1.8zm55.8-2.9l32.5-3.5-7 9.6-25.5-6.1z"/><path class="st32" d="M1026.2 249.7l9.3 4.1 10.5-2.9 7.3-5.7-27.1 4.5z"/><g id="character_kopia_3"><path class="st36" d="M609.2 161.2l30.9 7.3.5 39.6-5.7 23.2-19.1-35.4-6.6-34.7z"/><path class="st37" d="M637 281.4l9.8 97.1-2.4 7.3 3.8 6.5-22-2.6-19.8 4.1-1.8-9.6-4.4-4.6-17.3-33.1-20.4 35.9-7.1 6.1-3.2 9.8-17-4.5-17.9 3 1.6-9-1.6-6.6.3-85.3 14.4-39.3 105 24.8z"/><path class="st9" d="M714.1 414.8L586.5 387l-121 38.9 115.6 38.4 133-49.5z"/><path class="st22" d="M636 392.7l1.7 12 6.5 2.9 23.6-.4v19.1l-51.3.5.4-18.1 3.5-15.3 15.6-.7z"/><path class="st29" d="M617 408.7l6.9 13.8 20.3-14.9-8.3-14.9-7.7-3.3-11.1 4-.1 15.3z"/><path class="st16" d="M636 392.7l-18.8.7-.3 9.8 19.1-10.5z"/><path class="st22" d="M524.2 397.1l-1.7 12-6.5 2.9-13.8-.4v19.1l41.4.5-.4-18.1-3.5-15.3-15.5-.7z"/><path class="st29" d="M543.2 413.1l-6.9 13.8-6.5-14.5-13.8-.4 8.3-14.9 7.7-3.3 11 4 .2 15.3z"/><path class="st38" d="M628.3 291.8l8.7 87.3-13.5 2.4-14.6-92.2 19.4 2.5zm-28.1 19.6l8.5 69.7-8.5-1.5-17.3-33.1-4.3-48.4 21.6 13.3zm-27.3-11.3l-10.4 82.3-19.3.7 13.3-73 16.4-10zm-25.3-10.9l-16.3 93.2-8.4-.8 3.5-73.6 21.2-18.8z"/><path class="st39" d="M646.8 378.5l-46.6 1.1 6.2 14.2 41.8-1.5-1.4-13.8zm-84.3 3.9l-45.1-1.3v15.7l34.8 1.6 10.3-16z"/><path class="st16" d="M524.2 397.1l18.7.7.3 9.8-19-10.5z"/><path class="st40" d="M572.3 163l62.6 68.3 7.4 7.2-26.5 41.1-6.9 9.7-8.6 22.2-21.6-13.3-22 12-8.9-20.8-6.9-9.7-8.6-12.5-12.9-43.5 52.9-60.7z"/><path class="st36" d="M547.3 163l-29 9.2-2.3 35.9 5.7 23.2 19.1-35.4 6.5-32.9z"/><path class="st29" d="M651.4 137.1l-40.2-7.7-2.2-11.6 6.9-12.8 16.1 10.1 19.4 22z"/><path class="st41" d="M480.4 60.7l10.1 49.5 12.4 30.4 6 21.4 40.6-7.1 17.6 40.1 11.7 8.4 22.1-20.2 14.9-78.2-53-47.8-55.6-26.1-26.8 29.6z"/><path class="st42" d="M517.9 36.1L480.1 61l13.3-20.8 13.8-9.1 7-.7 3.7 5.7z"/><path class="st43" d="M528.3 106.4l6.8-31.6 8.1-15.9-21.1-.4-.5 9.5 6.7 38.4zm-15.6-36.7l-5.3-8-17.9 9.1 27.9 24.5-4.7-25.6z"/><path class="st42" d="M519.8 108.1l5.6 5.1 2.9-6.8-8.5 1.7z"/><path class="st43" d="M562.8 57.2l19.8 90.7-16.4 13.9-6.1 16.9-1.1 6.8 8.2 9.5 20.3 14.8 23.5-30.6 3.5-20-3.4-29.8-2.2-11.6 6.9-12.8-53-47.8z"/><path class="st44" d="M512.7 69.7l7.1 38.4 8.5-1.7-6.7-38.4-8.9 1.7z"/><path class="st42" d="M562.8 57.2l19.5 31.6 19.2 12.1-20 7.9 29.7 20.5 4.7-24.4L596.6 84l-33.8-26.8z"/><path class="st40" d="M507.4 61.7l-12.2-2.1-5.8 11.1 18-9zm14.7-3.2l9-5.8 12.2 6.3-21.2-.5z"/><path class="st45" d="M500.1 78.3c2.4-.6 5.2 2.1 6.2 6.1s-.1 7.7-2.5 8.3-5.2-2.1-6.2-6.1.1-7.7 2.5-8.3zm35.4-8c2.4-.6 5.2 2.1 6.2 6.1s-.2 7.7-2.5 8.3-5.2-2.1-6.2-6.1 0-7.7 2.5-8.3z"/><path class="st40" d="M505.2 128.8l26.6 16.2 24.7-25.5-51.3 9.3z"/><path class="st25" d="M511.8 129.2l16.6.5L550 122l-14.1 13.2-10.1 1.7-14-7.7z"/><path class="st46" d="M505.2 128.8l21.7-7.2 29.6-2.1-28.1 11-23.2-1.7z"/><path class="st23" d="M507.2 31.1l55.6 26.1 52.6 28.3 50.1 19.8 6.1-26.1-2.6-20.9-49.8-10.6-42.2-4.9-28.5-6.9-41.3-4.8z"/><path class="st30" d="M562.8 57.2l102.7 48.1-14.1 31.8-88.6-79.9zM577 42.8L603.7 0l65.2 58.3L577 42.8zm91.9 15.5L696 83.5l-30.5 21.8 3.4-47z"/><path class="st22" d="M507.2 31.1l12-30.2 84.5-.9L577 42.8l-69.8-11.7z"/><path class="st30" d="M480.4 60.7l22.5 79.9-11.1-7.9-10.1-2.4-10.4-5 1.3-56 1.1-7.1 6.7-1.5z"/><path class="st23" d="M507.2 31.1l-34.7 38.2-19.1-23.1L519.2 1c0-.1-12 30.1-12 30.1z"/><path class="st47" d="M582.8 75.2l-1.3 33.7 42.6 3.6-11.6-10.5-22-2.1.4-17.4-8.1-7.3zm-92.5 20.9l-8.7 34.1 21.2 10.3-4.2-14.8-6.3-2.6L495 113l-4.7-16.9z"/><path class="st42" d="M549.5 155l42-9.4-22.7 43.4-19.3-34z"/><path class="st46" d="M613.3 148l-34.5 55.5 40.7-31.2-6.2-24.3z"/><path class="st47" d="M578.8 203.4L542 177.1l-20.4 54.2 57.2-27.9zm40.7-31.2l-40.7 31.2 56 27.9-15.3-59.1z"/><path class="st36" d="M578.8 203.4l56 50v-22.2l-56-27.8zm-57.2 27.9l6.8 24.5 50.4-52.3-57.2 27.8z"/><path class="st38" d="M591.5 209.8l-12.7 14.4-13.1-14.4 13.1-6.4 12.7 6.4z"/><path class="st37" d="M578.8 224.3l-19.1 52.9 18.9 21 17.6-20.4-17.4-53.5z"/><path class="st38" d="M596.1 277.7l-36.5-.5 18.9 21 17.6-20.5z"/><path class="st46" d="M549.5 155l-7.5 22.1 36.8 26.3-29.3-48.4z"/><path class="st48" d="M521.6 231.3l-3.3-59.1-31.8 72.8 23.4-6.6 11.7-7.1z"/><path class="st47" d="M486.5 245l25.1 55.2 6.1-4.3 13.6-6.1 9.4-10.2-19.1-48.3-35.1 13.7z"/><path class="st43" d="M540.7 279.5l6.9 9.7-21.3 18.8-8.7-12.3 23.1-16.2z"/><path class="st48" d="M634.9 231.3l5.2-62.8 29.9 76.4-23.4-6.6-11.7-7z"/><path class="st47" d="M670 245l-25.1 55.2-6.1-4.3-13.6-6.1-9.4-10.2 19.1-48.3L670 245z"/><path class="st43" d="M615.8 279.5l-6.9 9.7 21.3 18.8 8.7-12.3-23.1-16.2z"/><path class="st28" d="M630.1 308l10.6 10.1-2-22.3-8.6 12.2zm-103.8 0l-8.7 10.1.1-22.3 8.6 12.2z"/></g><g id="intj_kopia_3"><path class="st9" d="M23 552.9l117.8-30.5L256 555.2 139.5 596 23 552.9z"/><path class="st49" d="M206.2 422.2l-26.1 15.9-38.9 36.3 25.5 66.7 34.3-15.6 5.2-103.3zM117 540.9l24.1-66.5-27.1-18.9-35.5-9-.3 97.2 20.3 6.4 18.5-9.2z"/><path class="st50" d="M117 540.9l2.8 29.6-49-2.3 7.4-24.5 38.8-2.8z"/><path class="st51" d="M219.5 366.9l-16.7 38.7-17-11.5-.7-20 21.1-7 13.3-.2z"/><path class="st50" d="M189.4 318.5l30.1 48.4-34.4 7.3-6.5-9.4-12.9-30.4 23.7-15.9zm16.8 103.7l-57.2 7.1-70.4 17.2 62.6 27.9 65-52.2z"/><path class="st51" d="M201 525.5l22.7 25.5.1 5.7-57.6-2.6.4-13 34.4-15.6z"/><path class="st50" d="M78.2 422.4L74.4 385l-7.6-36.4-22.7 10.3L31.6 421l46.6 1.4z"/><path class="st51" d="M31.6 421l42.8-36 9.9 26.8-5.7 34.7-47-25.5z"/><path class="st52" d="M61.9 275l10.6-6.2 17.8 11.1-3.4 12.8-30.1 10.5 5.1-28.2z"/><path class="st49" d="M126.9 323.7l22.4-2 32.2 4.9 21.4 79-125.1 26.8-10.9-83.8 11.2-7.7 9.5-17.6 39.3.4z"/><path class="st51" d="M97.5 336.6l-30.7 11.9-22.7 10.3 4.7-22.2 38.7-13.4c0 .1 10 13.4 10 13.4zm101.9-2l-53.2-3.4 3.2-12.8 40 .1 10 16.1z"/><path class="st17" d="M130.8 375l9.2-11.8 4.4-19-56.8-20.9 43.2 51.7zm13.6-30.8l7.6 11.1 17.4 10.9-16.4-48.6-8.6 26.6z"/><path class="st50" d="M169.4 366.2l15.8 43.2-56.9 12.2 2.5-46.7 13.6-30.8 25 22.1z"/><path class="st41" d="M192.7 193.5l2.8 28.4-2.6 87.5-43.5 9-9.8 12.2 4.7 13.6-56.8-20.9-1-40.8-14.3-1.9L63 257l19.2-11 13.3 18.6 7.1-3 .9-25.4-13.4-30.8 34.2-24.4 39.4 10.4v-19.7l29 21.8z"/><path class="st43" d="M91.6 205.6l31.6 33.9 13.2 58.8 16.7 19.3-13.4 16.4 4.7 10.2-56.8-20.9-.9-40.1h7.2l2.2-17.1 7.4-3.7 1.3-26.3-13.2-30.5z"/><path class="st43" d="M162.4 251.9l26.7-17.9-24.9-6.5-41.2 13.8 26.2 7.3 10.5 28.9 2.7-25.6zm-28.6 34.5l31.9 15.1 25.4-19.1-25.2 4.5-32.1-.5z"/><path class="st53" d="M133.8 286.4l16.9-3.8 9-5 13-1 7.2 4.3 11.2 1.6-25.1 12.3-32.2-8.4z"/><path class="st44" d="M156.8 231.2l3 46.3 13-1-4.4-45.2-11.6-.1z"/><path class="st45" d="M143.2 253.8c-2 .3-4-2.1-4.4-5.4s.9-6 2.8-6.3c2-.3 4 2.1 4.4 5.4.4 3.2-.9 6-2.8 6.3zm37.1-3c-2 .2-3.8-2.3-4.1-5.5s1.1-6 3.1-6.2 3.8 2.3 4.1 5.5-1.1 6-3.1 6.2z"/><path class="st53" d="M123 241.3l41-7.6 25 .3-2.3-9-26.5-3.5-36.9 12.3-.3 7.5z"/><path class="st52" d="M172.7 276.4l-6.4 7.6-6.6-6.5 13-1.1z"/><path class="st42" d="M72.2 257.3l9.2-2.2 4.7 13-13.9-10.8zm80.8 60.3l-29.2 2.7 20.5 23.9 8.7-26.6zm-67.1-35.2l7.9.8-7 9.5-.9-10.3z"/><path class="st54" d="M191.6 193.5l4-13.5 12.3-14.1-12.2 55.3-4.1-27.7z"/><path class="st55" d="M91.6 205.6L67.1 199l-37.2-1.1 20.4 49 30.4-3.8 24-6.9-13.1-30.6z"/><path class="st17" d="M149 363.6l7.6 4.8-4.3 8.5-9-4.5 5.7-8.8zm5.9 27.4l-5 8 8.9 4.5 4-7.5-7.9-5z"/><path class="st51" d="M77.8 432.4l125.1-26.8 3.3 16.6-127.6 24.3-.8-14.1z"/><path class="st17" d="M171.1 412.4l-28.9 6 2.3 15.2 29.8-5.1-3.2-16.1zm-3 13.5l-19.2 3.4-1.1-7.8 18.8-3.5 1.5 7.9z"/><path class="st53" d="M191.6 193.5l-27-19.3-15.2-8.1-17.5-15.3 76 15.1-16.3 27.6zm-100 12.1l33.1-23.3-27.6-9.5-29-5.9-38.2 30.9c0 .1 61.7 7.8 61.7 7.8z"/><path class="st55" d="M131.8 150.8l-45.7-9.1-18 25.3 56.6 15.3 40 10.5-.1-18.6-32.8-23.4z"/><path class="st53" d="M104.7 236.2l-54.4 10.7 11.6 28 10.4 5.7-8.4-23.3 18.3-10.2 13.8 19 7.4-3.7 1.3-26.2z"/></g><g id="intp_kopia_2"><path class="st9" d="M1319 672.6l-122.5-41.8-109.9 36.6L1205 710l114-37.4z"/><path class="st52" d="M1146.2 647.3l-27.9 27.9 58.6-3 1.1-11.4-12.5-9-19.3-4.5z"/><path class="st55" d="M1204.8 602.2l18.8 70.6 19-1.9 13.8-12.1 8.9-79.7-35-1.6-25.5 24.7z"/><path class="st52" d="M1256.4 657.7l19.2 22-.1 4.1-50.5 1.7-1.4-12.8 32.8-15z"/><path class="st55" d="M1209 591.8l-31 72-14.4-9.1-17.5-7.4 2.8-72.3 60.1 16.8z"/><path class="st53" d="M1265.3 579.1l-60.5 23.1-55.9-27.2 84.3 1.3 32.1 2.8z"/><path class="st43" d="M1112.8 428.2l8.7-31.9-7.8-3.1-10.3 15.9 2.8 8.7 6.6 10.4z"/><path class="st49" d="M1123.4 446.3l5.3 14.9 13.3 16.9 10.7-4.7 5.5-28.2-2.1-30.7-32.7 31.8z"/><path class="st50" d="M1142.1 478.1l-29.3-49.9-12.6.9-14 10 21.3 55.2 34.6-16.2z"/><path class="st41" d="M1112.8 428.2l-26.6 10.9-13-17.5 13-12.5 14.4-5.9 12.2 25z"/><path class="st43" d="M1100.6 403.2l-23.6-18.4-13 14.7 9.1 22.1 27.5-18.4z"/><path class="st49" d="M1184.1 399.5l56.3-4.5 8.7 14.8 26.6 11-6.4 161.2h-76.8l-39.4-8.8 3.1-158.8 27.9-14.9z"/><path class="st52" d="M1234.9 406.6l-5.7 27.6-37.1 24.4-9.7-35.2 1.8-23.9 7.6.8 13.8 9.5 29.3-3.2z"/><path class="st55" d="M1240.4 395l8.7 14.8-10.6 13-16.2 9.9-16.8-22.9-18.1 14.5-4.4-11.3 1.1-13.5 8.6-9.3 47.7 4.8z"/><path class="st41" d="M1136.1 366.6l54 15.6 15.5 27.6 18.4-13.6 16.5-1.3-1.4-16 5.8-8.5 2.7-14.9 7.8 1.1 13.2-20.5-11.6-9.3-18.6 14.3-8.6-7 31.6-53.9-16.9-17.9-59.4-5.3-17-11.7-22.3 70.4-9.7 50.9z"/><path class="st43" d="M1161.6 282l18.2 19.1 2.5 32.3 19.2-30.5 20.8-9.4-22.9-5.6-7.7 1.7-7.6-5.1-7.3-6-15.2 3.5z"/><path class="st50" d="M1185.7 274.2l-24.1 7.7 22.5 2.4 1.6-10.1zm13.6 13.7l22.9 5.6-19.5-15.5-3.4 9.9z"/><path class="st44" d="M1184.1 284.4l-12 46.5 10.2 2.5 17-45.5-15.2-3.5z"/><path class="st45" d="M1169.9 297.8c-2.1-.3-4.2 2-4.7 5.3s.8 6.1 2.8 6.5 4.2-2 4.7-5.3-.7-6.2-2.8-6.5m32.4 7.7c-2.1-.3-4.2 2-4.7 5.3s.8 6.1 2.8 6.5 4.2-2 4.7-5.3-.7-6.2-2.8-6.5"/><path class="st42" d="M1172.1 330.9l3.1 8.1 7.1-5.6-10.2-2.5zm-13.8 17.1l37 5.2-3.1 4.8-33.5-4.3-.4-5.7zm100.5-12l-13.7 7.9 10.8 1 2.9-8.9zm-9.7 19.9l-10.6-1.7 6.3 16.3 4.3-14.6zm-113 10.7l66.7 12.9 15.3.5-12.5 29.7-16.7-25.5-52.8-17.6z"/><path class="st43" d="M1244.4 262.5l-22.1 31-19.5 86.2 11.3 2-8.6 28.3 34.9-14.8 4.4-24.5 4.3-14.6-10.6-1.7-.2-12.9-8.6-7 31.6-53.9-16.9-18.1z"/><path class="st37" d="M1155.3 235.8l12.7 9.7 16.2 14 7.5-24.3-1.8-24.3-34.6 24.9z"/><path class="st56" d="M1189.9 210.9l84.2 39.3-15.2 10.3-16.1 3.5-58.5-4.5 5.6-48.6z"/><path class="st39" d="M1242.7 263.9l16.2 16.4 12 .2 10-4.8-6.9-25.6-31.3 13.8z"/><path class="st37" d="M1258.9 280.3l-31.7 54.9 10.9 7.8 18.4-14.6 10.6 8.2-7.2 12.8 35.2-15.5-14.2-58.2-22 4.6z"/><path class="st42" d="M1238.5 354.2l6.3 16.3 4.3-14.6-10.6-1.7z"/><path class="st17" d="M1192 458.6l72.1-20.5-15-28.2-57.1 48.7z"/><path class="st17" d="M1192 458.6l.5 123.5-51.7-6.6 15.4-160.9 13.4-3.1 14.4-11.9 8 59z"/><path class="st57" d="M1184.1 399.5l-27.9 15 35.8 44-7.9-59z"/><path class="st58" d="M1203.4 482.7l7.4-7.4 7.4 7.4-7.4 7.4-7.4-7.4zM1203.4 519.4l7.4-7.4 7.4 7.4-7.4 7.4-7.4-7.4zM1203.4 556.1l7.4-7.4 7.4 7.4-7.4 7.4-7.4-7.4z"/><path class="st2" d="M1157.8 447.7l7.5-2.6 10.4 30.4-7.5 2.6-10.4-30.4z"/><path class="st59" d="M1158.3 473.4h27.7v6.7h-27.7v-6.7z"/><path class="st50" d="M1275.7 420.9l29.8 83.3-22.9-6.7-13.5-9.4 6.6-67.2z"/><path class="st51" d="M1305.5 504.2l-34.9 46.4-16.8-3.4-11-15 26.3-44 36.4 16z"/><path class="st43" d="M1242.7 532.1l-7.9 11.1 22.8 25.4 12.9-18.1-27.8-18.4z"/><path class="st28" d="M1257.7 568.6l11.6 13.5 1.2-31.5-12.8 18z"/></g><path class="st0" d="M0 670.4l142-25.6 74 19.7-143.1 57.9-72.9-52z"/><path class="st14" d="M26.3 591.5v85.3l47.6 22.3L86 655.5 83 607l-56.7-15.5z"/><path class="st11" d="M135.7 588.6L100.2 577l-32.4 33.9 6.1 88.3 122.6-37.8-4.7-89.7-56.1 16.9z"/><path class="st13" d="M26.3 591.5l78.6-33.6 86.9 13.7-124 39.3-41.5-19.4z"/><path class="st34" d="M41.5 598.3l88.7-36.3 25.3 3.8L57.8 606l-16.3-7.7z"/><path class="st32" d="M37.4 681.7l4.1-83.4 16.2 7.8-3 84.4-17.3-8.8zm100.2-2.1l-2.9-91 13.9-3.2 12.5 86.8-23.5 7.4z"/><path class="st34" d="M72 572l48.5 13.7 14.2 2.9 13.9-3.2-11.9-6.5-47.2-14.4L72 572z"/><path class="st6" d="M124.6 586.1l-2.8-4.2 26.7 6.1 7.3-9.6-12.8-27.2-29.7 24.4-9 1.8-37.7-21.6-3 29 16.4 8.7 20-10.5-3.6 7.5L74.5 622l24.3 4.6 7.3-31.9 10.9-2.9 17 33.7 26.7-16.3-36.1-23.1z"/><path class="st34" d="M109.2 567l8.5 6.4 34-3.5-12.7-27.3-29.8 24.4zm-9 1.8l-37.7-21.6-3 29 36.4-1.7 4.3-5.7z"/><path class="st35" d="M102 586.2l-9.7-4.1-21.8 31.4 24.3 4.6 7.2-31.9zm10.9-2.9l7.6-5.7 36.1 23.1-26.7 16.3-17-33.7z"/><path class="st35" d="M100.2 568.8l-4.3 5.7-3.6 7.6 9.7 4.1 10.9-2.9 7.6-5.7-2.8-4.2-8.5-6.4-9 1.8z"/><path class="st32" d="M59.5 576.3l16.4 8.7 20-10.5-36.4 1.8zm58.2-2.9l34-3.5-7.3 9.6-26.7-6.1zm-25.5 8.7l9.7 4.1 10.9-2.9 7.6-5.7-28.2 4.5z"/><g id="estp_kopia_2"><path class="st38" d="M532.5 489l33.8-20.3 3 34.4-2.5 5.1-19.2-7-15.1-12.2z"/><path class="st19" d="M566.8 508.1l-4.5-52.2 9.9-.6 9.5-3.3 2.8 16.3-3.4 45.5-14.3-5.7z"/><path class="st26" d="M601.1 456.6l-11.5-1.1-8-3.5-.6 61.8 15.1-6.5 5-50.7z"/><path class="st60" d="M581 485.2l-15.6 7.5-.7-7.5 4.5-2.2 11.8 2.2zm8 16l7.2 6.3.7-7.6-3.9-1.9-4 3.2zm12.1-44.6l-19.5-4.5-19.4 3.9 19.2 5.3 19.7-4.7z"/><path class="st39" d="M532.5 489l30.6-24.1 9.3 8.4-7.5 11.8-17.9 14.8-14.5-10.9z"/><path class="st61" d="M564.8 485.2l-1.8-20.3 18.7 8.4-.6 11.8h-16.3zm26.3-17.2h18.3l-12.5 31.8-5.8-31.8z"/><path class="st39" d="M591.1 468l5.8 31.8-7.9 1.3 2.1-33.1z"/><path class="st9" d="M548.3 770.3L421.2 730l-112.7 45.3L418 821.5l130.3-51.2z"/><path class="st62" d="M425.5 705.8l-2.9 13.5 37.2-11.9 12.9-48.5-22.4 16.2-19.6 22.2-5.2 8.5z"/><path class="st63" d="M453 730l-5.1 18.8-11.2 16-24 2.8-5.4-24.3L453 730z"/><path class="st64" d="M412.8 767.5l35.1-18.8 18.7 1.2 10.5 11.7-17.4 11.8-47 2 .1-7.9z"/><path class="st24" d="M477.1 761.6v7.4l-19.5 13-44.8-6.6v-7.9l43.2 3.3 21.1-9.2z"/><path class="st65" d="M430.7 697.3l-8.1 22-27.7 10.2-26.6 5.8-7.8-55.8 51.5 9.1 18.7 8.7z"/><path class="st24" d="M422.6 719.3l-54.4 16.1 1.8 16.1 23.4-.6 20.3-5.6 8.9-26z"/><path class="st62" d="M413.8 745.2l-1 30.2-16.9-2.6-23.9 4.5-2-25.9 43.8-6.2z"/><path class="st64" d="M390.5 767.5l12.5 4.3 9.9 3.6 1.2 9.3-23.7 6.6-24.7-6.6 3.1-6.7 21.7-10.5z"/><path class="st24" d="M414 784.8l.1 8-25.1 6.9-24.4-6.9 1-8 24.7 3.8 23.7-3.8z"/><path class="st63" d="M453 676.6l-22.3 20.7-13.8-3.3 8-28.4 8.4-17.9 11.9 13.5 7.8 15.4z"/><path class="st24" d="M433.3 647.8l19.7 28.9 19.7-17.7-2-32.4-20.1 8.8-17.3 12.4zm0 0L416.9 694l-56.5-14.4 2.9-14.3 6.5-36.9 63.5 19.4z"/><path class="st66" d="M471.4 606.4l-.7 20.1-37.3 21.2-3.3-46 18.6-.3 22.7 5zM430 601.8l-29.8 8.5-37.4 15.3 20.6 8.4 24 8.5 25.9 5.3-3.3-46z"/><path class="st24" d="M446.8 495.5l25.3.3 2 47-2.7 63.5-41.4-4.6-5.8-65.2 10-24 12.6-17z"/><path class="st24" d="M358.5 518.1l-21.3 7.5 7.7 41.9 14 37.2 4 20.8 67.2-23.8-5.8-65.2-33.1-11.3-32.7-7.1z"/><path class="st67" d="M395.9 504.4l-31.5-8-7.2-3.9-8.6-1.6 9.8 27.2 65.8 18.4-28.3-32.1z"/><path class="st63" d="M348.6 490.9l8.7-5.6 5.6 4.5 1.5 6.6-15.8-5.5zm81.8-22.9l19 10.4-2.6 17.1-22.5 41.1 1.2-41.8 4.9-26.8zm-71.6 136.8l-21.7-79.1-27.9 10.8 21.9 33.1 27.7 35.2z"/><path class="st62" d="M309.3 536.5l-12.5 104.4 23.4-10 19.3-14.8 19.4-11.3-49.6-68.3z"/><path class="st67" d="M339.5 616l44 17.9-3.2 17.6-6.7 17.5-76.8-28.2 42.7-24.8z"/><path class="st38" d="M383.4 634l24 8.5-23 30-10.9-3.4 9.9-35.1z"/><path class="st63" d="M472 495.8l1.8 53.5 29.1-53.8-30.9.3z"/><path class="st62" d="M502.9 495.5l22.8 22.6-2.5 18.4-10.5 22.7-38.9-9.9 29.1-53.8z"/><path class="st67" d="M532.5 489l34.3 19.2-23.5 58.8-30.6-7.7 19.8-70.3z"/><path class="st33" d="M363.6 572.5l45.3-14.6 2 6.2-45.3 14.6-2-6.2z"/><path class="st67" d="M424.3 536.6l2.9 66.1 6.2 45.1-.3-45.6-8.8-65.6z"/><path class="st65" d="M384.4 672.5L373.6 683l-13.1-3.4 2.9-14.3 10.2 3.8 10.8 3.4z"/><path class="st62" d="M373.6 683l-10.4 9.9-2.7-13.2 13.1 3.3z"/><path class="st41" d="M351.5 372.1l66.7-7 20.5-10 22.4 103.5-30.8 9.5-4.2 13.4 2 14.2-34.6 10-29.2-9.2-43.5-67.8-10.5-16.2 41.2-40.4z"/><path class="st43" d="M359.1 371.3l31.6 108.3 39.7-11.6-3.6 13.9 1.5 13.7-3.9 41-30.7-31-29.2-9.2-29.4-45.8 17.5-13.1-14.9-21.1-16.8 12.1-10.5-16.2 32.1-31.4 9-8.8 7.6-.8zm63.5 52.5l-19.3-27.6-24.5-8 28.1-8.6 7.2 8.8 8.5 35.4zm2-37.9l5-8.9 12.8-5.1-11.8 38.6-6-24.6z"/><path class="st42" d="M352.5 437.5L335 450.6l8.9 13.8 8.6-26.9zm65.2-33.9l-32 26.7-13.2-12.7-5.6-.2-2.6-3.8 14.3-1.5 39.1-8.5zm10.7-2l22 7.2-.9-4.3-4.3-7.7-16.8 4.8z"/><path class="st62" d="M342.5 380.9l39.3 58.5-18.4 13.5-25.7-36.5-16.8 12.1-10.5-16.2 16.9-20.5 15.2-10.9z"/><path class="st44" d="M424.6 385.9l-10.5 2.5 8.6 35.4 10.5-2.5-8.6-35.4z"/><path class="st38" d="M375 397.8l-52.7 12.7-1.4 18.1 16.8-12.1 41.1-4.3-.5-8-3.3-6.4zm49.6-11.9l-10.5 2.5-.5 4.5 2.8 4.7 10.5-2.6 1.1-3.8-3.4-5.3z"/><path class="st37" d="M457.4 378l6.8 28.4-35.8-4.9-3.8-15.7 32.8-7.8zm-39.7 25.6l-35.2 22.8-7.6-28.6 39.1-9.4 3.7 15.2z"/><path class="st42" d="M342.3 434.6l-5.6-8.1-6.4 4.5 12 3.6z"/><path class="st62" d="M378.7 388.3l19.5-13.2 8.6 4.6-28.1 8.6zm50.8-11.3l10.8-11.9 8.1 4.3-18.9 7.6z"/><path class="st42" d="M449.8 426.9l-59.2 14.3 27.1 16.9 17.3-5 14.8-26.2z"/><path class="st25" d="M443 432.4l-41.6 10 7.8 5.1 29.6-8.9 4.2-6.2z"/><path class="st42" d="M433.1 421.3l-4.5 7.5-6-4.9 10.5-2.6z"/><path class="st62" d="M351.5 372.1l13.4-15.7 25.5-21.1 27.8-11.4 2.3 21-2.3 20.1-66.7 7.1z"/><path class="st67" d="M418.2 324l46.8-18.4-26.2 49.4-20.5 10v-41z"/><path class="st66" d="M390.4 335.4l-25.9-14.6-41.6 18.1-26.8 17 14.3 56.5 32.1-31.4 9-8.8 38.9-36.8z"/><path class="st24" d="M364.4 320.8l-42.4-6.5-15.6 21.4-10.3 20.2 68.3-35.1z"/><path class="st66" d="M322 314.3l-14.3-9-20-7-5.9 50 23.3-16.7 16.9-17.3z"/><path class="st64" d="M322 314.3l-40.3 34 14.3 7.6 26-41.6z"/><path class="st63" d="M367 417.4l-27.4 1.6-1.9-2.6 26.8-2.7 2.5 3.7z"/><path class="st24" d="M322 314.3l-34.3-16 32.4-.5 1.9 16.5z"/><path class="st42" d="M430.4 468l-51.9 15.1 49.7 12.4 2.2-27.5z"/><path class="st66" d="M459.8 707.4l-37.2 11.9-8.8 25.9L453 730l6.8-22.6z"/><path class="st42" d="M438.9 438.6l-5.4 10.6-15.7 3.6-8.5-5.4 29.6-8.8z"/></g><g id="esfj_kopia_2"><path class="st9" d="M679.8 639.6l141.3-37.8 112.1 37.9-134.7 54.1-118.7-54.2z"/><path class="st68" d="M834.9 650.4V638l47.6-19.5 17.6 31.5-65.2.4z"/><path class="st26" d="M803.4 563.6l24.1-26.6 50.1-26.6 4.9 108.2-47.6 19.4-31.5-74.4z"/><path class="st68" d="M775.6 649.2l-64.7-.3-.5-5.6 18.6-29.4 21.7 8.4 26.7 11.1-1.8 15.8z"/><path class="st60" d="M803.4 563.6l-25.9 69.8-48.4-19.5-11.3-107.1 48.2 22.8 37.4 34z"/><path class="st69" d="M877.6 510.3l-74.2 53.2-85.6-56.8 159.8 3.6z"/><path class="st70" d="M877.6 357.8l37 40.7 10.6 24.8 3.7 37.7-52-12.8-4.2-43.4 4.9-47z"/><path class="st71" d="M914.6 398.5l31.6-27.7 21.3 15.8-38.6 74.4-14.3-62.5z"/><path class="st70" d="M804.2 388.9l-62.1-27.6-17.7 2.7-6.7 142.7 80.5 3.6 6-121.4z"/><path class="st72" d="M798.4 394.5l27.7-39.2h36.3l15.2 2.5v152.6h-79.4l.2-115.9zM724.5 364l-53.6 108.5 69-39.7-15.4-68.8z"/><path class="st71" d="M739.9 432.8l40.4 21.8 2.8 14.3-4.5 16.4L671 472.5l68.9-39.7z"/><path class="st43" d="M780.3 454.6l11-6.5 4.2 7.5-15.2-1z"/><path class="st19" d="M825.3 455.6l2.2-21.3h-10.1l-9.8-2.7-17.3 7.4 2.9 15.7 32.1.9z"/><path class="st26" d="M788.2 437.4l11.6-1.8 7.8-4 2.1 24.1-16.5-1-5-17.3z"/><path class="st41" d="M780.3 454.6l-1.8 30.7 33.9 4.9v-17.8l-2.9-17.8h-29.2z"/><path class="st42" d="M809.5 454.6l15.8 1-1.3 21.9-11.6 12.7-2.9-35.6z"/><path class="st60" d="M788.2 437.4l19.4-5.8 19.9 2.7-19.1 6.5-20.2-3.4z"/><path class="st43" d="M979.8 335.2l-30.6 1.4-3 34.1 8.3 7.1 24.4-11.2.9-31.4z"/><path class="st42" d="M961.2 350.1l-6.7 27.8 13 8.7 11.4-5.2-17.7-31.3z"/><path class="st19" d="M993.4 375.6l-.6-4.8 1.2-2 4-46-10.1-.6-9.6-3.3-2.8 16.5 3.4 46.1 14.5-5.9z"/><path class="st26" d="M958.6 323.3l11.7-1.1 8-3.5.6 62.7-15.3-6.6-1.8-18.3.5-3.6-1.1-2.9-2.6-26.7z"/><path class="st60" d="M984.3 363.6l9.1 12 .5-6.9-9.6-5.1zm-5.8-16.6l-16.7 9.5-.6-6.5 17.3-3zm-19.9-23.7l19.7-4.6 19.7 3.9-19.5 5.3-19.9-4.6z"/><path class="st41" d="M949.2 336.6l10.2-5 19.1 6.2v9.2l-17.3 3-5.3-6-6.7-7.4zm55.7 0l-22-2.6 2.7 28.4 8.3 6.2 11-32z"/><path class="st43" d="M982.9 334l11 34.7-9.6-5.1-1.4-29.6z"/><path class="st41" d="M760.3 222.6l45.1 6.3 30.7-21.4 26.4 147.8-32.5 6-34.2 29.8-15.1-13.3-36.1-17.5-17.3-38.3-9.4-23.6 20.2-14.3 17.7 24.8 10.1-9-41.2-54 35.6-23.3z"/><path class="st43" d="M760.3 222.6l30 146.9-11.8 13.4-36.4-21.6-14-37 20.7-11 6.8-4.2 6-8-35-56.5 33.7-22z"/><path class="st42" d="M739.9 310.5l-4.7-12.6-12.1 4.8 16.8 7.8zm-11.8 13.8l16.8-9-8 32.2-8.8-23.2zm98-28.1l-6.4 8.2-8.3-5.4 14.7-2.8z"/><path class="st43" d="M785.1 267.4l12.5 2.3 13.8 29.3-8.3-41.4-18 9.8zm32.7-12.5l5.7 28.5 5.1-22.8 8.9-6.2-19.7.5z"/><path class="st37" d="M816.7 249.4l19.6-1.4 1.2 6.4-19.7.6-1.1-5.6zm-14.8 2.6l-19.1 9.4 2.3 6 18-9.8-1.2-5.6z"/><path class="st45" d="M828.6 260.5c-2.1.4-3.1 3.1-2.4 6.1s3 5 5 4.6 3.1-3.1 2.4-6.1-2.9-5-5-4.6m-34.2 8c-2.1.4-3.1 3.1-2.4 6.1s3 5 5 4.6 3.1-3.1 2.4-6.1-3-5-5-4.6"/><path class="st42" d="M788 318.4l59.2-11.4-22.6 20.5-36.6-9.1z"/><path class="st25" d="M804 318.9l31.8-6.3-12.2 12.1-19.6-5.8z"/><path class="st37" d="M768.1 188.8l-39 26.1 17 8.9 14.3-1.3 46.7 10.1-15.5-23.3-23.5-20.5z"/><path class="st39" d="M729.1 214.9l-33.2 24.3 21.3 6.2 12.5.1 30.7-22.9-31.3-7.7z"/><path class="st45" d="M695.9 239.2l21.8 59.3 21-9.7 10 24.4 17.2-9-36.3-58.8-33.7-6.2z"/><path class="st61" d="M807 232.6l-38.9-43.9 68 18.7-29.1 25.2z"/><path class="st28" d="M717.8 506.7l2.6 24.6 76.7-41.1-78-12-1.3 28.5z"/><path class="st44" d="M817.8 254.9l-14.8 2.7 8.3 41.4 14.7-2.8-8.2-41.3z"/><path class="st42" d="M782.2 371.1l-3.7 11.8 19.9 11.6 31.6-33.2-47.8 9.8z"/><path class="st71" d="M798.4 394.5l-43.1 9.7-13.1-42.8 56.2 33.1z"/><path class="st70" d="M829.9 361.3l7.8 37.8-39.3-4.7 31.5-33.1z"/></g><g id="infj_kopia_2"><path class="st9" d="M735.9 793.4l211.6 48.7 123.8-40.8-175.2-60.4-160.2 52.5z"/><path class="st41" d="M786.6 737.5l-27.2 8.4 23.6 8.5 3.6-16.9z"/><path class="st47" d="M759.5 745.9l-5.4-1.3-3.6 4.1 26.3 20.1 8-14.4-25.3-8.5z"/><path class="st41" d="M776.8 768.8l-15.2 17.3 39.9-9.1-24.7-8.2z"/><path class="st47" d="M761.6 786.1l-4.8 1.7-4 5.1 60.3.3-.7-12.6-4.2-8.2-46.6 13.7z"/><path class="st40" d="M796.2 775.2l17 18-.7-12.5-16.3-5.5zm68.5-103.4l-45.3-5.3 9.2 41.2 65.6-18.2-29.5-17.7z"/><path class="st47" d="M883.3 623.1l-18.6 48.7 41.8-24.3-23.2-24.4z"/><path class="st48" d="M892.4 651.7l-27.7 20.1 29.5 27.8 20-.4-5.8-27.4-16-20.1z"/><path class="st36" d="M864.7 671.8l49.5 27.4 7.4 9.1 2.1 11.5-34.3-7.8-24.7-40.2z"/><path class="st46" d="M889.4 711.9l19 30.7 21.2 20.4 3.7-22.2v-15.5l-9.7-5.7-34.2-7.7z"/><path class="st36" d="M889.4 711.9l40.3 51.1-3.6 24.9-51.5 13.3 2.8-48.5 12-40.8z"/><path class="st47" d="M889.4 711.9L804 682.3l30.2 63 40.3 56 14.9-89.4z"/><path class="st48" d="M804 682.3l-27.2 86.5 97.7 32.5-70.5-119z"/><path class="st42" d="M880.1 613.2l4 12.5 8.3 25.9 13.4-18.2 2.7-15.5-14.9-7.3-13.5 2.6z"/><path class="st41" d="M836.2 519.6l-3.3 85.7 75.5 12.8 21.2-50.1-18.1-46.4-34.9-3.5-40.4 1.5zm55.7-17.6l-5.4-7.9-14.5-5.3-12.2 3.4-8.3 10.1 20.9 2.3 19.5-2.6z"/><path class="st43" d="M875.6 530.5l-4 6-1.3 34.5 13.6-27.6 12.2-2.5-20.5-10.4zm-13.6 5.7l-16.6-8 14.8 27.4 1.8-19.4zm49.6-14.6l-3.2 96.4 16.4-27.1 4.8-23-5.6-25.8-12.4-20.5z"/><path class="st47" d="M982.3 501.4l-49.1-2.9-40.5 3.5-20.8.1-20 .1-7.2-1.2-7.1 1.3-1.3 17.2 75.4 2 18.9 4.5 20.4-3.5 17.3 4.8 18.8-3.9-4.8-22z"/><path class="st36" d="M876 511.3l-8.6-9.2-9.3 8.8 8.9 9.4 9-9z"/><path class="st23" d="M982.3 501.4L971.4 456l-94.8 13.3-6.6 10.2 2 9.4 19.9 13.2 90.4-.7z"/><path class="st30" d="M876.6 469.2l-35.8 5.3-3.3 27.8 13.9-.1 20.5-13.5 4.7-19.5z"/><path class="st29" d="M896.2 540.8l-8-9-12.6-1.3 20.6 10.3zm-34.2-4.6l-6.6-7.3-9.9-.7 16.5 8z"/><path class="st45" d="M881.1 552.7c-2.1 0-3.8-2.5-3.8-5.6s1.7-5.6 3.8-5.6 3.8 2.5 3.8 5.6-1.7 5.6-3.8 5.6zm-28.3-2c-2.1 0-3.8-2.5-3.8-5.6s1.7-5.6 3.8-5.6 3.8 2.5 3.8 5.6-1.7 5.6-3.8 5.6z"/><path class="st44" d="M862 536.2l9.6.3-1.3 34.5-11.3-1 3-33.8z"/><path class="st42" d="M870.3 570.9l-6 6.6-5.3-7.6 11.3 1z"/><path class="st47" d="M874.5 592.7l-10.9 6.3-8.6-7.6 19.5 1.3z"/><path class="st36" d="M889.4 585.1l-14.9 7.6-19.5-1.3-7.6-8 8.3 3.3 8.6-3.3 13.6 4.6 11.5-2.9z"/><path class="st30" d="M911.6 521.6l18.1 46.4 16.4-22.8 4.8-22.6-39.3-1z"/><path class="st23" d="M950.8 522.6l36.2 1 16.1 62.5 7.8 16.8-.2 12.7-39.5-17.7-41.5-29.9 21.1-45.4z"/><path class="st30" d="M929.6 568l-15.5 36.5 17.3 32.1 19.3 17 10.7 21.3 15.9 14.3 21.5-35.7 11.8-37.9-81-47.6z"/><path class="st23" d="M1010.7 615.5l21.3 8.3 32.8 22.6-34.9 17.1-29.3 19.7-23.2 5.9 33.3-73.6zm-96.5-11.1l-5.8 13.6-16.1 33.7 30.5 6.6 28-4.8-36.6-49.1z"/><path class="st29" d="M950.8 653.5l-9.8 39.2 6.6 32.6 26.8-21.8 3-14.4-26.6-35.6z"/><path class="st30" d="M947.6 725.3l52.9-24 29.4-37.8-52.4 25.6-29.9 36.2z"/><path class="st22" d="M1064.7 646.4l-61.6-60.4 7.6 29.5 54 30.9z"/><path class="st47" d="M892.4 651.7l41 89.2 26.4-21.1-9-66.3-58.4-1.8z"/><path class="st48" d="M959.8 719.8l-26.4 21.1 7.6 65.4 46-13.4-27.2-73.1z"/><path class="st41" d="M987 792.9l6.4 10.6-33.2 7.9-19.2-5.1 46-13.4z"/><path class="st43" d="M993.4 803.5l20.7 16.3-27.6 1.9-26.4-10.2 33.3-8zm-33.2 7.9l-12.6 8.4h-8.9l2.3-13.5 19.2 5.1zM827.8 690.6l-6.3 21.4-5.6-2.8-4.4-14.1 5.6-4.4 10.7-.1zm-39.1-15l-8.2 17.1 2.2 19.2 15.8-12.4-2-12.7-7.8-11.2z"/><path class="st41" d="M819.4 666.5l-30.7 9.2 9.8 23.9 29.3-9-8.4-24.1z"/></g><path class="st9" d="M1056.8 925.8l65-23 67.8 31.6-78.9 13.8-53.9-22.4z"/><path class="st10" d="M1108.7 848.3h24.3v81.6h-24.3v-81.6z"/><path class="st6" d="M1108.7 900.1l24.1 16.5v-68.3h-24.1v51.8z"/><path class="st11" d="M1034.5 866.7l91.8 29.3 35.1-37 45.4 9.2-45.2-97.9-85.3-.6-41.8 97z"/><path class="st12" d="M1126.3 895.9l80.6-27.8-40.8-87.8-40.8-.6 1 116.2z"/><path class="st6" d="M1179.9 809.9l-8.2-17.4-106.3-2.1-5.9 11 66.1 39 54.3-30.5z"/><path class="st13" d="M1032.5 795.4l76.2 29 34.2-39.3 66.2 15.4-55.2-81.6-74.6-2.7-46.8 79.2z"/><path class="st11" d="M1108.7 824.4l100.3-23.9-44.8-66.5-41.4 3.5-14.1 86.9z"/><path class="st6" d="M1115.3 780.6l.6.3 53.3-39.3-5-7.7h-.1l-3.3-5-85-6.8-9.1 15.4 48.6 42.9v.2z"/><path class="st11" d="M1083.3 664.1l-36.7 67.1 58 17.7 44.5-30.4 46.7 20.1-50.2-70.1-62.3-4.4z"/><path class="st14" d="M1104.6 748.9l91.2-10.3-38.9-54.4-33.5 2.7-18.8 62z"/><path class="st6" d="M1113.1 721.5l.6.3 46.7-32.5-7.2-4.7h-.1l-5.9-3.8-70.2-5.6-5.9 11.2 42.1 35-.1.1z"/><path class="st13" d="M1093.1 633.6l-39.8 48.2 57.4 17.8 30.4-26 35.1 8.6-37.6-52.6-45.5 4z"/><path class="st11" d="M1110.6 699.6l65.5-17.4-29.2-40.5-9.1.9-15 .6-12.2 56.4z"/><path class="st6" d="M1152.6 649.6l-5.7-8h-.1l-4.7-6.5-22.3-3.8-26.9 2.4-6 7.4 31.4 26 34.3-17.5z"/><path class="st15" d="M1123.1 578.1l-47.3 55.9 47 22.5 20.7-27.5 18.2 9.2-38.6-60.1z"/><path class="st11" d="M1122.8 656.4l38.9-18.3-38.6-60-.3 78.3z"/><path class="st16" d="M1183.5 790.6l-3.3 3.3 3.5 4.1 3.7-3.2-3.9-4.2z"/><path class="st17" d="M1182.5 790.1l-3.3 3.3 3.5 4.1 3.7-3.2-3.9-4.2z"/><path class="st16" d="M1126.2 806.9l-3.3 3.3 3.5 4 3.7-3.2-3.9-4.1z"/><path class="st17" d="M1125.2 806.4l-3.3 3.3 3.5 4 3.7-3.2-3.9-4.1z"/><path class="st16" d="M1147.1 776.6l-3.3 3.3 3.5 4 3.7-3.2-3.9-4.1z"/><path class="st17" d="M1146.1 776.1l-3.3 3.3 3.5 4 3.7-3.2-3.9-4.1z"/><path class="st16" d="M1130 760.3l-3.3 3.3 3.5 4 3.7-3.2-3.9-4.1z"/><path class="st17" d="M1129 759.8l-3.3 3.3 3.5 4.1 3.7-3.2-3.9-4.2z"/><path class="st16" d="M1148.7 748.2l-3.3 3.3 3.5 4 3.7-3.2-3.9-4.1z"/><path class="st17" d="M1147.7 747.7l-3.3 3.3 3.5 4 3.7-3.2-3.9-4.1z"/><path class="st16" d="M1181.7 770.8l-3.3 3.3 3.5 4.1 3.7-3.2-3.9-4.2z"/><path class="st17" d="M1180.7 770.3l-3.3 3.3 3.5 4.1 3.7-3.2-3.9-4.2z"/><path class="st16" d="M1159.9 790.1l-3.3 3.3 3.5 4 3.7-3.2-3.9-4.1z"/><path class="st18" d="M1158.9 789.6l-3.3 3.3 3.5 4 3.7-3.2-3.9-4.1z"/><path class="st16" d="M1202.1 794.8l-3.3 3.3 3.5 4 3.7-3.2-3.9-4.1z"/><path class="st18" d="M1201 794.3l-3.3 3.3 3.5 4.1 3.7-3.2-3.9-4.2z"/><path class="st16" d="M1073.9 848l-3.3 3.3 3.5 4 3.7-3.2-3.9-4.1z"/><path class="st18" d="M1072.9 847.5l-3.3 3.3 3.5 4 3.7-3.2-3.9-4.1z"/><path class="st16" d="M1168.7 762.8l-3.3 3.3 3.5 4 3.7-3.2-3.9-4.1z"/><path class="st18" d="M1167.7 762.3l-3.3 3.3 3.5 4.1 3.6-3.2-3.8-4.2z"/><path class="st16" d="M1120.8 772.9l-3.3 3.3 3.5 4.1 3.7-3.2-3.9-4.2z"/><path class="st18" d="M1119.8 772.4l-3.3 3.3 3.5 4 3.7-3.2-3.9-4.1zm19 15.3l-3.3 3.3 3.5 4.1 3.7-3.2-3.9-4.2z"/><path class="st16" d="M1069.9 862.3l-3.3 3.3 3.5 4.1 3.7-3.2-3.9-4.2z"/><path class="st18" d="M1068.9 861.8l-3.3 3.3 3.5 4 3.7-3.2-3.9-4.1z"/><path class="st16" d="M1065.9 813.4l-3.3 3.3 3.5 4 3.7-3.2-3.9-4.1z"/><path class="st18" d="M1064.8 812.9l-3.3 3.3 3.5 4.1 3.7-3.2-3.9-4.2z"/><path class="st16" d="M1145.8 869.6l-3.3 3.3 3.5 4 3.7-3.2-3.9-4.1z"/><path class="st18" d="M1144.7 869.1l-3.3 3.3 3.5 4 3.7-3.2-3.9-4.1z"/><path class="st16" d="M1124.2 860.2l-3.3 3.3 3.5 4 3.6-3.2-3.8-4.1z"/><path class="st18" d="M1123.2 859.7l-3.3 3.3 3.5 4.1 3.6-3.2-3.8-4.2z"/><path class="st16" d="M1180.5 850.8l-3.3 3.3 3.5 4 3.7-3.2-3.9-4.1z"/><path class="st18" d="M1179.5 850.3l-3.3 3.3 3.5 4.1 3.6-3.2-3.8-4.2z"/><path class="st16" d="M1105 834.5l-3.3 3.3 3.5 4.1 3.7-3.2-3.9-4.2z"/><path class="st18" d="M1104 834l-3.3 3.3 3.5 4.1 3.7-3.2-3.9-4.2z"/><path class="st16" d="M1165.7 816.9l-3.3 3.3 3.5 4.1 3.7-3.2-3.9-4.2z"/><path class="st18" d="M1164.6 816.4l-3.3 3.3 3.5 4 3.7-3.2-3.9-4.1z"/><path class="st16" d="M1094.9 805.4l-3.3 3.3 3.5 4 3.6-3.2-3.8-4.1z"/><path class="st18" d="M1093.8 804.9l-3.3 3.3 3.5 4 3.7-3.2-3.9-4.1z"/><path class="st16" d="M1108.7 782.3l-2.6 3.6 4.2 3.7 3-3.5-4.6-3.8z"/><path class="st18" d="M1107.6 781.9l-2.6 3.6 4.2 3.7 3-3.5-4.6-3.8z"/><path class="st16" d="M1064.9 785.9l-2.6 3.6 4.2 3.7 3-3.5-4.6-3.8z"/><path class="st18" d="M1063.7 785.4l-2.6 3.6 4.2 3.7 3-3.5-4.6-3.8z"/><path class="st16" d="M1109.4 754.8l-2.6 3.6 4.2 3.7 3-3.5-4.6-3.8z"/><path class="st18" d="M1108.3 754.4l-2.6 3.6 4.2 3.7 3-3.5-4.6-3.8z"/><path class="st16" d="M1132.6 730.8l-2.6 3.6 4.2 3.7 3-3.5-4.6-3.8z"/><path class="st18" d="M1131.5 730.4l-2.6 3.6 4.2 3.7 3-3.5-4.6-3.8z"/><path class="st16" d="M1082.7 698.8l-2.6 3.6 4.2 3.7 3-3.5-4.6-3.8z"/><path class="st18" d="M1081.6 698.4l-2.6 3.6 4.2 3.7 3-3.5-4.6-3.8z"/><path class="st16" d="M1073.2 727.7l-3.5 3.2 3.2 4.2 3.9-3.1-3.6-4.3z"/><path class="st18" d="M1072.2 727.2l-3.5 3.2 3.2 4.2 3.8-3.1-3.5-4.3z"/><path class="st16" d="M1171.2 725.1l-3.1 3.4 3.7 4 3.5-3.3-4.1-4.1z"/><path class="st18" d="M1170.2 724.7l-3.1 3.4 3.7 4 3.5-3.3-4.1-4.1z"/><path class="st16" d="M1156.4 676.2l-3.1 3.4 3.7 4 3.5-3.3-4.1-4.1z"/><path class="st18" d="M1155.3 675.7l-3.1 3.4 3.7 4 3.5-3.3-4.1-4.1z"/><path class="st16" d="M1085.9 678.8l-3.1 3.4 3.7 4 3.5-3.3-4.1-4.1z"/><path class="st18" d="M1084.9 678.3l-3.1 3.4 3.7 4 3.5-3.3-4.1-4.1z"/><path class="st16" d="M1085.9 652.7l-3.1 3.4 3.7 4 3.5-3.3-4.1-4.1z"/><path class="st18" d="M1084.9 652.2l-3.1 3.4 3.7 4 3.5-3.3-4.1-4.1z"/><path class="st16" d="M1135.5 659l-3.1 3.4 3.7 4 3.5-3.3-4.1-4.1z"/><path class="st18" d="M1134.4 658.6l-3.1 3.4 3.7 4 3.5-3.3-4.1-4.1z"/><path class="st16" d="M1137.8 619.1l-3.1 3.4 3.7 4 3.5-3.3-4.1-4.1z"/><path class="st18" d="M1136.8 618.6l-3.1 3.4 3.7 4 3.5-3.3-4.1-4.1z"/><path class="st16" d="M1124 587.8l-3.1 3.4 3.7 4 3.5-3.3-4.1-4.1z"/><path class="st18" d="M1123 587.3l-3.1 3.4 3.7 4 3.5-3.3-4.1-4.1z"/><path class="st16" d="M1095.7 620l-3.1 3.4 3.7 4 3.5-3.3-4.1-4.1z"/><path class="st19" d="M1094.7 619.5l-3.1 3.4 3.7 4 3.5-3.3-4.1-4.1z"/><path class="st16" d="M1115.2 597.2l-3.1 3.4 3.7 4 3.5-3.3-4.1-4.1z"/><path class="st19" d="M1114.2 596.7l-3.1 3.4 3.7 4 3.5-3.3-4.1-4.1z"/><path class="st16" d="M1135.1 641.4l-3.1 3.4 3.7 4 3.5-3.3-4.1-4.1z"/><path class="st19" d="M1134.1 640.9l-3.1 3.4 3.7 4 3.5-3.3-4.1-4.1z"/><path class="st16" d="M1101.4 653.6l-3.1 3.4 3.7 4 3.5-3.3-4.1-4.1z"/><path class="st19" d="M1100.4 653.2l-3.1 3.4 3.7 4 3.5-3.3-4.1-4.1z"/><path class="st16" d="M1083.9 666.1l-3.1 3.4 3.7 4 3.5-3.3-4.1-4.1z"/><path class="st19" d="M1082.9 665.6l-3.1 3.4 3.7 4 3.5-3.3-4.1-4.1z"/><path class="st16" d="M1104.1 678.1l-3.1 3.4 3.7 4 3.5-3.3-4.1-4.1z"/><path class="st19" d="M1103.1 677.6l-3.1 3.4 3.7 4 3.5-3.3-4.1-4.1z"/><path class="st16" d="M1131.8 685.3l-3.1 3.4 3.7 4 3.5-3.3-4.1-4.1z"/><path class="st19" d="M1130.8 684.8l-3.1 3.4 3.7 4 3.5-3.3-4.1-4.1z"/><path class="st16" d="M1154.7 700.7l-3.1 3.4 3.7 4 3.5-3.3-4.1-4.1z"/><path class="st19" d="M1153.7 700.2l-3.1 3.4 3.7 4 3.5-3.3-4.1-4.1z"/><path class="st16" d="M1132.5 718.2l-3.1 3.4 3.7 4 3.5-3.3-4.1-4.1z"/><path class="st19" d="M1131.5 717.8l-3.1 3.4 3.7 4 3.5-3.3-4.1-4.1z"/><path class="st16" d="M1186.8 730.9l-3.1 3.4 3.7 4 3.5-3.3-4.1-4.1z"/><path class="st19" d="M1185.7 730.5l-3.1 3.4 3.7 4 3.5-3.3-4.1-4.1z"/><path class="st16" d="M1103.2 723.9l-3.1 3.4 3.7 4 3.5-3.3-4.1-4.1z"/><path class="st19" d="M1102.1 723.4l-3.1 3.4 3.7 4 3.5-3.3-4.1-4.1z"/><path class="st16" d="M1078.9 718.2l-3.1 3.4 3.7 4 3.5-3.3-4.1-4.1z"/><path class="st19" d="M1077.9 717.8l-3.1 3.4 3.7 4 3.5-3.3-4.1-4.1z"/><path class="st16" d="M1097.4 698l-3.1 3.4 3.7 4 3.5-3.3-4.1-4.1z"/><path class="st19" d="M1096.4 697.5l-3.1 3.4 3.7 4 3.5-3.3-4.1-4.1z"/><path class="st16" d="M1083.6 748.3l-3.1 3.4 3.7 4 3.5-3.3-4.1-4.1z"/><path class="st19" d="M1082.6 747.9l-3.1 3.4 3.7 4 3.5-3.3-4.1-4.1z"/><path class="st16" d="M1058.3 770.9l-3.1 3.4 3.7 4 3.5-3.3-4.1-4.1z"/><path class="st19" d="M1057.3 770.4l-3.1 3.4 3.7 4 3.5-3.3-4.1-4.1z"/><path class="st16" d="M1093.4 778.5l-3.1 3.4 3.7 4 3.5-3.3-4.1-4.1z"/><path class="st19" d="M1092.4 778l-3.1 3.4 3.7 4 3.5-3.3-4.1-4.1z"/><path class="st16" d="M1072.5 796.3l-3.1 3.4 3.7 4 3.5-3.3-4.1-4.1z"/><path class="st19" d="M1071.5 795.9l-3.1 3.4 3.7 4 3.5-3.3-4.1-4.1z"/><path class="st16" d="M1103.2 794l-3.1 3.4 3.7 4 3.5-3.3-4.1-4.1z"/><path class="st19" d="M1102.1 793.5l-3.1 3.4 3.7 4 3.5-3.3-4.1-4.1z"/><path class="st16" d="M1124.7 792.6l-3.1 3.4 3.7 4 3.5-3.3-4.1-4.1z"/><path class="st19" d="M1123.7 792.1l-3.1 3.4 3.7 4 3.5-3.3-4.1-4.1z"/><path class="st16" d="M1153.4 762.7l-3.1 3.4 3.7 4 3.5-3.3-4.1-4.1z"/><path class="st19" d="M1152.4 762.2l-3.1 3.4 3.7 4 3.5-3.3-4.1-4.1z"/><path class="st16" d="M1169.2 781l-3.1 3.4 3.7 4 3.5-3.3-4.1-4.1z"/><path class="st19" d="M1168.2 780.6l-3.1 3.4 3.7 4 3.5-3.3-4.1-4.1z"/><path class="st16" d="M1144.3 803.2l-3.1 3.4 3.7 4 3.5-3.3-4.1-4.1z"/><path class="st19" d="M1143.3 802.7l-3.1 3.4 3.7 4 3.5-3.3-4.1-4.1z"/><path class="st16" d="M1168.9 749.3l-3.1 3.4 3.7 4 3.5-3.3-4.1-4.1z"/><path class="st19" d="M1167.9 748.8l-3.1 3.4 3.7 4 3.5-3.3-4.1-4.1z"/><path class="st16" d="M1093.4 826.7l-3.1 3.4 3.7 4 3.5-3.3-4.1-4.1z"/><path class="st19" d="M1092.4 826.2l-3.1 3.4 3.7 4 3.5-3.3-4.1-4.1z"/><path class="st16" d="M1059.3 828.6l-3.1 3.4 3.7 4 3.5-3.3-4.1-4.1z"/><path class="st19" d="M1058.3 828.1l-3.1 3.4 3.7 4 3.5-3.3-4.1-4.1z"/><path class="st16" d="M1059 850.9l-3.1 3.4 3.7 4 3.5-3.3-4.1-4.1z"/><path class="st19" d="M1058 850.4l-3.1 3.4 3.7 4 3.5-3.3-4.1-4.1z"/><path class="st16" d="M1089 850.2l-3.1 3.4 3.7 4 3.5-3.3-4.1-4.1z"/><path class="st19" d="M1088 849.7l-3.1 3.4 3.7 4 3.5-3.3-4.1-4.1z"/><path class="st16" d="M1096.8 871.8l-3.1 3.4 3.7 4 3.5-3.3-4.1-4.1z"/><path class="st19" d="M1095.7 871.4l-3.1 3.4 3.7 4 3.5-3.3-4.1-4.1z"/><path class="st16" d="M1138.2 855.6l-3.1 3.4 3.7 4 3.5-3.3-4.1-4.1z"/><path class="st19" d="M1137.2 855.1l-3.1 3.4 3.7 4 3.5-3.3-4.1-4.1z"/><path class="st16" d="M1167.6 863.6l-3.1 3.4 3.7 4 3.5-3.3-4.1-4.1z"/><path class="st19" d="M1166.5 863.1l-3.1 3.4 3.7 4 3.5-3.3-4.1-4.1z"/><path class="st16" d="M1161.5 832.6l-3.1 3.4 3.7 4 3.5-3.3-4.1-4.1z"/><path class="st19" d="M1160.5 832.1l-3.1 3.4 3.7 4 3.5-3.3-4.1-4.1z"/><path class="st16" d="M1140.9 838.2l-3.1 3.4 3.7 4 3.5-3.3-4.1-4.1z"/><path class="st19" d="M1139.9 837.7l-3.1 3.4 3.7 4 3.5-3.3-4.1-4.1z"/><path class="st16" d="M1188.5 841.3l-3.1 3.4 3.7 4 3.5-3.3-4.1-4.1z"/><path class="st19" d="M1187.4 840.8l-3.1 3.4 3.7 4 3.5-3.3-4.1-4.1z"/><path class="st16" d="M1108.9 851.8l-3.1 3.4 3.7 4 3.5-3.3-4.1-4.1z"/><path class="st19" d="M1107.9 851.4l-3.1 3.4 3.7 4 3.5-3.3-4.1-4.1z"/><path class="st16" d="M1124.4 882.7l-3.1 3.4 3.7 4 3.5-3.3-4.1-4.1z"/><path class="st19" d="M1123.4 882.2l-3.1 3.4 3.7 4 3.5-3.3-4.1-4.1z"/><path class="st16" d="M1109.9 625.2l-3.1 3.4 3.7 4 3.5-3.3-4.1-4.1z"/><path class="st18" d="M1108.8 624.7l-3.1 3.4 3.7 4 3.5-3.3-4.1-4.1z"/><path class="st16" d="M1138.6 824.3l-3.3 3.3 3.5 4.1 3.7-3.2-3.9-4.2z"/><path class="st17" d="M1137.6 823.8l-3.3 3.3 3.5 4 3.7-3.2-3.9-4.1z"/><path class="st16" d="M1176.6 831.3l-3.3 3.3 3.5 4 3.7-3.2-3.9-4.1z"/><path class="st17" d="M1175.5 830.8l-3.3 3.3 3.5 4 3.7-3.2-3.9-4.1z"/><path class="st16" d="M1150.7 850.9l-3.3 3.3 3.5 4.1 3.6-3.2-3.8-4.2z"/><path class="st17" d="M1149.7 850.4l-3.3 3.3 3.5 4 3.6-3.2-3.8-4.1z"/><path class="st16" d="M1193 861.4l-3.3 3.3 3.5 4 3.7-3.2-3.9-4.1z"/><path class="st17" d="M1191.9 860.9l-3.3 3.3 3.5 4 3.7-3.2-3.9-4.1z"/><path class="st16" d="M1111.8 866.6l-3.3 3.3 3.5 4 3.7-3.2-3.9-4.1z"/><path class="st17" d="M1110.8 866.1l-3.3 3.3 3.5 4 3.7-3.2-3.9-4.1z"/><path class="st16" d="M1123.3 842.9l-3.3 3.3 3.5 4 3.7-3.2-3.9-4.1z"/><path class="st17" d="M1122.3 842.4l-3.3 3.3 3.5 4.1 3.7-3.2-3.9-4.2z"/><path class="st16" d="M1080.8 831l-3.3 3.3 3.5 4 3.7-3.2-3.9-4.1z"/><path class="st17" d="M1079.8 830.5l-3.3 3.3 3.5 4.1 3.7-3.2-3.9-4.2z"/><path class="st16" d="M1064.6 837.9l-3.3 3.3 3.5 4 3.7-3.2-3.9-4.1z"/><path class="st17" d="M1063.6 837.4l-3.3 3.3 3.5 4.1 3.6-3.2-3.8-4.2z"/><path class="st16" d="M1045.3 855.6l-3.3 3.3 3.5 4 3.7-3.2-3.9-4.1z"/><path class="st17" d="M1044.3 855.1l-3.3 3.3 3.5 4.1 3.7-3.2-3.9-4.2z"/><path class="st16" d="M1049.3 786.9l-3.3 3.3 3.5 4 3.7-3.2-3.9-4.1z"/><path class="st17" d="M1048.3 786.4l-3.3 3.3 3.5 4 3.7-3.2-3.9-4.1z"/><path class="st16" d="M1085.8 786.9l-3.3 3.3 3.5 4 3.7-3.2-3.9-4.1z"/><path class="st17" d="M1084.7 786.4l-3.3 3.3 3.5 4 3.7-3.2-3.9-4.1z"/><path class="st16" d="M1072.9 771.6l-3.3 3.3 3.5 4.1 3.7-3.2-3.9-4.2z"/><path class="st17" d="M1071.9 771.1l-3.3 3.3 3.5 4 3.7-3.2-3.9-4.1z"/><path class="st16" d="M1089.6 764.7l-3.3 3.3 3.5 4 3.7-3.2-3.9-4.1z"/><path class="st17" d="M1088.6 764.2l-3.3 3.3 3.5 4.1 3.7-3.2-3.9-4.2z"/><path class="st16" d="M1068.7 750.9l-3.3 3.3 3.5 4.1 3.7-3.2-3.9-4.2z"/><path class="st17" d="M1067.7 750.4l-3.3 3.3 3.5 4 3.7-3.2-3.9-4.1z"/><path class="st16" d="M1095.9 733.9l-3.3 3.3 3.5 4 3.7-3.2-3.9-4.1z"/><path class="st17" d="M1094.9 733.4l-3.3 3.3 3.5 4 3.6-3.2-3.8-4.1z"/><path class="st16" d="M1058.6 723.7l-3.3 3.3 3.5 4 3.7-3.2-3.9-4.1z"/><path class="st17" d="M1057.5 723.2l-3.3 3.3 3.5 4 3.7-3.2-3.9-4.1z"/><path class="st16" d="M1072.7 705.6l-3.3 3.3 3.5 4.1 3.7-3.2-3.9-4.2z"/><path class="st17" d="M1071.7 705.1l-3.3 3.3 3.5 4.1 3.7-3.2-3.9-4.2z"/><path class="st16" d="M1094.3 715l-3.3 3.3 3.5 4 3.7-3.2-3.9-4.1z"/><path class="st17" d="M1093.3 714.5l-3.3 3.3 3.5 4 3.7-3.2-3.9-4.1z"/><path class="st16" d="M1112 703.2l-3.3 3.3 3.5 4 3.7-3.2-3.9-4.1z"/><path class="st17" d="M1111 702.7l-3.3 3.3 3.5 4 3.7-3.2-3.9-4.1z"/><path class="st16" d="M1138.3 706.7l-3.3 3.3 3.5 4.1 3.6-3.2-3.8-4.2z"/><path class="st17" d="M1137.3 706.1l-3.3 3.3 3.5 4 3.7-3.2-3.9-4.1z"/><path class="st16" d="M1115.4 726.1l-3.3 3.3 3.5 4 3.7-3.2-3.9-4.1z"/><path class="st17" d="M1114.4 725.6l-3.3 3.3 3.5 4 3.7-3.2-3.9-4.1z"/><path class="st16" d="M1150.9 726.1l-3.3 3.3 3.5 4 3.7-3.2-3.9-4.1z"/><path class="st17" d="M1149.9 725.6l-3.3 3.3 3.5 4 3.7-3.2-3.9-4.1z"/><path class="st16" d="M1168.7 708.1l-3.3 3.3 3.5 4.1 3.7-3.2-3.9-4.2z"/><path class="st17" d="M1167.7 707.6l-3.3 3.3 3.5 4 3.6-3.2-3.8-4.1z"/><path class="st16" d="M1118.3 681.7l-3.3 3.3 3.5 4 3.7-3.2-3.9-4.1z"/><path class="st17" d="M1117.3 681.2l-3.3 3.3 3.5 4 3.7-3.2-3.9-4.1z"/><path class="st16" d="M1135.4 673.7l-3.3 3.3 3.5 4.1 3.7-3.2-3.9-4.2z"/><path class="st17" d="M1134.4 673.2l-3.3 3.3 3.5 4 3.7-3.2-3.9-4.1z"/><path class="st16" d="M1104.4 664.8l-3.3 3.3 3.5 4.1 3.7-3.2-3.9-4.2z"/><path class="st17" d="M1103.4 664.3l-3.3 3.3 3.5 4 3.6-3.2-3.8-4.1z"/><path class="st16" d="M1068 673.9l-3.3 3.3 3.5 4 3.7-3.2-3.9-4.1z"/><path class="st17" d="M1067 673.4l-3.3 3.3 3.5 4 3.7-3.2-3.9-4.1z"/><path class="st16" d="M1150.3 659.6l-3.3 3.3 3.5 4 3.7-3.2-3.9-4.1z"/><path class="st17" d="M1149.2 659.1l-3.3 3.3 3.5 4 3.7-3.2-3.9-4.1z"/><path class="st16" d="M1144.2 633.4l-3.3 3.3 3.5 4.1 3.7-3.2-3.9-4.2z"/><path class="st17" d="M1143.2 632.9l-3.3 3.3 3.5 4.1 3.7-3.2-3.9-4.2z"/><path class="st16" d="M1120.6 633.3l-3.3 3.3 3.5 4 3.7-3.2-3.9-4.1z"/><path class="st17" d="M1119.6 632.8l-3.3 3.3 3.5 4.1 3.7-3.2-3.9-4.2z"/><path class="st16" d="M1098.1 631.8l-3.3 3.3 3.5 4 3.7-3.2-3.9-4.1z"/><path class="st17" d="M1097.1 631.3l-3.3 3.3 3.5 4 3.7-3.2-3.9-4.1z"/><path class="st16" d="M1126.2 605.8l-3.3 3.3 3.5 4.1 3.7-3.2-3.9-4.2z"/><path class="st17" d="M1125.2 605.3l-3.3 3.3 3.5 4 3.7-3.2-3.9-4.1z"/><path class="st16" d="M1108.7 611.1l-3.3 3.3 3.5 4.1 3.7-3.2-3.9-4.2z"/><path class="st17" d="M1107.7 610.6l-3.3 3.3 3.5 4.1 3.7-3.2-3.9-4.2z"/><path class="st20" d="M1032.7 795.4L1060 782l48.5 42.4-75.8-29z"/><path class="st21" d="M1108.5 824.4l30.8-19.8 69.1-4.2-99.9 24z"/><path class="st20" d="M1046.7 731.2l40.5 4.6 27.7-11.8 20.6 8.6 59.8 6-90.8 10.3-57.8-17.7z"/><path class="st21" d="M1104.4 749l7.2-23.5 3.3-1.4 20.6 8.6 59.8 6-90.9 10.3zm7.3-47.9l18.7-17.9 13.6 2.2 4-20.5 27.5 17.3-63.8 18.9z"/><path class="st20" d="M1053.3 681.8l23.7-6.8 34.7 26.1-58.4-19.3zm22.4-47.9l30.9-7.5 15.9 30-46.8-22.5z"/><path class="st21" d="M1161.2 638l-15.4-2.6-23.3 21 38.7-18.4z"/><path class="st20" d="M1035.3 866.7l29.9-13.6 35.8 21 10.1 2.3 14.3-5 38.3 5.6 7.4-21.7 35.1 12.9L1126 896l-90.7-29.3z"/><path class="st21" d="M1126 896l-.6-24.6 30.5.1 15.3-16.3 30.5 1.4 5.2 11.4-80.9 28z"/><g id="bush_kopia_2"><path class="st9" d="M467 954.4l-153.8-26.3-35.4 9.4 10.2-12.7-64-15.2-94.5-41-85.4 42.6 58.3 59.2 63.9 10.8 29.9-8.2 152.1 46.9L467 954.4z"/><path class="st29" d="M54.1 865.5l21 40.5 28.1 6.3 52.2-21.2 9.3-40.8-64.2 23.5-46.4-8.3z"/><path class="st30" d="M42.3 857.8l19.9 23.4 35.6 11.3 20-25 42.1 3.8 14.8-28.1-40.6-16.7-45.2 23.8-46.6 7.5z"/><path class="st23" d="M42.3 857.8V835l49.3 7.1 23.2-25.4 41.9 3.5 18 22.9-57 24.3c.1.1-75.4-9.6-75.4-9.6z"/><path class="st22" d="M42.3 835l51.8-47.7 44.7 8.4 17.9 24.6-67.9 30c.1 0-46.5-15.3-46.5-15.3z"/><path class="st16" d="M97.8 892.4l5.4 19.8 52.2-21.2 4.5-19.9 14.8-28.1-35.9-47.5-77.9 23.1 16.5 27.7-15.2 34.6 35.6 11.5z"/><path class="st29" d="M210 968l41-35-8-20.2-12-60.2-41.9-22.9-26.5 28.7-39.8 27.3 12.6 66.9L210 968z"/><path class="st30" d="M261.6 888.8l-18.5 24-37.6 16.9-17.4 19.4-34.4-3-18.3 6.5-20.3-41.4 53 7.3 21-22.4 72.5-7.3z"/><path class="st23" d="M261.6 888.8l-56 40.9-37.4-11.2-53-7.3 7.7-25.6 108.1-33 30.6 36.2z"/><path class="st22" d="M231 852.6l-22.9 44.1-37.4 4.2-47.8-15.2 66.3-56 28.9-7.9 12.9 30.8z"/><path class="st30" d="M208.1 896.7l-85.3-11 45.3 32.8 40-21.8z"/><path class="st16" d="M231 852.6l2.3 56.9L210 968l-74.6-15.4 18.3-6.5 14.4-27.6-13.1-28.6 63-68.1"/><path class="st29" d="M83.2 951.9l19.2 18.5 46.9-14.8 10.7-21.5-49.9 4-26.9 13.8z"/><path class="st23" d="M160.1 934l-10.7-20.1-45.4 17.2-30.1-6.2 9.4 27 24.5 2.3 52.3-20.2z"/><path class="st23" d="M73.8 924.9l33.9 29.3 41.6-40.3-42.7-8.8-32.8 19.8z"/><path class="st22" d="M89.1 915.7l7.8-40 25.9 10.6 26.6 27.6-58.7 25.5-1.6-23.7z"/><path class="st16" d="M102.4 970.3l5.3-16.2v-22.2l-10.8-56.3 25.9 10.6 14.4 14.9-29.4 30.8 41.6-18.1-14 29.2-33 27.3z"/></g><path class="st16" d="M184.9 899.9l-3.7 3.4 3.9 4.1 4.1-3.3-4.3-4.2z"/><path class="st17" d="M183.7 899.4l-3.7 3.4 3.9 4.1 4.1-3.3-4.3-4.2z"/><path class="st16" d="M120.2 916.5l-3.7 3.4 3.9 4.1 4.1-3.3-4.3-4.2z"/><path class="st17" d="M119 916l-3.7 3.4 3.9 4.1 4.1-3.3-4.3-4.2z"/><path class="st16" d="M143.8 885.8l-3.7 3.4 3.9 4.1 4.1-3.3-4.3-4.2z"/><path class="st17" d="M142.6 885.3l-3.7 3.4 3.9 4.1 4.1-3.3-4.3-4.2z"/><path class="st16" d="M124.5 869.2l-3.7 3.4 3.9 4.1 4.1-3.3-4.3-4.2z"/><path class="st17" d="M123.3 868.7l-3.7 3.4 3.9 4.1 4.1-3.3-4.3-4.2z"/><path class="st16" d="M145.5 856.9l-3.7 3.4 3.9 4.1 4.1-3.3-4.3-4.2z"/><path class="st17" d="M144.4 856.4l-3.7 3.4 3.9 4.1 4.1-3.3-4.3-4.2z"/><path class="st16" d="M189.9 879.9l-3.7 3.4 3.9 4.1 4.1-3.3-4.3-4.2z"/><path class="st17" d="M188.7 879.4l-3.7 3.4 3.9 4.1 4.1-3.3-4.3-4.2z"/><path class="st16" d="M158.2 899.5l-3.7 3.4 3.9 4.1 4.1-3.3-4.3-4.2z"/><path class="st18" d="M157.1 898.9l-3.7 3.4 3.9 4.1 4.1-3.3-4.3-4.2z"/><path class="st16" d="M205.8 904.2l-3.7 3.4 3.9 4.1 4.1-3.3-4.3-4.2z"/><path class="st18" d="M204.7 903.7l-3.7 3.4 3.9 4.1 4.1-3.3-4.3-4.2z"/><path class="st16" d="M174.1 871.8l-3.7 3.4 3.9 4.1 4.1-3.3-4.3-4.2z"/><path class="st18" d="M173 871.3l-3.7 3.4 3.9 4.1 4.1-3.3-4.3-4.2z"/><path class="st16" d="M179.1 847l-3.7 3.4 3.9 4.1 4.1-3.3-4.3-4.2z"/><path class="st18" d="M177.9 846.5l-3.7 3.4 3.9 4.1 4.1-3.3-4.3-4.2zm-43.5 50.6l-3.7 3.4 3.9 4.1 4.1-3.3-4.3-4.2z"/><path class="st16" d="M96.2 944.6l-3.7 3.4 3.9 4.1 4.1-3.3-4.3-4.2z"/><path class="st18" d="M95 944.1l-3.7 3.4 3.9 4.1 4.1-3.3-4.3-4.2z"/><path class="st16" d="M164.7 926.7l-3.7 3.4 3.9 4.1 4.1-3.3-4.3-4.2z"/><path class="st18" d="M163.6 926.2l-3.7 3.4 3.9 4.1 4.1-3.3-4.3-4.2z"/><path class="st16" d="M97.7 920l-3.7 3.4 3.9 4.1 4.1-3.3c.1 0-4.3-4.2-4.3-4.2z"/><path class="st18" d="M96.6 919.5l-3.7 3.4 3.9 4.1 4.1-3.3-4.3-4.2z"/><path class="st16" d="M100.3 891.6l-2.9 3.7 4.8 3.8 3.4-3.6c0-.1-5.2-3.9-5.3-3.9z"/><path class="st18" d="M99.1 891.2l-2.9 3.7 4.8 3.8 3.4-3.6c-.1-.1-5.3-3.9-5.3-3.9z"/><path class="st16" d="M101.1 863.6l-2.9 3.7 4.8 3.8 3.4-3.6-5.3-3.9z"/><path class="st18" d="M99.9 863.2l-2.9 3.7 4.8 3.8 3.4-3.6c-.1 0-5.3-3.9-5.3-3.9z"/><path class="st16" d="M127.4 839.3l-2.9 3.7 4.8 3.8 3.4-3.6-5.3-3.9z"/><path class="st18" d="M126.1 838.9l-2.9 3.7 4.8 3.8 3.4-3.6-5.3-3.9z"/><path class="st16" d="M99.3 797.3l-2.9 3.7 4.8 3.8 3.4-3.6c-.1-.1-5.3-3.9-5.3-3.9z"/><path class="st18" d="M98 796.9l-2.9 3.7 4.8 3.8 3.4-3.6-5.3-3.9z"/><path class="st16" d="M147.6 813.8l-3 3.7 4.8 3.8 3.4-3.6-5.2-3.9z"/><path class="st18" d="M146.4 813.4l-2.9 3.7 4.8 3.8 3.4-3.6-5.3-3.9z"/><path class="st16" d="M60.2 836.2l-4 3.3 3.6 4.2 4.4-3.1-4-4.4z"/><path class="st18" d="M59.1 835.6l-4 3.3 3.6 4.2 4.3-3.2-3.9-4.3z"/><path class="st16" d="M115.5 797.1l-3.5 3.5 4.1 4 3.9-3.3-4.5-4.2z"/><path class="st19" d="M114.3 796.6l-3.5 3.5 4.1 4 3.9-3.3-4.5-4.2z"/><path class="st16" d="M127.3 826.5l-3.5 3.5 4.1 4 3.9-3.3-4.5-4.2z"/><path class="st19" d="M126.1 826l-3.5 3.5 4.1 4 3.9-3.3-4.5-4.2z"/><path class="st16" d="M188.6 839.4l-3.5 3.5 4.1 4 3.9-3.3-4.5-4.2z"/><path class="st19" d="M187.4 838.9l-3.5 3.5 4.1 4 3.9-3.3-4.5-4.2z"/><path class="st16" d="M94.1 832.3l-3.5 3.5 4.2 4 3.9-3.3-4.6-4.2z"/><path class="st19" d="M93 831.8l-3.5 3.5 4.2 4 3.9-3.3-4.6-4.2z"/><path class="st16" d="M66.7 826.5l-3.5 3.5 4.2 4 3.9-3.3-4.6-4.2z"/><path class="st19" d="M65.5 826l-3.5 3.5 4.2 4 3.9-3.3-4.6-4.2z"/><path class="st16" d="M87.7 806l-3.5 3.5 4.2 4 3.9-3.3c-.1-.1-4.6-4.2-4.6-4.2z"/><path class="st19" d="M86.5 805.5L83 809l4.2 4 3.9-3.3-4.6-4.2z"/><path class="st16" d="M72 857.1l-3.5 3.5 4.2 4 3.9-3.3-4.6-4.2z"/><path class="st19" d="M70.9 856.6l-3.5 3.5 4.1 4 3.9-3.3-4.5-4.2z"/><path class="st16" d="M83.1 887.7l-3.5 3.5 4.2 4 3.9-3.3c-.1-.1-4.6-4.2-4.6-4.2z"/><path class="st19" d="M81.9 887.2l-3.5 3.5 4.2 4 3.9-3.3c0-.1-4.6-4.2-4.6-4.2z"/><path class="st16" d="M118.5 902l-3.5 3.5 4.1 4 3.9-3.3-4.5-4.2z"/><path class="st19" d="M117.3 901.5l-3.5 3.5 4.1 4 3.9-3.3-4.5-4.2z"/><path class="st16" d="M101.5 906l-3.5 3.5 4.1 4 3.9-3.3-4.5-4.2z"/><path class="st19" d="M100.3 905.5l-3.5 3.5 4.2 4 3.9-3.3-4.6-4.2z"/><path class="st16" d="M150.9 871.7l-3.5 3.5 4.1 4 3.9-3.3-4.5-4.2z"/><path class="st19" d="M149.7 871.2l-3.5 3.5 4.1 4 3.9-3.3-4.5-4.2z"/><path class="st16" d="M168.8 890.3l-3.5 3.5 4.1 4 3.9-3.3-4.5-4.2z"/><path class="st19" d="M167.6 889.8l-3.5 3.5 4.1 4 3.9-3.3-4.5-4.2z"/><path class="st16" d="M140.6 912.7l-3.5 3.5 4.1 4 3.9-3.3-4.5-4.2z"/><path class="st19" d="M139.4 912.3l-3.5 3.5 4.1 4 3.9-3.3-4.5-4.2z"/><path class="st16" d="M168.4 858l-3.5 3.5 4.1 4 3.9-3.3-4.5-4.2z"/><path class="st19" d="M167.2 857.6l-3.5 3.5 4.1 4 3.9-3.3-4.5-4.2z"/><path class="st16" d="M86.1 936.6l-3.5 3.5 4.2 4 3.9-3.3-4.6-4.2z"/><path class="st19" d="M84.9 936.1l-3.5 3.5 4.2 4 3.9-3.3-4.6-4.2z"/><path class="st16" d="M160 942.6l-3.5 3.5 4.1 4 3.9-3.3-4.5-4.2z"/><path class="st19" d="M158.8 942.1l-3.5 3.5 4.1 4 3.9-3.3-4.5-4.2z"/><path class="st16" d="M136.8 948.3l-3.5 3.5 4.1 4 3.9-3.3-4.5-4.2z"/><path class="st19" d="M135.6 947.8l-3.5 3.5 4.1 4 3.9-3.3-4.5-4.2z"/><path class="st16" d="M190.5 951.4l-3.5 3.5 4.2 4 3.9-3.3-4.6-4.2z"/><path class="st19" d="M189.3 950.9l-3.5 3.5 4.1 4 3.9-3.3-4.5-4.2z"/><path class="st16" d="M134.1 934.2l-3.7 3.4 3.9 4.1 4.1-3.3-4.3-4.2z"/><path class="st17" d="M133 933.7l-3.7 3.4 3.9 4.1 4.1-3.3-4.3-4.2z"/><path class="st16" d="M177 941.3l-3.7 3.4 3.9 4.1 4.1-3.3-4.3-4.2z"/><path class="st17" d="M175.9 940.8l-3.7 3.4 3.9 4.1 4.1-3.3-4.3-4.2z"/><path class="st16" d="M116.8 953.1l-3.7 3.4 3.9 4.1 4.1-3.3-4.3-4.2z"/><path class="st17" d="M115.7 952.6L112 956l3.9 4.1 4.1-3.3-4.3-4.2z"/><path class="st16" d="M78.8 873.7l-3.7 3.4 3.9 4.1 4.1-3.3-4.3-4.2z"/><path class="st17" d="M77.6 873.2l-3.7 3.4 3.9 4.1 4.1-3.3-4.3-4.2z"/><path class="st16" d="M55.2 859.7l-3.7 3.4 3.9 4.1 4.1-3.3-4.3-4.2z"/><path class="st17" d="M54 859.1l-3.7 3.4 3.9 4.1 4.1-3.3-4.3-4.2z"/><path class="st16" d="M85.9 842.5l-3.7 3.4 3.9 4.1 4.1-3.3-4.3-4.2z"/><path class="st17" d="M84.7 841.9l-3.7 3.4 3.9 4.1 4.1-3.3-4.3-4.2z"/><path class="st16" d="M84.1 823.2l-3.7 3.4 3.9 4.1 4.1-3.3-4.3-4.2z"/><path class="st17" d="M83 822.7l-3.7 3.4 3.9 4.1 4.1-3.3-4.3-4.2z"/><path class="st16" d="M104.2 811.3l-3.7 3.4 3.9 4.1 4.1-3.3-4.3-4.2z"/><path class="st17" d="M103 810.7l-3.7 3.4 3.9 4.1 4.1-3.3-4.3-4.2z"/><path class="st16" d="M133.9 814.8l-3.7 3.4 3.9 4.1 4.1-3.3-4.3-4.2z"/><path class="st17" d="M132.7 814.2l-3.7 3.4 3.9 4.1 4.1-3.3-4.3-4.2z"/><path class="st16" d="M108 834.5l-3.7 3.4 3.9 4.1 4.1-3.3-4.3-4.2z"/><path class="st17" d="M106.8 834l-3.7 3.4 3.9 4.1 4.1-3.3-4.3-4.2z"/><path class="st16" d="M148.1 834.5l-3.7 3.4 3.9 4.1 4.1-3.3-4.3-4.2z"/><path class="st17" d="M146.9 834l-3.7 3.4 3.9 4.1 4.1-3.3-4.3-4.2z"/><path class="st16" d="M214.8 943.1l-3.5 3.5 4.1 4 3.9-3.3-4.5-4.2z"/><path class="st18" d="M213.6 942.7l-3.5 3.5 4.1 4 3.9-3.3-4.5-4.2z"/><path class="st16" d="M214.8 916.6l-3.5 3.5 4.1 4 3.9-3.3-4.5-4.2z"/><path class="st18" d="M213.6 916.1l-3.5 3.5 4.1 4 3.9-3.3-4.5-4.2z"/><path class="st16" d="M212.5 930.2l-3.5 3.5 4.1 4 3.9-3.3-4.5-4.2z"/><path class="st19" d="M211.3 929.8l-3.5 3.5 4.1 4 3.9-3.3-4.5-4.2z"/><path class="st16" d="M194.5 938.1l-3.7 3.4 3.9 4.1 4.1-3.3-4.3-4.2z"/><path class="st17" d="M193.4 937.6l-3.7 3.4 3.9 4.1 4.1-3.3-4.3-4.2z"/><path class="st31" d="M167.4 918.9l-16-2.7-14.1 21.7-30.6 1-15.4 8.6-9.3 4 24.7 2 52.7-19.3 8-15.3zM123 885.8l43.8-9.3 41.3 20-53-7-32.1-3.7zm-80.7-28l33.5-3.3 13.3 2.3 20.8-6 35.3 1.8 21.8-20.3 7.3 10.1-55.8 25.2-76.2-9.8zm18.7-40l30-8.1 47-13.9-34.8 22.5c0-.1-42.2-.5-42.2-.5zm35.7 57.7l-5.3 27.3 7.7-11.7 16.9-7.7-19.3-7.9z"/><g id="isfj_kopia_2"><path class="st43" d="M371.8 903.8l12.2 39.5-9 12.6-29.1-27.8 25.9-24.3z"/><path class="st73" d="M384 943.3l28.7 5.6-7 9.8-11.6 6.9-12.5-3.3-7.9-9.7 10.3-9.3z"/><path class="st60" d="M412.7 948.9l10.1-.4 3.2 4.1-25.4 16.7-6.5-.7v-3l18.6-16.7z"/><path class="st41" d="M354 925.8l19.8 26.7-6.3 7.3-11.7 2.4-21.5-11.8 2.9-13.2 16.8-11.4z"/><path class="st60" d="M373.8 952.6l20.4 13-11.9 9.2-20.4 9.8-6.2-22.3 18.1-9.7z"/><path class="st26" d="M394.2 965.6l17.8 6.3.5 4.8-50.6 7.9 32.3-19z"/><path class="st70" d="M313.1 976.7l58.6-72.9-11.7-34.7-17.6-22.7-22.4 12.2-10.7 52.5 3.8 65.6z"/><path class="st74" d="M298.2 847.5l-35.8 56.2-18.7 61.8 69.5 11.1 7-118.1-22-11z"/><path class="st43" d="M345.8 823.8l19.8 2.5 12.4 27.1-18 15.7-14.2-45.3z"/><path class="st41" d="M345.8 823.8l32.1 29.6-9.3-29.6h-22.8zm-43.2-15.3l43.3 15.2-11.6 22.7-35.3-4.9 3.6-33z"/><path class="st71" d="M209.9 795.9l-9.8 27.8 4.6 13.3-15 16.3 54.1 112.2 54.5-118v-35.2l-30.5-16.4h-57.9z"/><path class="st70" d="M267.7 795.9l31.2 45.6 3.7-33-34.9-12.6z"/><path class="st75" d="M283.3 661.5l29.9 10.9-14.4 32.5-10.5-21.1-5-22.3z"/><path class="st71" d="M164.5 687.8l-12.1-5.7-17.4-19.3 79.2-58.6 12.8 21.6 5.2 17.9-34.2 29.6-33.5 14.5z"/><path class="st76" d="M214.2 604.3l66.5 11.9 2.5 45.3-28.5-5.3-22.5-12.5-18-39.4z"/><path class="st74" d="M135 662.8l17 51.2 9.8-13.1 2.7-13.1-29.5-25z"/><path class="st73" d="M217.9 612.3l-3.2 2.2 4.1 9.6-7.7 5.2 2.7 6.4 8-5.3 4 8.8 3.4-2-2.2-11.3-9.1-13.6z"/><path class="st69" d="M217.9 612.3l4.6 1.1 3.9 8.1 9.5 2.2 1.2 6-7.7-1.6 4.1 9.4-4.2-.4-11.4-24.8z"/><path class="st28" d="M213.1 902.2l39 9.6 68-53.2 39.9 10.5-6-26.6L233.4 871l-43.8-17.7 23.5 48.9z"/><path class="st41" d="M283.3 661.5l36.1 101.3-49.7 19.7-8.2 54-54.1-48.8-35.1-21.4 17.4-15.3 11.9 13.7 3-60.2 14.7-14 18.3-4.1 45.7-24.9z"/><path class="st43" d="M204.6 704.5l33.4 90.2 31.7-12.2-8.1 12.1 4.9 9.2-5 32.7-89.2-70.2 17.4-15.3 11.9 13.7-4-27.6 7-32.6zm76.1-13.8l-13.2 30.4-6.5 14.3-33.9-23.4 53.6-21.3z"/><path class="st44" d="M248.8 703.2l12.2 32.1 10.5-3.9-12.5-32.3-10.2 4.1z"/><path class="st42" d="M271.4 731.5l-3.1 8.2-7.4-4.3 10.5-3.9zm-1.7 51.1l-3.2 21.3-38-5.7 41.2-15.6zm-67.5-8.2l-1 14.8-8.3-6.5 9.3-8.3zm-5-4l-9.1-9.5-6.2 5.5 15.3 4z"/><path class="st45" d="M247.9 719.9c1.1 2.7.1 5.6-2.2 6.5-2.3.9-5.1-.5-6.1-3.1s-.1-5.6 2.2-6.5c2.2-.9 5 .5 6.1 3.1zm30.5-11.7c1.1 2.7.1 5.6-2.2 6.5-2.3.9-5.1-.5-6.1-3.1s-.1-5.6 2.2-6.5 5.1.4 6.1 3.1z"/><path class="st75" d="M237.6 686.5l1.5-22.3-6.8-20.4-67.7 44-24.3 50.7 32.7-14.6 31.6-19.4 14.3-7.8 18.7-10.2z"/><path class="st38" d="M204.6 704.5l-3 60.2-11.9-13.7-17.4 15.3-32.1-27.8 64.4-34z"/><path class="st39" d="M232.3 643.8l51 17.7-26.3 18.8-19.4 6.2-5.3-42.7z"/><path class="st75" d="M248.8 703.2l-2.7-7.1-19 15.8 21.7-8.7zm10.2-4.1l21.6-8.4-24 1.5 2.4 6.9z"/><path class="st70" d="M252.1 756.7l24.9 4.6 13.6-19.7-16.4 13-22.1 2.1z"/><path class="st72" d="M261.6 755.8l9.5-9.3 12.8.5-9.6 7.6-12.7 1.2z"/><path class="st44" d="M260.1 849.4l62.8-12.8 4.3 9.8-7.2 12.2-65.6 34.3-.7-23.8 6.4-19.7z"/><path class="st43" d="M323 836.6l22.9-12.8 8.2 18.7-5.7 18.7-28.2-2.6 2.8-22z"/><path class="st44" d="M345.8 823.8l19.8 18.2-5.6 27.1-11.7-7.9-2.5-37.4z"/><path class="st76" d="M200 823.8l60.1 25.6-8 62.4-62.5-58.4 10.4-29.6z"/></g><g id="esfp_kopia_2"><path class="st9" d="M1123.5 1042l-226.1 30.7-64 6.9-86.9 7-80.5-25.1 176.4-41.2 281.1 21.7z"/><path class="st43" d="M1091.7 1027.1l17.9 2.8 11.9 8.4 2 3.7h-15.9l-15.9-14.9zm-80.8-21.2l55.6 20.8 3.7 7.8-3.7 6.5-55.6.9v-36z"/><path class="st41" d="M1066.5 1026.8l17.6-11.3 23.5 26.6-41.1-.9v-14.4z"/><path class="st42" d="M1010.9 1042l12.4-31.4-12.4-4.7v36.1z"/><path class="st9" d="M566.8 1032.9l30.9 13.2 43-12.3-43-15.3-41.7-.8 10.8 15.2zm12.1-33.8l32.9 3.2 50.8-12.3-45.6-6.9-38.1 16z"/><path class="st43" d="M743.2 1068l-37-63.3 2.2-8.7 8.7-9.8 59.6 70.5-33.5 11.3z"/><path class="st41" d="M800.8 1018.2l-36.6 58.3-21.1-8.6 26.1-65.4h31.4l.2 15.7z"/><path class="st42" d="M717.1 986.2l-14-3.7-17.5-1.8h-4.9l-9.9 4.2 35.3 19.8 11-18.5z"/><path class="st43" d="M685.7 980.7l5-19.4-19.8 23.6 14.8-4.2z"/><path class="st42" d="M1047.5 948.5v17.4l-2.7.7-19.8-11.8 22.5-6.3z"/><path class="st41" d="M969.2 1044.4l2.3-24.2 12.9-25.8 18.1-59.4 11.1 14.3-.5 14.3-2.3 78.5-41.6 2.3z"/><path class="st43" d="M1047.5 948.5l-45-13.6 10.7 28.6 34.3-15z"/><path class="st66" d="M943.7 969.9l40.7 24.5-15.3 50-35.7 6.9v-38.9l10.3-42.5z"/><path class="st24" d="M911.7 994.3l32-24.5-10.2 81.4-19 3.7-4.6-30.3 1.8-30.3z"/><path class="st63" d="M865.4 975.3l8 35.7v33.3l-37.8 20.9 9.9-90.3 19.9.4z"/><path class="st65" d="M865.4 975.3l8 69.1 41.1 10.7-2.8-60.7-26.2-21.7-10.6-3.4-9.5 6z"/><path class="st42" d="M725.6 987.7l57.2 4.4 11.3 18.9-68.5-23.3z"/><path class="st63" d="M597 968.7l14.7 11.9-3.7 6.1-8.9-5.9-2.1-12.1zm-9.1 35.6l5.2 13.8-6.8 2.1-6.3-12.6 7.9-3.3z"/><path class="st77" d="M577.1 997.2l19.1-13.1 46.5-10.3-52.4 20.4-13.2 3zm-22.7 16.6l23.6-.7 41.8 13.9-22.2 6.8-43.2-20z"/><path class="st65" d="M587.9 1004.3l-7.9 20.1-9.8-4.1 8.9-18.4 8.8 2.4zm9.1-35.6l11 17.9-8.3 3.1-9.4-15.3 6.7-5.7z"/><path class="st63" d="M577.1 997.2l1.8 1.9 60.7-3.4 3.1-21.8-65.6 23.3zm-22.7 16.6l1.5 3.9 41.7 28.4 18.2-7.3 3.9-11.7-23.2 4.3-42.1-17.6z"/><path class="st45" d="M678.1 889.4l-8.3 18.5 25.8 11.8 9.4-31.8-26.9 1.5z"/><path class="st75" d="M706.1 854.9l-35.3 21.9 24.7 42.9 20.5-50.3-9.9-14.5z"/><path class="st37" d="M670.9 876.8l29.2 15.4 10.3 16.5-14.8 11.1-24.7-43z"/><path class="st62" d="M704.2 902.7l-22.7 24.5 16 16.5 1.9-11.8-4.2-4.4 6-6.6 4.5-5.2-1.5-13z"/><path class="st41" d="M800.7 959.9l-20.9 31-2.4-.2-24.8 1.4-27-4.4-40-7 20.5-125.8 72.8 63 21.8 42z"/><path class="st43" d="M765 941l-12.4 51.1 27.2 3.7 31.7 33.8 5.7-62.7-32.2-43.5-20 17.6zm-44.3-46.7l2.1 4.5-4.2 25.9-8.8-22.2-3.5-8.5 14.4.3zm10.7 5.9l8.4-3.2 17.4 8.4-20.5 14.1-9.8 15.7 4.5-35z"/><path class="st42" d="M773.1 964.9l39.6 17.6.3-12.6-20-34.5-21.6 5.4 1.7 24.1z"/><path class="st44" d="M731.4 900.2l-8.6-1.3-5.7 34.8 9.7 1.6 4.6-35.1z"/><path class="st42" d="M726.8 935.3l-6 5.1-3.7-6.7 9.7 1.6zm-22-72.3l58.9 82.4 14.8 6.5 1.3-15.5-40-39.4-33.6-42.1-1.4 8.1z"/><path class="st45" d="M711.2 902.3c-2.3-.3-4.5 2.3-5 5.8s1.1 6.6 3.4 6.9c2.3.3 4.5-2.3 5-5.8s-1.1-6.6-3.4-6.9zm31.8 4.8c-2.3-.3-4.5 2.3-5 5.8s1.1 6.6 3.4 6.9c2.3.3 4.5-2.3 5-5.8s-1-6.6-3.4-6.9z"/><path class="st37" d="M873.8 947.3l11.7 25.3-36.6 4.9-57.7-42.4 82.6 12.2z"/><path class="st38" d="M832.7 909.7l64.8 18.6-48.5 49.2-19.5 5.6-28.7-23.1-5.7-7-26.9-19.2 64.5-24.1z"/><path class="st39" d="M837.5 925.4l60 2.9-62.1-19.6-1.9 6.6 4 10.1z"/><path class="st75" d="M764.3 840.4l63.5 8 9.8 76.9-39-41.3-34.3-43.6z"/><path class="st37" d="M696.3 840.6L765 941l83.9-2.3-70.7-49.3-81.9-48.8z"/><path class="st61" d="M696.3 840.6l49.1-22 103.5 120-152.6-98z"/><path class="st38" d="M720.9 884.6l-14.7 9.4 14.5.3.2-9.7z"/><path class="st62" d="M752.4 953.3l-31.9-10.6-22.7 3.3 17.6 31.4 37-24.1z"/><path class="st63" d="M742.5 954l-37.8-4.9 9.1 16.6 8.8 1.2 19.9-12.9z"/><path class="st25" d="M732.5 960.5l-23.3-3.1-4.5-8.3 37.8 4.9-10 6.5z"/><path class="st62" d="M776.7 940.7l-3.6 24.2 39.9 5-7.2-10-22.1-3.1 1.5-11.1-8.5-5z"/><path class="st75" d="M876.8 949.2l8.7 23.4-24.2-7.7 15.5-15.7z"/><path class="st45" d="M816.9 939.6l12.5 43.5-28.7-23.1-24-19.3 40.2-1.1z"/><path class="st65" d="M813 969.9l-12.2 48.4 10.7 11.3 5.7-39.9-4.2-19.8z"/><path class="st43" d="M811 1048.3l-64.5 12.8-4.2 5.3.9 8.7 67 4.4 2.8-16.8-2-14.4z"/><path class="st41" d="M813 969.9l35.9 7.6-15.5 102.1h-23.2l2.8-109.7zm-66.5 91.3l-19.7-12.8-5.9 15.6v10.6l22.2.6 3.4-14z"/><path class="st43" d="M726.8 1048.3l-26.1 24.4 20.3 1.8 5.8-26.2z"/></g><g id="fireplace"><path class="st9" d="M575.6 814.9H619l20.4-13.5 6 10.1 41.8-3 43.1-23.7v-9.3l15.4-20.4-63.7-24-106.4 83.8z"/><path class="st38" d="M652 782.7l-38.1-6.9v7.3l2.6 6.5 28.9 21.9 6.6-28.8zm-131.8-30l-25.3-19.5v29.2l21.3 2.8 4-12.5z"/><path class="st37" d="M649.8 783.1l25.6-6.9 29.4-4.3 4.1 14.8-63.4 24.8 4.3-28.4zm-33.3 24.4v-18l-20.4-1.7-20.4 1.7-.3 25.4 41.1-7.4zm-98.8-53.8l36.7 10.2 34 15-12.5 10.7-61.9-6.5 3.7-29.4zM699 765l27.7 3.9 4.4-23.7h-20.3l-14.5 6.1L699 765z"/><path class="st39" d="M613.9 775.8l82.4-24.4 8.3 20.6-54.9 11.2-35.8-7.4zm-17.8-6.9l-50.6-19.8-15.9.1-11.9 4.5 69.2 24.7 6.7-3.9 2.5-5.6z"/><path class="st61" d="M517.7 753.7l27.8-4.6-13.9-21.4-36.6 5.5 22.7 20.5zm96.2 22.1l2.6 13.8h-40.7l20.2-20.7 17.9 6.9zm82.4-24.5l10.3-20.6 24.5 14.4-34.8 6.2z"/><path class="st24" d="M545.4 749.1l-27.8-43.7 42.4-34.9 56.5 46.5 68.5-90 45.4 55.2-23.8 48.5-10.3 20.6-82.4 24.4-68.5-26.6z"/><path class="st66" d="M616.5 717L560 670.6l-15-58 37-33.6 40.3 27.2 42.2-34.8 45.4 46.3-93.4 99.3z"/><path class="st24" d="M622.3 606.2L582 579l-8.5-14.6 90.9-16.7v23.7l-42.1 34.8z"/><path class="st18" d="M582 762.4l-21.9-39.9 56.5-63-24.4-20.4 30.1-33 57.4 68.8-22.9 25.2 25.3 30.9-23.7 31.5-44.5 13.2-31.9-13.3z"/><path class="st78" d="M656.8 700.2l-40.2-40.7-28.2 67.9 25.6 48.3 42.8-75.5z"/><path class="st18" d="M592.1 639.1l24.4 20.4 34.2-19.2-28.5-34.1-30.1 32.9z"/><path class="st66" d="M573.5 564.4l30-37.1 60.9 20.3-90.9 16.8z"/><path class="st67" d="M603.5 527.4l34-20.8 26.9 41.1-60.9-20.3zm-30 37l90.9 7-42.2 34.8L582 579l-8.5-14.6z"/><path class="st66" d="M517.7 705.4l42.4 17.1-14.7 26.6-27.7-43.7zM682.1 731l48.3-48.8-34 69-14.3-20.2z"/><path class="st24" d="M582 579l40.3 27.2-30.1 33-47.2-26.6 37-33.6z"/><path class="st67" d="M650.8 640.3l59.1-22.7-41.2 43.9-17.9-21.2zm-34.3 19.2L560 670.6l26.7 22.3 29.8-33.4z"/><path class="st62" d="M589.8 745.2l13.7-10.8 28.3 28.7-23.5 2.1-18.5-20zm16.3-18.9l10.6 10.5 10.3-7.2-8.5-17.2-12.4 13.9zm16.2 15.3l20-15.8 10.4 12.6-25.3 14.6-5.1-11.4z"/></g></svg>