<svg xmlns="http://www.w3.org/2000/svg" viewBox="0 0 900 350"><path fill="#DDDDDC" d="M732.973 9.145l-62.885 6.38 54.569 14.81 35.593.353 57.025 4.887 60.151-16.405-106.631-2.278z"/><path fill="#ECECEB" d="M670.088 15.525L738.897.031l48.353 9.657 26.835-3.733 63.341 13.215-81.568 5.013-50.126-10.481z"/><path fill="#DDDDDC" d="M58.363 43.423L15.038 50.32l38.135 11.807 31.504-1.229 32.694 3.871 41.169-15.607-73.812.243z"/><path fill="#ECECEB" d="M15.038 50.32l59.946-10.943 27.787 3.137 23.968-1.541 31.801 8.189-56.284 6.093-34.947-8.115z"/><path fill="#DDDDDC" d="M494.293 108.21l38.007 20.62 57.048.687 116.844 57.735-21.486 64.608-287.472-9.623-128.176-17.87 36.428-46.05 82.478-35.741 58.422 3.437z"/><path fill="#D0CECD" d="M387.964 142.576l10.086 69.907-78.55 12.684-18.667-48.667z"/><path fill="#C4C4C2" d="M414 199l-18.965-5.016-38.253 5.291-5.532 22.225h62zM585.5 228.5l-23-38-39-18-35.833-.333L425 216.5z"/><path fill="#D0CECD" d="M585.5 228.5l-86.277-15.001-11.556-41.332-92.632 21.817 10.132 38.183z"/><path fill="#C4C4C2" d="M610 158l-.72 27.533L592 221l78.623 1.906z"/><path fill="#ECECEB" d="M523.5 172.5l-29.207-64.29L539.5 129zM589.348 129.517l58.594 26.634L645.5 169l-36.22 16.533z"/><path fill="#D0CECD" d="M421.833 145.167L449.5 122l44.793-13.79L523.5 172.5l-35.833-.333zM562.5 190.5l46.78-4.967 22.387 34.3-79.042-7.458z"/><path fill="#A3A1A1" d="M307.5 191.25l49.282 8.025L348.75 235l-51-18.25z"/><g><path fill="#A0CF7F" d="M631.274 220.243l50.69-2.749 31.788 19.932-74.917 9.622z"/><path fill="#99C26B" d="M568.041 217.494l12.887-7.217 42.148 3.098 58.888 4.119-69.247 23.369z"/><path fill="#C0DB8F" d="M508.244 237.598l19.718-22.682 52.966-4.639 9.279 16.496-58.766 15.98z"/><path fill="#D9E259" d="M342.773 311.313l-13.059 38.833 143.478-9.622 81.103 10.31 73.543-4.467 99.489-55.673s-31.96-17.527-34.022-17.011c-2.062.516-115.985-4.639-115.985-4.639l-112.892-11.341-100.005 8.763-21.65 44.847z"/><path fill="#B8C743" d="M373.25 280.083l17.978 12.672 74.231-13.918 219.598 45.878 48.971-52.064-109.799-33.507-209.803 16.496z"/><path fill="#C0DB8F" d="M581.787 251.86l8.42-25.087 123.545 10.653 51.549 22.681z"/><path fill="#A0CF7F" d="M510.306 233.474l79.901-6.701 37.974 17.182-126.122 11.169zM408.24 227.03l-3.609-19.846 94.592 6.315-1.546 30.027z"/><path fill="#C0DB8F" d="M454.118 227.803l-4.296-9.794-45.191-10.825-30.929 3.866 69.075 26.548z"/><path fill="#A0CF7F" d="M424.735 234.247l-5.498-14.863-45.535-8.334-66.24 7.475 101.551 26.032z"/><path fill="#99C26B" d="M510.306 248.165l-1.203-19.331-59.281-10.825-30.585 1.375-3.78 3.265z"/><path fill="#A0CF7F" d="M540.72 253.062l87.461-9.107 95.538 7.905-30.242 24.056-53.955 1.718z"/><path fill="#99C26B" d="M503.433 247.048l23.24-1.46 101.508-1.633 16.152 26.634-46.737-.859-83.166-15.465-10.997-8.591"/><path fill="#C0DB8F" d="M482.985 248.939l-67.528-26.29-89.695-1.031 17.182 23.712 108.597 5.499z"/><path fill="#A0CF7F" d="M509.619 244.643l-20.577-4.21-73.585-17.784-7.561 6.873 83.165 28.867z"/><path fill="#99C26B" d="M424.392 244.127l-16.152-14.605-78.355.086 9.021 35.826z"/><path fill="#6F9D51" d="M486.078 253.836l4.511-6.573-82.693-17.741-60.484 23.54zM625.776 274.197l17.011 17.011 93.303-3.092-52.064-28.868-39.693 11.341z"/><path fill="#738D56" d="M417.003 262.341l79.901-2.577 145.883 31.444 1.546-20.619-146.398-21.65z"/><path fill="#738D56" d="M379.372 308.22l14.795-30.803 102.737-17.653 1.031-10.825-150.523 4.123-40.208 2.578 1.031 45.878z"/><path fill="#D0D354" d="M499.223 213.499l-10.181 26.934 37.631 5.155 1.289-30.672z"/><path fill="#D9E259" d="M489.042 240.433l-23.068 9.279 26.462 7.99 29.984-5.155 4.253-6.959z"/><path fill="#D0D354" d="M465.974 249.712L462.5 265.75l59.92-.316v-12.887z"/><path fill="#E5E97E" d="M593.161 287.625l51.1 11.506 14.89-.564 2.82 1.353-18.274 1.241-54.822-12.746z"/><path fill="#E5E97E" d="M618.675 297.512l26.282 6.317 20.982-1.579 2.707 1.466-24.14 2.256-31.81-8.234zM488.667 263.167l-11.917-1.417-14.25 4-9.083-1.167-11.584 4.75 11.5 1.917 9.334-1.083L497.833 275l25.084-4.083 22.666 3.75 15.667-1-26.583-9.25-8.25.166-4.167-2.916zM489.417 239.375l8.416-.583 7.792 3.083 11.042-.708 10.006 4.421-6.715.579L512.25 244l-8.958.875-9.334-1.875-11.958.208zM540.458 278.667l6.5.5 6.834-.959 2.125.709-8.959 1.416-9.333-1.25z"/><path fill="#E5E97E" d="M534.542 279.875l12.625 2.042 12-1.959 1.791.584-14.125 2.916-14.75-3.125zM405.083 281.583l25.584-4.666 2.25.416-25.834 4.917zM401.083 285.167l27.584-5.417 1.916.667-27.333 5.666z"/></g><g><path opacity=".1" fill-rule="evenodd" clip-rule="evenodd" fill="#2B2B2B" d="M62.201 168.733l14.125-3.368 14.125 3.585-14.45 3.586z"/><path fill="#A3A3A2" d="M67.868 152.448l.043.159.749 2.799 1.583.813-.5-3.646"/><path fill="#CFCECD" d="M68.618 151.615l1.313 4.333 1.645.813-2.354-4.667z"/><path fill="#9B9FA0" d="M74.91 156.323l-6.25-.917 6.187 4.313z"/><path fill="#A3A3A2" d="M75.244 153.034l3.881-.784-2.507 10.122-1.923-3.624z"/><path fill="#9B9FA0" d="M75.693 156.573l3.642 12.6-2.365.98-2.026-9.955z"/><path fill="#858686" d="M75.369 159.771l-.502 2.999-.947 6.534 3.05.849z"/><path fill="#CFCECD" d="M73.868 152.054l.999 10.716 1.668-10.53z"/><path fill="#36795E" d="M85.84 148.557l1.309 2.578-3.388 2.183-9.787-.758-4.02-5.16z"/><path fill="#408F70" d="M70.693 149.187l-3.252-1.104-5.451.552 5.024 5.573 6.96-1.648 4.971-3.946z"/><path fill="#408F70" d="M66.355 141.736l10.707 8.338 11.566 1.753 1.809-3.437z"/><path fill="#55B08B" d="M64.952 143.482l-9.002 1.165 4.444 6.081 16.668-.654-1.238-2.433z"/><path fill="#3F8F6F" d="M80.266 141.07l10.171 7.32 4.208-2.579-.467-2.911z"/><path fill="#5DBA92" d="M76.408 141.736l-.584 5.905 14.613.749-3.858-3.66-4.974-1.464z"/><path fill="#408F70" d="M70.797 141.07l-10.755.25-4.092 3.327 19.874 2.994 10.287-4.741z"/><path fill="#74C7A6" d="M75.356 138.658l11.223 6.072 7.599-1.83-3.858-2.578-3.273-.416z"/><path fill="#55B08B" d="M71.265 138.575l-4.092 1.081-7.131 1.664 26.537 3.41-6.079-6.488z"/><path fill="#88CDAF" d="M74.889 135.415l-7.716 4.241 19.874.25-5.049-3.073z"/><g fill-rule="evenodd" clip-rule="evenodd"><path fill="#55B08B" d="M326.928 155.956l-7.011-.799-3.021 1.676-.478 3.7 3.098.035 10.569-.428z"/><path fill="#919191" d="M333.961 170.154l4.347-1.818.695.423-5.265 4.347z"/><path fill="#C4C4C4" d="M338.308 168.336l1.622-3.825 1.423.063-2.35 4.185z"/><path fill="#A3A1A1" d="M333.141 177.167l-5.098-9.718-.835-5.283 2.129 5.083 2.769 4.016z"/><path fill="#BABAB9" d="M333.04 174.986l-4.338-7.584-1.129-3.33 2.847-1.729-.618 5.017 3.137 4.634z"/><path fill="#A3A3A2" d="M333.395 187.157l-.304-8.266.492-13.945.973-.186 1.78 21.028z"/><path fill="#C4C4C4" d="M333.583 164.946l-1.056.241-.806 21.26 1.674.71z"/><path fill="#36795E" d="M347.088 165.35l-8.085 1.433-6.476-1.596-4.989-1.117-5.276.024-5.844-3.561 11.384-1.015 13.366 2.933 9.824-.534z"/><path fill="#408F70" d="M316.418 160.533l10.31 2.288h14.255l-13.104-4.089zM340.983 162.821l1.705-1.6 6.97-3.692 1.334 4.388z"/><path fill="#36795E" d="M340.983 162.821l8.675-5.292-17.923-1.68-3.933 2.928z"/><path fill="#55B08B" d="M349.658 157.529l-2.137-2.696-18.624-1.751 3.209 3.138z"/><path fill="#408F70" d="M327.802 158.777l4.304-2.557-2.468-2.953-2.488-.832-4.5-.465-2.733 3.187z"/><path fill="#74C7A6" d="M347.521 154.833l-2.208-5.208-12.125-.708 1.625-2.625-7.417 1.666-4.746 4.012 5.467-1.342 1.521 2.639z"/><path fill="#55B08B" d="M329.638 153.267l-1.521-3.195-5.467 1.898z"/><path fill="#88CDAF" d="M334.813 146.292l10.5 3.333-17.196.447z"/></g><g fill-rule="evenodd" clip-rule="evenodd"><path opacity=".1" fill="#2B2B2B" d="M692.064 169.402l14.375-3.428 14.375 3.649-14.706 3.649z"/><path fill="#36795E" d="M698.54 142.609l-3.964 1.34.782 1.675 7.259 2.233s-.614-4.914-.949-4.858c-.336.057-3.128-.39-3.128-.39zM702.672 141.883l10.296-1.55-8.956 7.134z"/><path fill="#919191" d="M705.974 148.986l.882-6.864-2.587.159zM701.55 148.369l-4.295-.958 2.681 2.96 2.349.703z"/><path fill="#A3A3A2" d="M699.936 150.371l-4.713-6.51-2.655-.29 5.944 6.213z"/><path fill="#919191" d="M709.856 168.574l-1.319-11.76-1.068.428-.613.681-1.806 5.931.786 6.507z"/><path fill="#C4C4C4" d="M705.761 170.286l1.095-12.363-.695.177-.273.453-1.818 5.428-1.499 5.475z"/><path fill="#A3A3A2" d="M705.888 158.553l-3.317 10.903-1.334-.364 3.477-9.743.446-.583zM705.827 158.551l-3.256-14.69 1.698-1.58 4.268 14.533z"/><path fill="#CFCECD" d="M705.888 158.553l-3.447-8.328-1.621-5.497 1.751-.867 1.598 4.696 1.35 7.788z"/><path fill="#919191" d="M704.714 159.349l-4.811-14.414.917-.207 2.521 6.877 2.547 6.948z"/><path fill="#408F70" d="M685.689 144.786l9.713-.328 2.372.19 2.304.842 10.736-3.329-14.375-3.875z"/><path fill="#36795E" d="M685.689 144.786l-7.437-2.375 17.833-1.415 29.232-3.884-14.503 5.049-14.729-.79z"/><path fill="#36795E" d="M696.085 141.371l-17.788 1.043 11.124-5.048 10.894-1.058-1.603 2.69z"/><path fill="#55B08B" d="M696.085 141.371l4.23-5.063 7.487.005 17.515.799z"/><path fill="#408F70" d="M678.252 142.411l8.396-8.775 7.404 1.073 6.263 1.599z"/><path fill="#74C7A6" d="M686.648 133.636l13.667 2.672 25.002.804-5.068-2.695-16.055-2.851z"/><path fill="#408F70" d="M706.173 130.41l6.264-1.077 5.523 4.646-13.766-2.039z"/><path fill="#54B08B" d="M712.437 129.333l-8.243 2.607-22.756 7.156 3.257-8.062 15.848-1.346z"/><path fill="#74C7A6" d="M684.695 131.034l16.672-4.137 11.198 2.423z"/><path fill="#408F70" d="M699.689 142.224l.389 3.266-4.675-1.031z"/></g></g><g><path fill="#D0CECD" d="M362.333 202l-1.583 11.75 2.5 15.875-23.375 7.875-7.625-32.75z"/><path fill="#DDDDDC" d="M352.75 187.5l29.417-.667-21.417 26.917-18.375-5.125 3.125-19.875z"/><path fill="#C4C4C2" d="M340 203.75l2.375 4.875-2.5 28.875-23.75 4.5-10-36.5z"/><path fill="#D0CECD" d="M346.781 193.125l-4.406 15.5-132.5 7.125L334.5 190.5z"/><path fill="#A3A1A1" d="M157.455 209.246l4.639 37.115 62.374-28.094-7.99-22.424z"/><path fill="#A8A7A7" d="M146.887 178.059l4.897 40.723 60.57-9.021 3.093-22.681z"/><path fill="#B3B3B3" d="M148.949 153.831l17.527 43.043 13.66-1.976 36.342-28.18-4.124-10.567z"/><path fill="#C4C4C2" d="M169.569 156.666l9.278 10.997-12.371 29.211-49.309-2.374-4.302-21.167z"/><path fill="#A0CF7F" d="M160.462 154.948l-6.874-5.327 47.769.859 6.186 24.056-15.809-13.059z"/><path fill="#A8A7A7" d="M81.42 180.378L67.25 227.5l-3.75 42.667 93.181-20.713-30.413-59.281-27.579 8.248z"/><path fill="#B3B3B3" d="M111.383 157.149l-6.315 27.579-6.895 48.746 56.446 6.701-20.119-48.508-9.833-17.5z"/><path fill="#C4C4C2" d="M70.595 176.512L60.5 199l5 14.25 1.75 14.25 31.75 4 13.865-58.167z"/><path fill="#B3B3B3" d="M95.854 165.172L39.167 170.5 65.5 213.25l28.292-16.376 4.041-14.041z"/><path fill="#C0DB8F" d="M110.287 158.9l-6.701-3.093 50.002-6.186 59.282 14.434-34.023 3.608z"/><path fill="#ABABAB" d="M670.623 222.906l-1.804 25.259 15.722 11.255 53.869 1.375-24.228-26.806z"/><path fill="#ABABAB" d="M665.211 220.587l-2.062 25.516 21.392 13.317 11.513-17.441-12.286-20.877z"/><path fill="#BCBCBC" d="M648.973 195.585l-2.32 9.537 18.3 32.991 7.474 5.671 5.843-9.537.859-23.712z"/><path fill="#B3B3B3" d="M642.959 227.116l10.997 28.524 30.585 3.78-38.146-55.673z"/><path fill="#C4C4C2" d="M633.336 206.153l.344 18.214-5.842 19.588 26.118 11.685-7.561-51.893z"/><path fill="#B3B3B3" d="M635.055 178.66l-25.775 6.873 24.4 38.834 18.214-27.149z"/><path fill="#C4C4C2" d="M668.046 175.567l-30.242 11.685 8.849 17.87 35.826 11.684-3.093-39.864z"/><path fill="#BCBCBC" d="M758.428 228.491l13.231-16.668 17.526-8.763 17.699 31.273-48.112 1.718-.344-7.56"/><path fill="#A8A7A7" d="M824.239 221.102l-1.16 22.231 12.5 30.864-39.177 3.609 10.482-43.473z"/><path fill="#B3B3B3" d="M811.695 188.283l37.803-10.482-27.321 64.952-15.293-8.42-17.699-31.273z"/><path fill="#8BAF5E" d="M789.185 203.06l60.313-25.259-101.998 2.366z"/><path fill="#DDDDDC" d="M769.833 195.333l19.352 7.727-19.588 28.352-27.836-6.702 5.67-20.619z"/><path fill="#DDDDDC" d="M740.214 200.483l20.276 8.076 28.695-5.499-15.464-9.794-14.971-8.891z"/><path fill="#BCBCBC" d="M749.493 174.708l-5.155 32.991 13.231 15.809-19.932 20.791-29.899-12.887 12.372-40.208z"/><path fill="#C4C4C2" d="M680.417 190.001l-2.147 44.246 17.612 7.818 23.713-32.819-31.273-24.4z"/><path fill="#C4C4C2" d="M688.322 184.846l4.123 11.685 14.005 25.86 9.021-4.21 3.78-35.397-26.118-7.904z"/><path fill="#BCBCBC" d="M714.053 213.756l-7.603 8.635-10.568 19.674 27.837 9.795 11.083-9.494-7.303-8.72z"/><path fill="#C4C4C2" d="M713.065 177.629l14.777 35.741 29.727 10.138 9.107-41.067z"/><path fill="#DDDDDC" d="M706.45 222.391l21.049 11.255-.344-13.747-7.904-37.115-6.744 4.554z"/><path fill="#DDDDDC" d="M725.437 174.193l2.405 18.557-.687 27.149-17.527-39.177-7.904-6.186zM690.384 175.052l-13.403 13.918 1.289 45.277 27.235-46.308-9.279-9.107z"/><path fill="#DDDDDC" d="M725.437 174.193l-51.205-1.031 2.749 15.808 15.464 7.561 15.121-18.214z"/><path fill="#A0CF7F" d="M647.942 156.151l57.047 1.202 66.842-5.498 9.966-1.031 40.38 5.584 2.319 21.135-55.329 10.957-41.325 4.25z"/><path fill="#C0DB8F" d="M647.942 156.151l57.047 1.202 44.678-4.02-26.464 19.829 4.639 19.588z"/><path fill="#8BAF5E" d="M647.942 156.151l-24.357 18.171 83.122 15.593 25.517-11.341-9.021-5.412z"/><path fill="#99C26B" d="M826.301 178.317l11.169-7.217-15.293-14.692-98.974 16.754-5.327 9.279 63.062 3.608z"/><path fill="#76A557" d="M727.842 192.75l61.343 10.31-20.018-14.56z"/><path fill="#A0CF7F" d="M783.167 179l54.303-7.9 12.028 6.701-80.165 10.741z"/><path fill="#99C26B" d="M714.44 184.846l3.436-2.405 66.291-2.608-15 8.667-41.325 4.25z"/><path fill="#8BAF5E" d="M623.585 174.322l-14.305 11.211 118.562 7.217-4.639-19.588z"/><path fill="#99C26B" d="M39.167 170.5l36.5-5.167 27.919-9.526 75.261 11.856-81.014 15.17z"/><path fill="#A0CF7F" d="M279.5 175.5l44.5 2 32.833 6.667 25.334 2.666-35.292 6.292z"/><path fill="#99C26B" d="M279.5 175.5l26-1.333L324 177.5l22.875 15.625-38.708 6.708z"/></g><g><path opacity=".1" fill-rule="evenodd" clip-rule="evenodd" fill="#2B2B2B" d="M126.057 157.617l13.803-3.291 13.803 3.503-14.122 3.504zM755.535 173.914l23.689-5.649 23.69 6.013-24.236 6.014z"/><path fill="#CFCECD" d="M804.132 117.71l-5.367 16.473 4.745-2.37 4.43-10.392z"/><path fill="#A3A3A2" d="M807.568 117.589l-7.098 15.63-1.705.964 4.285-17.146z"/><path fill="#858686" d="M778.619 138.907l24.891-7.094-24.891 14.188z"/><path fill="#A3A3A2" d="M776.313 125.886l10.995-2.606-7.104 33.654-5.447-12.051z"/><path fill="#9B9FA0" d="M777.586 137.653l10.375 37.474-7.601 2.872-4.896-28.295z"/><path fill="#858686" d="M776.667 148.286l-1.423 9.969-4.52 16.872 9.636 2.872z"/><path fill="#CFCECD" d="M772.415 122.628l2.829 35.627 4.468-32.803z"/><path fill="#36795E" d="M804.897 113.135l6.382 8.877-25.305 7.151-9.624-4.197-7.825-14.97z"/><path fill="#408F70" d="M770.217 114.848l-7.444-2.997-21.808 4.101 31.788 11.35L777.73 124l11.381-10.709z"/><path fill="#408F70" d="M760.284 94.622l24.515 22.631 26.48 4.759 12.317-7.574z"/><path fill="#55B08B" d="M757.073 99.363l-13.541 3.536-2.567 13.053 43.834 1.301-2.835-6.602z"/><path fill="#3F8F6F" d="M792.135 92.816l23.286 19.866 8.175 1.756.39-16.655z"/><path fill="#5DBA92" d="M783.303 94.622l-1.339 16.029 41.632 3.787-17.008-11.689-11.387-3.974z"/><path fill="#408F70" d="M770.455 92.816l-24.624.677-2.299 9.406 38.432 7.752 23.554-12.868z"/><path fill="#74C7A6" d="M780.894 86.269l25.694 16.48 17.398-4.966-8.833-6.999-7.494-1.128z"/><path fill="#55B08B" d="M771.526 86.044l-9.368 2.934-16.327 4.515 60.757 9.256-13.918-17.608z"/><path fill="#88CDAF" d="M783.613 80.955l13.108 9.327 10.938-.626-11.559-8.341z"/><path fill="#74C7A6" d="M779.823 77.465l-17.665 11.513 34.563 1.304-.621-8.967z"/><g fill-rule="evenodd" clip-rule="evenodd"><path fill="#55B08B" d="M127.188 102.789l-12.702-1.447-6.339 9.739 5.614.063 19.146-.775z"/><path fill="#919191" d="M139.93 128.511l7.876-3.294 1.258.767-9.538 7.875z"/><path fill="#C4C4C4" d="M147.806 125.217l2.937-6.928 2.579.114-4.258 7.581z"/><path fill="#A3A3A2" d="M138.445 141.216l-15.216-26.623 2.72 1.013 10.62 14.917z"/><path fill="#CFCECD" d="M138.261 137.265l-15.032-22.672 2.72-.665 12.128 17.917z"/><path fill="#A3A3A2" d="M138.904 159.315l-.551-14.976.892-25.263 1.763-.338 3.225 38.097z"/><path fill="#C4C4C4" d="M139.245 119.076l-1.913.437-1.46 38.516 3.032 1.286z"/><path fill="#36795E" d="M163.712 119.808l-14.648 2.597-11.732-2.892-9.039-2.024-9.559.043-10.587-6.451 20.625-1.838 24.215 5.312 17.798-.966z"/><path fill="#408F70" d="M108.147 111.081l18.679 4.145h25.825l-23.74-7.407zM152.651 115.226l3.089-2.898 12.627-6.69 2.418 7.951z"/><path fill="#36795E" d="M152.651 115.226l15.716-9.588-32.469-3.042-7.126 5.304z"/><path fill="#55B08B" d="M168.367 105.638l-11.301-7.72-26.311-.336 5.814 5.685z"/><path fill="#408F70" d="M128.772 107.9l7.797-4.633-4.471-5.349-4.508-1.508-8.152-.842-4.952 5.774z"/><path fill="#74C7A6" d="M157.066 97.918l-6.197-10.081-18.375 2.204-2.665-4.042-10.391 9.569 9.905-2.432 2.755 4.782z"/><path fill="#55B08B" d="M132.098 97.918l-2.755-5.789-9.905 3.439z"/><path fill="#88CDAF" d="M129.829 85.999l21.04 1.838-21.526 4.292z"/></g><path fill="#E5E97E" d="M396.333 328.667l-22.166 3.166-14.5 8.834 6 .166 10.666-6.5 23.834-3.833zM373.75 340.75l6.917-4.083 29.583-4.917 2.917.917-30.584 5.916-5.166 2.334z"/></g><g><path fill="#C4C4C2" d="M36.32 283.385l21.013-.718.251 26.879-23.455 12.501-7.604-31.445z"/><path fill="#A3A1A1" d="M25.108 284.932l-17.011.386L.167 315.5l33.962 6.547 2.32-32.218z"/><path fill="#C0DB8F" d="M40.83 280.55l-32.733 4.768 28.352 4.511 21.384-7.162z"/><path fill="#C4C4C2" d="M874.757 272.995l8.935-1.891 15.808 23.541-17.183 8.076-7.389-21.135z"/><path fill="#A3A1A1" d="M876.131 274.197l2.406 6.186 3.78 22.338-8.076.344-24.743-.344v-18.214l12.028-9.622z"/><path fill="#DDDDDC" d="M853.278 268.355l30.414 2.749-5.155 9.279-38.49-1.202z"/><path fill="#C4C4C2" d="M767.363 232.615l39.521 1.718 8.591 39.864-62.545 1.375z"/><path fill="#A3A1A1" d="M758.428 228.491l-30.929 5.155-4.296 18.214 59.281 30.929v-45.363z"/><path fill="#C4C4C2" d="M827.847 269.558l28.867-4.639.516 49.486-67.529 7.217 8.763-43.301z"/><path fill="#A3A1A1" d="M810.32 276.259l11.341 5.155-.687 45.707-59.109-21.994-6.186-26.806 27.836-5.155z"/><path fill="#99C26B" d="M751.039 278.321l70.622 3.093 35.053-16.495-94.506 3.436z"/><path fill="#C4C4C2" d="M802.073 298.425l72.168 4.64 8.248 30.156-94.335 16.753-14.433-30.414zM732.74 265.176l36.341-5.412 4.382 52.322-44.074 15.379-27.063-61z"/><path fill="#A3A1A1" d="M725.265 261.482l-40.552-2.062-8.439 49.186.191 14.735 31.273 4.585 21.651-.461-9.623-52.237z"/><path fill="#C4C4C2" d="M658.512 322.353l44.152-13.375 5.074 18.948-37.553 21.919zM137.093 199.452l29.383-2.578 6.185 73.715-55.157 4.124 5.155-71.653z"/><path fill="#8F8F8F" d="M126.268 197.905l-32.476-1.031-4.897 79.901 53.353 21.135 1.031-60.57-7.733-29.125z"/><path fill="#C4C4C2" d="M100.493 245.33l19.589-1.031 5.155 32.991-16.496 31.445h-20.62l3.093-52.58z"/><path fill="#A09F9F" d="M87.606 249.969L54.5 253l-4.25 63.25 51.79-3.906-1.547-55.158z"/><path fill="#A3A1A1" d="M130.22 283.476l-90.039 19.589 1.031 31.616 89.008 15.465 50.861-48.8z"/><path fill="#C4C4C2" d="M196.202 295.848l-32.991 46.05-32.991 8.248 1.776-27.813 44.274-30.609z"/><path fill="#A3A1A1" d="M280.055 320.591l-35.053 28.868-81.791-7.561 11.119-29.186 100.914-2.43z"/><path fill="#C4C4C2" d="M242.94 293.786l1.945 33.679.117 21.994 127.153-21.651 44.676-8.591-22.496-41.783-126.863 13.702z"/><path fill="#A3A1A1" d="M664.095 316.78l-34.002 10.031-4.059 20.434 44.151 2.6 4.567-21.177z"/><path fill="#DDDDDC" d="M676.274 308.606l-46.181 18.205 44.659 1.857 27.912-19.69zM175.613 253.06l218.722 24.374-149.45 50.031-70.555-14.753-42.334 9.621-91.815-19.268 85.056-25.775z"/><path fill="#A3A1A1" d="M335.814 291.208l21.65-1.288 15.036 37.997-42.786 22.229-21.737-35.741 3.866-19.33z"/><path fill="#8F8F8F" d="M287.615 299.199l-15.722 2.835-3.866 43.043 61.687 5.069-11.943-47.081z"/><path fill="#C4C4C2" d="M295.348 285.366l62.116 4.554-39.693 13.145-45.878-1.031z"/><path fill="#A3A1A1" d="M161.836 236.567l-18.557.773-18.042 39.95 41.754 5.155 28.868-44.332z"/><path fill="#CFCECA" d="M146.75 276.629L168 274.25l-1.25 26.353-20.833 11.855-20.959-27.444z"/><path fill="#B5B5B6" d="M102.875 271.857l-11.75-2.482-4.375 30.793 59.167 12.29-10.459-29.86z"/><path fill="#99C26B" d="M91.125 269.375L123.5 265l44.5 9.25-32.542 8.348z"/><path fill="#C4C4C2" d="M180.394 237.34l-8.506 5.928-4.897 39.177 76.035-20.362-30.93-38.146z"/><path fill="#DDDDDC" d="M206.426 219.813l-63.147 17.527 28.609 5.928 52.58-16.495z"/><path fill="#C0DB8F" d="M93.792 196.874l40.708-5.207 31.976 5.207-30.93 11.341z"/><path fill="#99C26B" d="M54.5 253l36.199-13.34 29.383 4.639-19.589 12.887z"/><path fill="#DDDDDC" d="M684.713 259.42l38.49-7.56 45.878 7.904-49.315 15.464z"/><path fill="#A3A1A1" d="M775.267 310.797l-36.599-1.031-3.609 27.321 53.095 12.887 1.031-24.228z"/><path fill="#99C26B" d="M821.318 293.099l-82.65 16.667 50.517 15.98 85.056-22.681z"/><path fill="#C0DB8F" d="M756.882 223.508l50.002 10.825-24.4 3.093-54.985-3.78z"/></g><g><path fill="#6F9D51" d="M567.999 57.167l-13.666.5-2.834 11.999 27.417.709z"/><path fill="#74C7A5" d="M583.999 57.667L575.666 47l-21.333 10.667L581.166 71.5z"/><path fill="#54B08B" d="M597.833 70.833l-3.334-20.416L575.666 47l4.723 34.11z"/><path fill="#99C26B" d="M628.666 96.5l1.333 9.5 19.625 13.625 2.804-3.017-7.929-19.942zM589.624 102.625l-3.75 8.75 14.125 10.125 4.25-1.084-5.375-15.916z"/><path fill="#3F8F6F" d="M590.249 81.375l-3.75 10-.625 20 19.375-7.125z"/><path fill="#54B08B" d="M642.359 81.771l17.888 16.708 42.919-4.146z"/><path fill="#54B08B" d="M606.111 101.877l8.213 2.832 23.362 1.841 12.036-13.735-6.797-16-46.176-.482z"/><path fill="#B8C743" d="M681.666 88.833l39.833-9.167-18.333 14.667z"/><path fill="#54B08B" d="M634.949 75.447l24.401 11.138 43.816 7.748L643.666 72z"/><path fill="#B8C743" d="M620.223 53.736l-.755-11.327 43.365-3.242-37.04 30.427z"/><path fill="#AEB642" d="M599.834 79.223l3.965-10.667 15.669-26.147 25.864 27.374-37.333 8.842z"/><path fill="#6F9D51" d="M614.249 104.75l-5.182-3.075-6.354 14.078L621.499 121l4.167-4.667zM642.359 94.373l-4.673 12.177 30.563 8.825 1.434-4.206-9.436-12.69z"/><path fill="#3F8F6F" d="M639.102 83.046l-1.416 23.504 22.561-8.071-.897-11.894z"/><path fill="#74C7A5" d="M593.651 86.868l-1.085 15.009 10.147 13.876 11.611-11.044-6.325-26.084z"/><path fill="#54B08B" d="M594.454 69.972L580.389 81.11l12.177 20.767 15.433-23.252 13.875-10.25-15.763-3.642z"/><path fill="#37785E" d="M594.499 50.417l-14.11 30.693 25.817-16.235z"/><path fill="#B8C743" d="M648.353 64.686l10.997 21.899-51.351-7.96z"/><path fill="#D9E259" d="M607.999 78.625l29.971-30.742 41.722 17.369z"/><path fill="#37785E" d="M573.499 57.781c0 1.812-1.469 3.281-3.281 3.281s-3.281-1.469-3.281-3.281 1.469-3.281 3.281-3.281 3.281 1.469 3.281 3.281z"/></g><g><path opacity=".1" fill="#2B2B2B" d="M303.424 287.772l-8.176-2.272-21.293 15.116-66.756 15.164 36.772 5.327 26.392-2.127 1.53-16.946 35.655-1.031 25.087-3.78-17.527-3.437z"/><path fill="#FEE5D6" d="M330.041 79.063l2.145-8.367 11.8-10.942 6.437 9.869-4.935 13.088z"/><path fill="#F5CBB3" d="M318.884 91.293l14.61-.609 11.994-7.973-13.302-12.015-7.938 8.367z"/><path fill="#FEE5D6" d="M315.452 95.798l5.928-11.558-.565-8.18 8.368-9.44 2.145 2.789-3.218 6.222 1.716 7.723-10.298 14.804z"/><path fill="#387A5E" d="M217.326 272.981l79.256.109 48.449-20.756-51.453-90.51-75.598 9.724-12.235 25.781-1.42 72.047z"/><path fill="#52B08A" d="M201.43 201.262l-3.714 94.879 23.706 20.756-10.16-124.647-10.925-11.471z"/><path fill="#F5CAB4" d="M192.527 225.105l1.802 14.2-3.332 4.484-6.281-7.1z"/><path fill="#F5CAB4" d="M186.246 235.101l2.403 8.411-.055 12.727-6.336-2.786-9.231-15.458z"/><path fill="#59763E" d="M265.939 146.967l27.147 15.076-12.781 45.064-38.454 9.231-17.971-19.993-5.08-10.979-15.677-18.953z"/><path fill="#73C7A4" d="M245.947 154.014l3.332 6.664-6.391 5.844-32.008-.109-7.592-3.278-1.639-12.344 15.24-9.341 15.621-.983z"/><path fill="#333" d="M197.716 140.14l-18.189-8.794 1.257-17.644 12.398 2.076z"/><path fill="#73C7A4" d="M245.947 154.014l12.4 3.495 16.605-11.416 1.529-26.874-23.051 8.412-22.504 15.84z"/><path fill="#97C16B" d="M261.241 179.795l-11.908-8.521-6.445-4.752 15.622-9.45 12.618 1.366z"/><path fill="#D8E259" d="M258.51 157.072l-3.113 12.563-12.509-3.113 3.059-12.508z"/><path fill="#728C57" d="M261.241 179.795l31.845-17.752-12.781 45.064-16.223 13.218-23.98 13.328-10.869-14.038-5.353-23.27z"/><path fill="#59763E" d="M266.211 203.774l7.265 10.706 22.723-3.386-3.113-49.051-31.845 17.752z"/><path fill="#728C57" d="M258.51 157.072l2.731 22.723 34.303-19.172-5.407-6.227.218-16.059-13.874-19.118z"/><path fill="#52B08A" d="M210.88 166.413l-9.231-15.622-9.723 15.567 9.341 8.685z"/><path fill="#97C16B" d="M201.649 198.579l-9.122 26.526-7.92 5.242-4.37-7.592-.164-27.911 13.218-13.383z"/><path fill="#728C57" d="M218.8 185.366l-17.151 13.213-21.576-3.735 11.853-28.486 18.954.055z"/><path fill="#F5CAB4" d="M252.763 281.042l-7.973 25.64-4.151 4.206-10.433-5.735.248-32.209 19.543 4.009zM297.324 264.307l-2.076 21.193 5.899 8.248 7.265-7.101 14.147-31.517-20.702 1.857z"/><path fill="#FEE5D6" d="M295.248 285.5l13.492.218 13.655 10.87-8.739.875-20.101-.164z"/><path fill="#F5CAB4" d="M313.656 297.463l11.253-6.609-1.257 6.772z"/><path fill="#FEE5D6" d="M244.79 306.682l.055 11.253-24.581-.82 9.942-11.962z"/><path fill="#F5CAB4" d="M220.264 317.115l12.345-7.046 12.236 7.866z"/><path fill="#C3927D" d="M230.454 272.944l22.309 8.098 2.826-7.998zM297.324 264.307l25.235-9.177h-24.252z"/><path fill="#5B763E" d="M276.481 119.219l13.656 35.177 25.864-35.395-1.23-19.446-18.926 9.013z"/><path fill="#97C16B" d="M321.38 84.24l-25.535 24.328 20.156 10.433 17.493-28.317z"/><path fill="#FEE5D6" d="M180.237 222.755l-7.21 15.24 15.622 5.517 3.878-18.407z"/><path fill="#73C7A4" d="M290.137 154.396l2.84-4.37 55.441 102.854-13.273 34.794z"/><path fill="#D8E259" d="M238.081 219.615h-8.848l1.221 53.329 25.135.1 10.35-31.799 14.224 2.836-6.687-29.601z"/><path fill="#B6C641" d="M296.199 211.094l-22.723 3.386-7.537 26.765 31.703 19.192 24.917-5.307z"/><path fill="#97C16B" d="M273.476 214.48l-7.265-10.706-3.713 12.29z"/><path fill="#FEE5D6" d="M255.178 121.459l-13.601 16.823 4.37 15.732-29.058-12.564-4.917-34.466-9.996-19.773-1.256-25.618 27.693-16.114 25.454 2.896 5.681 5.571 19.446 58.172z"/><path fill="#F5CAB4" d="M196.241 100.211l20.648 41.239 29.058 12.564 3.332-11.635-15.349-13.328-20.865-54.567-4.588-5.025-6.828 17.151z"/><path fill="#858686" d="M221.313 44.278l30.752-21.522-12.399-2.621-61.122 27.912 16.768 12.016z"/><path fill="#333" d="M262.225 44.77l.273 6.773 16.496 12.891-9.723 18.571-9.723-29.059-5.353-5.517 2.295-4.697z"/><path fill="#FFF1E9" d="M256.271 90.488l-7.593 2.841-9.285-24.089 7.592-2.84z"/><path fill="#C3927D" d="M256.271 90.488l-2.076 4.151-5.517-1.31zM203.014 113.648l8.958-6.664-3.605 17.424z"/><path fill="#474749" d="M220.876 72.9l3.55 1.584 5.517-6.937h5.516V66.4l-6.062-1.529zM245.51 62.413l1.475 3.987 5.517-6.992 4.206.492v-.874l-5.572-1.967z"/><path fill="#F5CAB4" d="M224.426 74.484l21.467 11.58-6.5-16.824-3.934-1.693h-5.516zM251.464 77.925l5.244-18.025-4.206-.492-5.517 6.992z"/><path fill="#C3927D" d="M244.404 104.072l19.351-6.811-.409 10.96-11.786 4.149zM249.279 142.379l5.899-20.92-26.983 9.668z"/><path fill="#858686" d="M259.548 53.946l2.677-9.176 16.769 19.664z"/><path fill="#505353" d="M269.653 59.408l-.382 23.597 2.841 8.576 6.882-27.147z"/><path fill="#FAD8C7" d="M203.014 113.648l8.958-6.664-10.214-20.538-7.319 9.996z"/><path fill="#C3927D" d="M198.426 97.643l3.277-4.205 4.315 9.395z"/><path fill="#E8BCA5" d="M223.607 62.467l33.101-11.47-2.513-2.568z"/><path fill="#333" d="M171.224 98.736l23.816 23.651 2.676 17.753 19.173 1.31-22.45-45.008-6.664-8.849z"/><path fill="#474749" d="M171.224 98.736l31.79 14.912-5.298 26.492zM221.368 108.841l-15.732-32.172 2.841-7.21-3.551-15.295-26.382-6.117-7.32 50.689 23.215-2.294 7.21-9.832 13.055 25.89z"/><path fill="#858686" d="M275.935 76.669l3.987 10.269-4.643 14.147-3.167-9.504z"/><path fill="#717375" d="M252.065 22.756l-14.038 25.072-29.55 21.631-29.933-21.412z"/><path fill="#858686" d="M252.065 22.756l-43.588 46.703 59.264-27.257z"/><path fill="#B6C641" d="M274.952 186.404l-2.732 5.245-5.298-2.677 2.731-5.353zM278.994 203.719l-2.732 5.354-5.297-2.786 2.675-5.298z"/><path fill="#2B2B2B" d="M255.561 67.328c-1.748 0-3.223 1.475-3.223 3.223 0 1.802 1.475 3.222 3.223 3.222 1.803 0 3.223-1.42 3.223-3.222-.001-1.748-1.421-3.223-3.223-3.223zM234.531 74.921c-1.803 0-3.223 1.474-3.223 3.222 0 1.803 1.42 3.223 3.223 3.223 1.802 0 3.223-1.42 3.223-3.223 0-1.748-1.42-3.222-3.223-3.222z"/><path fill="#A4B23C" d="M229.233 219.615l36.706 21.63 30.26-30.151z"/><path fill="#FFF" d="M248.193 104.914l13.529-4.871v3.848l-11.064 3.849z"/></g><g><path fill="#3F8F6F" d="M352.996 38.104l15.895-12.372 18.815 12.887-33.421 3.695z"/><path fill="#B8C743" d="M359.462 53.891l2.727 5.52-8.978 6.851 4.768-9.729-8.698 5.992 6.121-10.439z"/><path fill="#37785E" d="M370.265 55.458l-8.076 3.953-13.402-9.107 14.605-3.437 9.794 3.265z"/><path fill="#54B08B" d="M373.186 50.132l28.868 18.214-39.865-8.935z"/><path fill="#3F8F6F" d="M353.426 39.307l18.343.73 1.417 10.095-24.399.172-2.744-6.61z"/><path fill="#54B08B" d="M338.649 37.245l5.026-6.358 30.027 7.861-27.665 5.026-6.701-6.186"/><path fill="#3F8F6F" d="M334.868 41.884l2.406.859 8.763 1.031-2.363-12.887s-5.37 0-5.885.516c-.516.515-6.186 8.763-6.186 8.763l3.265 1.718z"/><path fill="#54B08B" d="M332.291 39.994l1.375-4.296 4.209-10.739 22.768 1.374-16.968 4.554z"/><path fill="#B8C743" d="M333.666 35.698l-3.265 6.702 6.873.343z"/><path fill="#37785E" d="M343.46 37.239c0 1.302-1.055 2.357-2.357 2.357-1.302 0-2.357-1.055-2.357-2.357s1.055-2.357 2.357-2.357c1.302 0 2.357 1.055 2.357 2.357zM369.105 40.466l19.46-9.407-15.894 17.097-18.386-5.842z"/><path fill="#74C7A5" d="M389.682 29.341L354.5 42.228l45.75 7.045z"/></g></svg>