<svg xmlns="http://www.w3.org/2000/svg" viewBox="0 0 900 350"><path fill="#A3A1A1" d="M468.5 74.167l39.25-28.917 28.113-22.979 361.97 18.562L892.5 268.5l-347-35-65.667-58z"/><path fill="#5EC0D9" d="M468.5 74.167l39.333-53.334 391.334-20-1.334 40L507.75 45.25z"/><path fill="#D0CECD" d="M2.5 35.75l204.032-17.272L507.75 45.25l2.75 153.25-150.667 33-346.666 29.333z"/><path fill="#75CFE3" d="M.5.167l507.333 20.666-.083 24.417L2.5 35.75z"/><path opacity=".1" fill="#2B2B2B" d="M849.833 314.167l-136-16.667-58.966 11.562 58.966-16.895-242-33.334L547.5 222l-35.667-29.833L.5 318.5l157 31 159.5-30L508.5 350l83.024-22.789L738.5 349.5z"/><g fill-rule="evenodd" clip-rule="evenodd"><path fill="#8F8F8F" d="M118.333 144.417l-43.5-27.167-14.333 9.667 20.5 120.5 89.333-.5z"/><path fill="#A3A1A1" d="M150.833 129.917l-19-17.5-57 4.833 18.5 107.667 91.5-1.5z"/><path fill="#8F8F8F" d="M254.042 135.458l-43.5-27.166-11.667 9.5 21 120 86.167.166z"/><path fill="#A3A1A1" d="M286.542 120.958l-19-17.5-57 4.834 22 106.333 88-.167z"/><g><path fill="#8F8F8F" d="M360.75 125.125L317 100.75l-10.75 7 24.417 120.083 82.083-.208z"/><path fill="#A3A1A1" d="M393.25 110.625L375.25 96 317 100.75l22.25 103.542 88-.167z"/></g></g><g fill-rule="evenodd" clip-rule="evenodd"><path fill="#29788C" d="M156.952 299.361l-15.938 8.665 10.731 4.632 23.545-.37v-4.262z"/><path fill="#308FA6" d="M128.424 302.832l-9.3 9.826v4.167h32.405l.216-4.167z"/><path fill="#1F7678" d="M188.438 136.646L214.25 190l-35.5 6.5z"/><path fill="#505354" d="M188.663 231.29l-37.805 5.1-1.198 10.417-11.619 25.854 3.834 18.123-.213 5.821 18.109-7.767z"/><path fill="#707274" d="M188.663 231.29l-37.805 5.1-14.081 10.363 8.437 25.166 25.875-5.625z"/><path fill="#308FA6" d="M159.771 288.838l15.519 19.188h-34.276l.861-17.242z"/><path fill="#1F7678" d="M105.616 141.512l-21.345 33.301 23.856 26.491 1.366-17.363z"/><path fill="#349496" d="M167.384 131.288l21.054 5.358.225 94.644-40.362 6.859-42.685-6.431.355-64.135-.355-26.071 31.488.467z"/><path fill="#ECECEB" d="M105.616 141.512l22.221-12.361 36.601-3.838 24 11.333-29.834 32.333z"/><path fill="#505354" d="M188.663 231.29l-30.61 12.181-14.172 5.636-19.273-2.336-18.992-15.053z"/><path fill="#707274" d="M149.66 246.807l-7.785 43.977-7.172 8.804-15.579-1.156-13.508-66.714z"/><path fill="#8F8F8F" d="M149.66 246.807l-4.446 25.112-31.77-1.54-7.828-38.661z"/><path fill="#3AA0BA" d="M119.124 298.432v14.226h32.621l-9.87-21.874z"/><path fill="#747575" d="M166.604 40.479l-3.166-13.333 33.333 8.333 11.5 20-28.833 14.834z"/><path fill="#858686" d="M139.771 43.813l-2-7.834 25.667-8.833 33.333 35.5-24.167 1z"/><path fill="#FEE5D6" d="M208.271 55.479l-10.75 67.667-24.25.167-26.816 10.781-10.571-28.707-11.93-31.492 33.252-28.502 28.565 14.42z"/><path fill="#F6CBB4" d="M134.534 46.83l22.672-1.437-7.574 73.729 25.534 2.272-28.791 19.396-18.538-11.639-2.652-27.273 1.895-7.279-2.348-3.538-.778-17.166z"/><path fill="#C3937D" d="M149.632 119.122l-11.303.094 8.046 21.574 10.031 5.785 14.865-20.846 26.25-2.583z"/><path fill="#505354" d="M147.157 57.442l-2.32 27.234-5.579-.342-.138-10.891-15.166.452 5.182-27.448z"/><path fill="#C3937D" d="M133.57 92.612l-8.385 9.266-.456-10.438zM135.225 86.93l-.651-8.773-5.789-.02z"/><path fill="#747575" d="M157.206 45.393l-19.435-9.414-8.635 10.468 18.021 10.995z"/><path fill="#F6CBB4" d="M170.104 75.063l-8.687.104L174 98.792l4.854-5.313 4.084 4.75 15.916-18.562-4.666-2.021-6.959.958-1.187 3.688-4.854 5.354-5.271-7.104-.625-3.625z"/><path fill="#505354" d="M162.104 72.292l13.875 1-.687 3.625-13.875-1.75zM187.229 78.604l.375-3.625 11.688 2-.438 2.688z"/><path fill="#2B2B2B" d="M174.313 84.677c0 1.64-1.329 2.969-2.969 2.969s-2.969-1.329-2.969-2.969 1.329-2.969 2.969-2.969 2.969 1.329 2.969 2.969zM195.188 86.615c0 1.64-1.329 2.969-2.969 2.969s-2.969-1.329-2.969-2.969 1.329-2.969 2.969-2.969 2.969 1.329 2.969 2.969z"/><path fill="#F6CBB4" d="M176.792 105.917l14.271 6.812-15.271.313-15.979-4.229z"/><path fill="#4F5353" d="M177.229 100.521L174 98.792l-14.187 10.021 31.25 3.916-7.125-12.812z"/><g><path fill="#494749" d="M181.5 95.917l2.438 4-6.313 2.562L174 98.792z"/><path fill="#FFF1E9" d="M186.042 82.292l-2.104 17.625L174 98.792l1.917-18.25z"/></g></g><path fill-rule="evenodd" clip-rule="evenodd" fill="#747474" d="M435.792 61.708l8.666 3.209-11.75 19-8.416 2.416z"/><path fill-rule="evenodd" clip-rule="evenodd" fill="#858686" d="M423.417 50.208l2.25-10.25 18.791 24.959-8.291 3.064-11.5-1.148z"/><path fill-rule="evenodd" clip-rule="evenodd" fill="#747474" d="M393.792 50.833l1.5-16.125 30.375 5.25 4.346 20.957-8.721 9.918z"/><path fill-rule="evenodd" clip-rule="evenodd" fill="#9B9FA0" d="M367.167 59.708l-3-13.75 31.125-11.25 24.75 31.875-42.125.625z"/><path fill-rule="evenodd" clip-rule="evenodd" fill="#308FA6" d="M370.677 269.143l8.626 3.565.115 3.911-25.533-.23-.086-3.853z"/><path fill-rule="evenodd" clip-rule="evenodd" fill="#3AA0BA" d="M369.22 255.955l3.872 5.137 6.211 11.616-25.504-.172.546-11.214z"/><path fill-rule="evenodd" clip-rule="evenodd" fill="#308FA6" d="M398.05 262.242l-7.514 4.907.076 4.064 29.367-.077-.345-3.795z"/><path fill-rule="evenodd" clip-rule="evenodd" fill="#3AA0BA" d="M401.96 252.581l4.026 1.61 13.648 13.15-29.098-.192-.307-7.667z"/><path fill-rule="evenodd" clip-rule="evenodd" fill="#1F7678" d="M353.425 146.54l-12.633-15.707L328.208 167l27.504 19.041-5.277-19.489z"/><path fill-rule="evenodd" clip-rule="evenodd" fill="#494749" d="M393.473 226.916l11.593 4.158.92 23.117-15.757 5.291-9.891-22.082z"/><path fill-rule="evenodd" clip-rule="evenodd" fill="#4F5353" d="M375.071 209.894l26.453-8.051 3.542 29.231-24.728 6.326-14.468-19.455zM360.173 221.604l-7.783 15.738 1.955 23.98 18.747-.23 4.946-23.462z"/><path fill-rule="evenodd" clip-rule="evenodd" fill="#6F7273" d="M378.751 209.588l3.374 16.868-4.087 11.174-25.648-.288-4.58-36.686z"/><path fill-rule="evenodd" clip-rule="evenodd" fill="#494749" d="M366 180.507l-18.19 20.149 34.315 25.8 19.399-24.613z"/><path fill-rule="evenodd" clip-rule="evenodd" fill="#1F7678" d="M400.598 139.798l7.027-8.465 19 31-29.259 9.566z"/><path fill-rule="evenodd" clip-rule="evenodd" fill="#308FA6" d="M396.136 152.356l8.34 17.173-2.952 32.314-18.326 4.218-35.388-5.405-2.819-36.251z"/><path fill-rule="evenodd" clip-rule="evenodd" fill="#349496" d="M370.683 123.87l-4.641 15.713-25.25-8.75 4.835 41.761 41.686.306 17.163-3.371 3.149-38.196-15.583 7z"/><path fill-rule="evenodd" clip-rule="evenodd" fill="#ECECEB" d="M370.683 123.87l-11.141 3.088-18.75 3.875 44 30.834 22.833-30.334-13-3.666z"/><path fill-rule="evenodd" clip-rule="evenodd" fill="#FEE5D6" d="M420.042 66.583l9.971-5.668 6.154 7.066-8.875 58.227-26.375.125-17.448-2.522 3.563-42.315 2.01-23.663 7.75-.25z"/><path fill-rule="evenodd" clip-rule="evenodd" fill="#F6CBB4" d="M392.977 127.467l-7.992 3.451-.928-6.487 6.985-64.848-12.734 11.096-.421 9.428-.457 5.494-1.595 3.274-1.06 6.144-2.49-3.548-.658-6.743-4.575 3.539-1.113 3.367.62 3.689.561 6.228-1.249-.549-4.273 7.507-2.411 18.646 20.885 15.169z"/><path fill-rule="evenodd" clip-rule="evenodd" fill="#F6CBB4" d="M391.167 82.833l-.375 1.5 14.375 4.188 1.557 9.77-19.62-.833 20.35 5.417 3.809-10.247-2.047-6.924-1.456-2.933-3.692-2.811zM419.198 85.271l-1.457 2.089-2.266 3.955.9 13.393 14.229-.812-11.913-3.147 4.851-8.291 9.812-2.562-5.469-3-5.295-3.774z"/><path fill-rule="evenodd" clip-rule="evenodd" fill="#FFF1E9" d="M417.741 87.36l-1.366 17.348-4.296.717-4.625-2.55 1.762-17.171z"/><path fill-rule="evenodd" clip-rule="evenodd" fill="#F6CBB4" d="M373.69 92.552l.006 6.798-11.823.56.67-13.494 10.148-3.969z"/><path fill-rule="evenodd" clip-rule="evenodd" fill="#747474" d="M364.167 45.958l-9.959 26.792 13.522 4.725 10.578-6.796 18.484-13.096z"/><path fill-rule="evenodd" clip-rule="evenodd" fill="#858686" d="M390.542 61.833l-10.944 32.958-5.712 1.522-1.094-12.954-10.249 3.057-.67 13.494-7.665-27.16z"/><path fill-rule="evenodd" clip-rule="evenodd" fill="#C3937D" d="M366.005 88.069l3.486-.675.078 5.865zM361.873 99.91l7.894-.514-8.169 9.113zM416.375 104.708l-5.35 2-3.571-3.833z"/><path fill="#2B2C2B" d="M425.825 93.472c-.406 1.297-1.787 2.02-3.085 1.614-1.297-.406-2.02-1.787-1.614-3.085.406-1.297 1.787-2.02 3.085-1.614 1.298.407 2.02 1.787 1.614 3.085zM406.111 90.428c-.406 1.297-1.787 2.02-3.085 1.613-1.297-.406-2.02-1.787-1.614-3.084s1.787-2.02 3.085-1.614c1.298.406 2.02 1.787 1.614 3.085z"/><path fill-rule="evenodd" clip-rule="evenodd" fill="#C3937D" d="M373.046 121.837l11.163 1.148 43.083 3.223-27.125 1.375-20.095 14.741z"/><path fill-rule="evenodd" clip-rule="evenodd" fill="#484848" d="M408.171 82.297l-4.069-4.601-9.654 3.762zM418.672 84.427l5.232-2.479 4.621 4.189z"/><path fill-rule="evenodd" clip-rule="evenodd" fill="#C3937D" d="M400.375 112.167l18.917-1.917-.25 1.5-18.084 2.083z"/><path fill-rule="evenodd" clip-rule="evenodd" fill="#3AA0BA" d="M389.198 79.427l20.312 2.969-.294 3.308-17.518-2.464-1.188 11.062 17.469 3.031-.344 3.407-20.531-3.282zM418.198 84.24l17.75 3.218-2.969 16.75-16.396-2.25.271-3.479 13.75 2.354 1.875-11.437-14.738-2.036z"/><g><g fill-rule="evenodd" clip-rule="evenodd"><path opacity=".102" fill="#2B2C2B" d="M262.577 269.514l-45.51 6.396 48.013 11.215 66.416-10.496z"/><path fill="#327D7E" d="M232.476 71.212l-6.818 32.964 26.358 49.541.623-28.61 5.978-47.787z"/><path fill="#45999A" d="M232.265 71.152l-7.198-1.275.61 34.228 8.978-14.713s5.131-16.49 4.829-15.431c-.087.587-3.532-1-7.219-2.809zM225.658 104.176l-12.369 19.794 12.214 24.44 3.086 3.632 22.891 1.675-9.123-32.211z"/><path fill="#327D7E" d="M213.289 123.97l19.185 52.16 12.194-5.242.816-17.57-3.905-6.011zM311.315 81.866l-5.4 6.704-17.343-17.805 14.765-5.209z"/><path fill="#FEE5D6" d="M305.915 88.57l-4.394 46.01-24.059-.608-7.53 3.669-9.85 12.94-12.623.622 7.489-44.761-.241-22.595 21.524-14.316 18.918 3.097z"/><path fill="#C2927D" d="M261.252 82.038l33.894-9.412 4.151 6.145z"/><path fill="#F5CBB5" d="M269.932 137.641l-7.118 9.972-12.449 8.691-2.931-4.728-6.458-38.937 7.108-11.349 4.731-.263 1.891-17.179 6.546-1.81-2.499 51.672z"/><path fill="#C2927D" d="M262.814 147.613l-10.763-13.969 25.411.328z"/><path fill="#FEE5D6" d="M248.802 111.421l-7.826 1.218-3.324-14.685 10.853-2.195z"/><path fill="#77CACD" d="M234.637 89.463l75.758-21.068-13.744-31.535-55.458 32.698z"/><path fill="#57AAAD" d="M296.651 36.86l-71.584 33.017 9.57 19.586z"/><path fill="#F5CBB5" d="M274.38 89.413l-9.952 1.618 10.567 4.75 6.918 15.474.837-13.2-1.909-6.192zM295.668 91.052l-5.695 1.183-4.969 11.879.996 7.536 9.132-14.44 7.094-4.556z"/><path fill="#FFF1E9" d="M280.841 91.863l1.072 19.394 4.087.394 3.973-19.415z"/><path fill="#45999A" d="M264.428 91.031l13.022-3.62 3.391 4.452zM289.973 92.235l3.297-3.911 8.956 4.33z"/><path fill="#C2927D" d="M283.663 113.431l2.337-1.78-4.087-.394zM241.753 100.184c.284.08 3.976-.554 3.976-.554l-.245 7.872-3.731-7.318zM248.802 111.421l-6.445 10.085-1.381-8.867z"/><path fill="#2B2C2B" d="M278.034 97.691c-.441 1.555-1.982 2.417-3.538 1.976-1.485-.42-2.417-1.982-1.975-3.537.441-1.556 2.032-2.327 3.517-1.906 1.554.441 2.416 1.982 1.996 3.467zM297.224 98.719c-.441 1.556-1.982 2.417-3.538 1.976-1.485-.421-2.276-1.943-1.836-3.498.443-1.555 1.984-2.417 3.396-2.015 1.556.439 2.417 1.981 1.978 3.537z"/><path fill="#77CACD" d="M292.255 120.307l-9.315 4.594-11.093-6.444z"/><path fill="#327D7E" d="M292.255 120.307l-8.894-2.526-11.514.676 11.334 3.573z"/><path fill="#F5CBB5" d="M290.735 255.607l-1.474-6.985-12.151-5.517 1.619 10.606 2.574 3.815 4.94 1.448zM244.763 247.34l4.493 15.569 4.698 1.189 2.549-3.855 3.085-6.532-7.835-12.15z"/><path fill="#C2927D" d="M245.127 248.545l14.461 5.166 3.01-6.371-7.929-11.176zM289.261 248.622c.561-.093-10.531 5.089-10.531 5.089l-3.661-5.089 4.031-7.061 10.161 7.061z"/><path fill="#378090" d="M284.182 275.751l-2.797-.082-1.761-10.79 1.679-7.353 6.477 4.317-1.44 4.235zM249.23 262.48l-4.317 9.272 4.901 8.156z"/><path fill="#FEE5D6" d="M256.503 260.243l4.315 6.715-3.995 5.113-8.634 1.679 1.041-11.27z"/><path fill="#44A1BA" d="M248.189 273.75l12.629-6.792 1.759 2.556-2.717 4.236-11.831 2.879z"/><path fill="#FEE5D6" d="M248.029 276.629l14.548-7.115 4.479 7.115-7.036 1.359zM290.735 255.607l7.354 7.993-3.836 4.158-5.673 2.076-7.277-12.308z"/><path fill="#44A1BA" d="M288.58 269.834l9.509-6.234 2.398 2.158-3.517 3.919-6.953 2.076z"/><path fill="#FEE5D6" d="M290.017 272.393l10.47-6.635 6.876 6.635-9.194 1.439z"/><path fill="#378090" d="M248.029 276.629l1.785 3.279h19.026v-3.279zM286.34 266.078l-1.439 1.361.558 1.437 6.876 7.034h15.028v-3.517h-12.39z"/><path fill="#F5CBB5" d="M248.029 276.629l16.787-3.597 4.024 3.597zM294.973 272.393l13.188-4.635-.798 4.635z"/><path fill="#3C97AB" d="M244.721 190.934l11.696 28.987 20.686-17.123 16.019-37.704-20.912-18.623-32.11 29.249z"/><path fill="#FEE5D6" d="M276.485 140.298l-34.906 7.009-5.914 16.059 4.435 12.354 26.917-23.044z"/><path fill="#66C1DB" d="M293.122 165.094l-16.637-24.796-6.877 1.381L240.1 175.72z"/><path fill="#4E8899" d="M262.12 248.618l12.385-8.577-7.727-32.554-33.374.476 11.723 40.582z"/><path fill="#66C1DB" d="M280.349 222.609l-2.263-22.086-32.354-7.524-12.328 14.964 34.98 26.152z"/><path fill="#44A1BA" d="M289.261 248.622l-21.063-6.383.186-8.124 9.702-33.592z"/><path fill="#378090" d="M289.261 248.622l-27.141-.004 6.264-14.503z"/><path fill="#F5CBB5" d="M224.041 187.146l17.626 8.661-1.567-20.087 1.479-28.413z"/></g></g><g fill-rule="evenodd" clip-rule="evenodd"><path fill="#3AA0BA" d="M108.667 267.833l42.5 69L551.5 261.5l6-58.75z"/><path fill="#308FA6" d="M39.333 244.5l10.5 74.333 101.334 18L156.5 292.5z"/><path fill="#C4C4C2" d="M111.333 199.167L156.5 292.5l427-69L558 173l-139 2z"/><path fill="#A3A1A1" d="M187.5 211L30 205.5-.5 272l157 20.5 17.5-72z"/><path fill="#DDDDDC" d="M30 205.5l400-39 128 6.5-384 47.5z"/></g><g fill-rule="evenodd" clip-rule="evenodd"><path opacity=".1" fill="#2B2B2B" d="M245.329 200.385l11.311 2.48-37.504 10.021-35.818-11.112 12.7-2.084zM433.625 158.667l12.917 10.916-49.375 9.875-52.209 10.209-10.416-2.084L320.625 177l86.625-9z"/><path fill="#858686" d="M224.99 202.336l-6.499 6.631-23.333-5.771.86-3.506z"/><path fill="#8F8F8F" d="M234.184 199.69l12.435-.396.661 3.042-28.789 6.631-.05-4.184z"/><path fill="#A3A1A1" d="M218.441 204.783l28.178-5.489-22.886-4.564-27.715 4.96z"/><path opacity=".1" fill="#2B2B2B" d="M163.771 190.646l12.333 23.5-39.187 2.437-55.979-16.104 82.5-2.833z"/><path fill="#C3937D" d="M139.271 199.146l-4.833-8.5 11.5-4.167-.167 11.667z"/><path opacity=".1" fill="#2B2B2B" d="M311.031 178.016l-16.823 5.109-42.166 10.5.75-9.917 39.437-3.916z"/><path opacity=".1" fill="#2B2B2B" d="M301.608 191.805l16.767 1.168-25.472 12.386-18.695-2.901-24.5-3.083-25.416-12.917 29.818-.612 10.4 3.33z"/><path fill="#FEE5D6" d="M291.733 165.646l-15.119-25.147 22.792 22.943-7.031 16.433-4.75-2.167z"/><path fill="#F5CBB5" d="M305.863 146.045l3.305 1.823 1.863 30.148-18.656 1.859 7.335-30.525zM302.444 124.963l-9.572 5.014 3.533 8.319 7.179 4.558 6.838-9.117z"/><path fill="#FEE5D6" d="M309.168 147.868l1.254-14.131-14.017 4.559 3.305 11.054z"/><path fill="#F5CBB5" d="M374.167 172.083l10.875-9 15.125 5.125-3 11.25-10.875.75z"/><path fill="#FEE5D6" d="M360.417 175.583l10.625-7.5 14-5 1.25 17.125-15.75 1.625z"/><path fill="#72CBCC" d="M371.042 168.083L328.208 167l6.334 20.583 36-5.75z"/><path fill="#ECECEB" d="M422.292 120.583l-15.75 52 40-3 15-48.5z"/><path fill="#FEE5D6" d="M447.917 143.833l9.75-9.75-.125 11.875-6.5 9.375z"/><path fill="#F5CBB5" d="M444.542 139.458l13.125-5.375-6.625 21.25-6.875-6.75z"/><path fill="#ECECEB" d="M262.465 190.695l8.34-3.695 10.589-4.192 36.981 10.165-25.764 10.341-17.545-5.822zM145.438 169.979l-6.5 44 37.166.167 6.667-42.167z"/><path fill="#FEE5D6" d="M142.604 195.813l9.834-4.5 14.5 3.666-2.334 15.5-15.666.334z"/><path fill="#F6CBB4" d="M127.104 193.646l7.334-3 18 .667-3.5 19.5-17.334-2.834z"/><path fill="#72CBCC" d="M84.271 174.813l50.167 15.833-2.834 17.333-50.666-7.5z"/><g><path fill="#5EC0D9" d="M231.24 194.693l2.131-1.677-3.631-.593-5.172.868-.566 3.01z"/><path fill="#308FA6" d="M216.495 195.113l5.837 3.082 10.942-2.672.097-2.507-10.941 2.089z"/><path fill="#3AA0BA" d="M225.734 199.641c0 1.315-2.91 2.381-6.499 2.381-3.589 0-6.499-1.066-6.499-2.381 0-1.315 2.91-2.381 6.499-2.381 3.589 0 6.499 1.066 6.499 2.381z"/><path fill="#3AA0BA" d="M216.24 190.595l-.133.003-3.371.064v8.979h12.998v-8.979z"/><path fill="#5EC0D9" d="M225.734 190.662c0 1.315-2.91 2.381-6.499 2.381-3.589 0-6.499-1.066-6.499-2.381 0-1.315 2.91-2.381 6.499-2.381 3.589-.001 6.499 1.065 6.499 2.381z"/></g><path fill="#C4C4C2" d="M306.632 193.149l-14.489 6.134-2.044-.526 15.073-6.193zM300.206 191.045l-14.489 6.135-2.045-.526 15.073-6.193zM293.779 188.942l-14.489 6.135-2.044-.526 15.073-6.193zM287.353 186.839l-14.489 6.134-2.045-.526 15.073-6.192z"/><g><path fill="#F5CBB5" d="M266.434 191.476l6.837-5.622 10.029 7.673-3.951 7.294-8.661-1.748z"/><path fill="#FEE5D6" d="M251.847 190.792l6.534-3.798 14.89-1.14-2.583 13.219-13.067-2.811z"/><path fill="#F8DCCD" d="M258.381 186.994L240.1 175.72l-15.808 10.738 33.329 9.804z"/></g></g><g><path fill="#F7CCB5" d="M694.5 213.75l.75-4-2.375-23-2.75 4.875-3.5 17-2.75-15.75-10.25-12.125L661 189l3.75 15.5 21.625 9.875z"/><path fill="#FEE5D6" d="M691.875 223.125l-13.75-6.5L664.75 204.5l18.875-12 11.625 17.25z"/><path fill="#6F7273" d="M676.833 315.5L682 335.75l10.167-3.583 13.666-30.334-20-4z"/><path fill="#8F8F8F" d="M796.167 310.167l-10.334 15-8-2-8-25 16.334-4.667z"/><path fill="#29788C" d="M663.5 310l-18 3.333V319l27.333 2 4.667-12.667z"/><path fill="#308FA6" d="M680.5 297l-14.667-3.333-20.333 19.666L683.167 316z"/><path fill="#1F7678" d="M695.583 276.167l-21.166-14.25-8.584 31.75 17.667 10z"/><path fill="#349496" d="M723.583 260.583l-7.75.584-41.416.75 2.25 19.666 62.166 25.334 8.25-44.084z"/><path fill="#1F7678" d="M728.083 252.333l-12.25 8.834L733.167 292l15.666-22.583-6.25-10.084z"/><path fill="#29788C" d="M755.833 209.833l27 26.5L785.5 266.5l-69.667-5.333 2.334-18.667z"/><path fill="#4F5353" d="M702.333 89.833l-23.583 12.5 12.027 14.503 23.681-.003z"/><path fill="#858686" d="M726.333 88.833l-12.666-12.416-34.917 25.916 18.833-1.25 22 14.75z"/><path fill="#6F7273" d="M750.333 96.333L744.167 85l-30.5-8.583-16.084 24.666 11.75 23z"/><path fill="#6F7273" d="M726.833 102.083L744.167 85l14.416 1.333 17.154 23.429-36.154 7.821z"/><path fill="#858686" d="M716.333 123.583l-5.25-13.5L744.167 85l2.166 18.333-18.5 16.75z"/><path fill="#F7CCB5" d="M736.648 173.436l-2.25-22.491 11.935-47.612 22.966 30.937-8.764 40.407-32.574 21.794-.155-2.792-1.706-5.196 1.086-6.36z"/><path fill="#FEE5D6" d="M697.583 101.083l13.5 9 35.25-6.75-9.53 68.707-43.587-.698-2.439-54.506z"/><path fill="#F7CCB5" d="M715.164 125.816l16.132.776-9.152 5.507-8.608 14.736zM708.572 125.506l-14.115.698 6.747 5.197 5.972 15.356z"/><path fill="#494949" d="M731.296 126.592l-16.132-.776.311-4.575zM708.262 121.318l.31 4.188-14.115.698z"/><path fill="#C0917C" d="M713.536 146.835l-6.36-.078 3.8 3.025z"/><path fill="#C3937E" d="M725.479 154.513l-23.189-1.086 2.543 9.094 18.438.75z"/><path fill="#F7CCB5" d="M760.208 126.333l9.875 5.75-3.653 15.294-9.773-3.955z"/><path fill="#C3937E" d="M765.732 135.278l-3.025-2.404-1.551 5.429zM758.75 144.125l6.439 9.069 1.241-5.817z"/><path fill="#FFF4EB" d="M715.164 125.816l-6.592-.31-1.396 21.251 6.36.078z"/><path fill="#4F5353" d="M758.583 135.708l-6.114-3.377 2.017-10.315-8.153-18.683 16.762 3.87 12.642 2.559-5.654 22.321-8.85-4.483z"/><path fill="#E5E5E5" d="M731.833 185.583l-4.027 8.096-.62-11.556z"/><circle fill="#2B2C2B" cx="722.377" cy="133.572" r="2.715"/><path fill="#2B2C2B" d="M700.428 130.78c-1.542 0-2.792 1.25-2.792 2.792 0 1.542 1.25 2.792 2.792 2.792 1.542 0 2.792-1.25 2.792-2.792.001-1.542-1.249-2.792-2.792-2.792z"/><path fill="#FFF" d="M722.765 155.753l-17.993-.93.874 3.073 16.062.875z"/><path fill="#C3937E" d="M745.916 172.139l-17.955 24.332-10.586-24.805z"/><path fill="#308FA6" d="M718.5 189.833l42.035-15.156 22.298 61.656-64.666 6.167z"/><path fill="#5EC0D9" d="M735.833 191.5l18 25-35.666 26-20.417-19.25z"/><path fill="#F7CCB5" d="M678.125 216.625l22.458 39.708 17.584-13.833-22.917-32.75z"/><path fill="#8F8F8F" d="M774.167 206.833L745 204.75 733.167 292l-56.5-10.417L668.5 333.5l13.5 2.25 10.833-29.083 33.334 7 4.666 27.833 12.334 1 39.666-89.667z"/><path fill="#C4C4C2" d="M805 262.167l23.333-65-39.166-3.834L745 204.75l27.833 13.583z"/><path fill="#ABABAB" d="M828.333 197.167L762.75 213.5l-19.583 129 12.333-3.667 5.667-28.5 24.333-6.166.333 21 10-3z"/></g><g><path fill="#349496" d="M631.75 286.5l3.083 14.833-16.166-1-10-24.833 18.833-.25z"/><path fill="#1F7678" d="M369.167 309.833l12.333 10 11.333-1.666 17-25.834-40.833.917z"/><path fill="#4EA9AA" d="M533.167 312.833l97.333-19.5 4.333 8 7.334-2.166 4.5-34.834L503.5 297.167l9.333 39 12.555-4.386z"/><path fill="#349496" d="M449.833 276.5l-90 8.417 9 32.916 12.667 2 .167-18.75 111.166 12.75 6.054 20.293 13.946 2.041.667-33.667z"/><path fill="#D0CECD" d="M557.25 255.833l103.333.084L662.25 277 513.5 302.5l-22.25-25.333z"/><path fill="#DDDDDC" d="M375.5 283.25l-23.583-13.667L519.833 243.5l140.75 12.417-145.333 31.916z"/><path fill="#C4C4C2" d="M351.917 269.583l163.333 18.25-1.75 14.667-160.333-11.333z"/></g><g><path opacity=".1" fill="#2B2B2B" d="M593.688 256.833l-9.125 4.563 28.625 2.937 13-6.5-4.355-.333zM424.458 268.958l29.75-7.625 14.875 7-24.375 10zM496.125 249.729l-17.812 4.813 38.062 15.125 13.125-3.188.25-3 6.313-3.062-11.875-3.625z"/><path fill="#DDDDDC" d="M487.5 240.5l-3.833-2.583L503.083 232l7.334 1.167-13.75 10.916z"/><path fill="#B7B7B7" d="M497.583 242.083l-8.166-3.25-5.75-.916L485.25 254l9.333 2.833z"/><path fill="#D0CECD" d="M489.417 238.833l21-5.666 1.166 18.333-17 5.333z"/><path fill="#A3A1A1" d="M497.85 243.358l2.226-3.004 5.015 1.261.241 3.915-1.984 2.495 2.494-.644.402 2.038-6.276 1.529-.375-2.038 3.621-3.728.026-1.851-2.253-.992-1.18 1.609z"/><path opacity=".1" fill="#2B2B2B" d="M501.005 268.827l11.887 2.715-18.967 10.775-28.717-2.449 16.118-10.73 19.456-.222"/><path fill="#ECECEB" d="M493.948 282.384l-28.495-4.631 17.097-13.178 29.029 5.164z"/><path fill="#75CFE3" d="M483.44 267.535l-10.618 9.15 10.318 1.736 12.806-1.021-5.026-8.262z"/><path fill="#5EC0D9" d="M483.14 278.421l2.604-3.205 2.872.834.601-1.102-5.61-1.369 2.772-3.339 3.239.701 1.302-1.803 12.155 2.605-10.352 8.214z"/><path fill="#75CFE3" d="M487.113 271.125l-.55.768 1.385.284.534-.785zM489.601 273.513l-.551.768 1.386.283.534-.784zM494.226 272.928l-.551.768 1.386.284.534-.785zM486.262 276.184l-.551.768 1.202.417.635-.834z"/><g><path fill="#4EA9AA" d="M514.729 251.292l16 2.666-.666 5.667-16.667 6.333-4-8.333z"/><path fill="#349496" d="M512.896 255.625l-13.5-.333v5.5l14 5.166.833-6.666z"/><path fill="#72CBCC" d="M499.396 255.292l14.833 4 16.5-5.334-16.333-4.666z"/><path fill="#ECECEB" d="M517.896 261.292s6.583 3.25 9.917 2.417c3.333-.833-2.167-4.583-2.167-4.583l2-1.75 1.667 1.167s2.833 2.5 2.833 5.333-6.208 3.542-9.958 2.417c-2.424-.727-5.625-2.417-5.625-2.417l-.417-2.167 1.75-.417z"/></g><g><path opacity=".1" fill="#2B2B2B" d="M548.487 253.122l-13.09 3.705 37.508 7.048 17.262-8.271-12.371-.108z"/><path fill="#ECECEB" d="M563.483 253.842l16.686-.648 9.566.432-16.326 8.127-10.07-.863z"/><path fill="#F0EFEF" d="M535.361 254.849l19.779-5.682 25.029 4.027-16.83 7.696z"/><path fill="#DDDDDC" d="M546.617 255.064l11.4-3.991 1.223.179-10.681 4.208zM562.188 251.864l-9.763 4.567 1.636.324 9.494-4.676zM566.648 252.871l-9.26 4.998 1.636.324 9.098-5.089zM581.482 254.327l-9.26 4.999 1.636.324 9.098-5.089zM572.042 253.95l-9.26 4.998 1.636.324 9.098-5.089z"/></g><g><path fill="#DDDDDC" d="M437 258l-3.833-2.583 19.416-5.917 7.334 1.167-13.75 10.916z"/><path fill="#B7B7B7" d="M447.083 259.583l-8.166-3.25-5.75-.916-3.834 15.916 10.667 3z"/><path fill="#D0CECD" d="M438.917 256.333l21-5.666L462 269l-22 5.333z"/><path fill="#A3A1A1" d="M453.25 256.889l-3.138.318-1.221 1.991.374 1.795 1.555-.203.233 5.152-1.418.142.263 2.452 5.803-.588-.305-2.459-1.411.1z"/></g><g><path fill="#B7B7B7" d="M607.5 242l11.313.333 3.02 15.167-9.083 4.042z"/><path fill="#DDDDDC" d="M598.333 252.833l-7.5-10.166 4.792-2.042 23.188 1.708-5.5 2.917z"/><path fill="#D0CECD" d="M590.417 259.583l.416-16.916 23.855 2.041-1.938 16.834z"/><path fill="#A3A1A1" d="M597.958 248.125l3.459-1.625 3.708 2.375-1.75 3.25 2.167 1.583v3.417l-4.209 1.333-5-2.041 2.084-1.834 2.458 1.375 1.625-1.25-2.875-2.25 2.208-2.541-1.333-1-1.208 1z"/></g></g></svg>