<svg xmlns="http://www.w3.org/2000/svg" viewBox="0 0 900 350"><path fill="#D0CECD" d="M77.5 87.5l187.936-56.338L899.875.125l-10.042 332.042L300.5 257.5z"/><path fill="#ECECEB" d="M.25 0l265.186 31.162-2.936 239.671-251 29.667z"/><path opacity=".1" fill="#2B2B2B" d="M11.5 300.5l10.333-42 10.031-11.038 50.386 2.788-15.854 61-20.146 1.25z"/><path fill="#75CFE3" d="M46.833 236.917l1.334-5.667 30.333-2.667 16.667 3.667-36.334 25.333z"/><path fill="#5EC0D9" d="M61.833 238.917l8.334-5.667 25-1 15.788 16.574L60.5 275.583z"/><path fill="#3AA0BA" d="M44.833 275.917l-12.969-28.455 16.303-16.212 22 2-4.186 18.969z"/><path fill="#3C97AB" d="M83.908 274.129l-17.927-21.91-34.117-4.757 6.261 58.163 28.271 5.625z"/><path fill="#3AA0BA" d="M65.981 252.219l44.974-3.395-7.83 59.426-36.729 3z"/><path fill="#3C97AB" d="M75.833 240.167l-1.5 7.916 25-1.916-4.666-6.834z"/><path opacity=".1" fill="#2B2B2B" d="M84.833 109.167L61 85.5l-4.167 108.667 92-2.334-5.333-67z"/><path fill="#94D5D4" d="M61.333 94.833l2 95.5 89.834-3.166-1.834-87.834-54.651-9.981z"/><path fill="#4EA9AA" d="M61 85.5l.333 9.333 90 4.5-.166-7.166z"/><path fill="#72CBCC" d="M85.136 105.591l46.266 2.629-.371 5.182-45.604-2.487zM74 121.333l64.333 1.334v42l-63.666.166zM85 173l46.167-.333-.334 2.166-45.333.5zM92.167 177.875l30.125-.208-.125 2.5-29.834.166z"/><path fill="#94D5D4" d="M87 118.667l.5 50.666 4.833-.333-1-50.667 12.5.334.167 49.166 4.167.334.666-49.334 11.834.5-.334 46.834 5 .333.167-48.5-35.667-4.167z"/><path fill="#94D5D4" d="M70.5 132.667l72.167 1.833-.167 3.5-71-1.667.333 12.834 70.834-.667-.5 4-73.834 1.5z"/><g><path fill="#DDDDDC" d="M536.5 70.833l296.333-6-3 162-294-22z"/><path fill="#A3A1A1" d="M583.25 151.75l10.25-14.25 40.5 10-4.75 59.75-43.5-7.75z"/><path fill="#ABABAB" d="M716 140l30.5-19 26.75 13-1.5 43.75-41.25-.5z"/><path fill="#A3A1A1" d="M743.5 172.25l17.833-14.583L784.5 170.25l2.5 56.5-36.75-4.5zM631.833 130.833l38.667-29.666L701.25 112l-.083 8.5 9.083 76.25-45.5 18.75z"/><path fill="#C4C4C2" d="M779.5 220.833l2.667-110.333 55.333 1-2.667 113zM684.167 211.5l1.333-57.667 14.667.667 1-34 45.333.5-1.25 35.75 16.083.917-1.5 65.166zM608.5 210.5l1.667-108.667 60.333-.666-3.333 113zM543.167 202.167l-.542-65.667 50.875 1-.667 68.667z"/><path fill="#A3A1A1" d="M618.833 113.25L616.75 193l41 3.25 2.333-83.167z"/><path fill="#C4C4C2" d="M626.125 109l-2.5 87.875H627l2.375-87L637 111l-2.875 86.125 4.125.25 2.875-89.875zM648 111.125l-2.5 86.375 3.375.125 3-85.5c.019-.732-1.367-1.48-2.099-1.456l-1.776.456z"/><path fill="#C4C4C2" d="M616.625 120.625l44.75-.375-.25 6.5-44-.375.375 7 43.25.625.083 8.667-43.666-2.334-.917 8.042 44.875 2.5-.25 8.375-44.625-2.75-.25 7.625 43.625 2.625-.25 7.5-43.5-3.5-.25 7.375 43.375 3.75v6.75l-43.625-3.375-2-53.25z"/><path fill="#A3A1A1" d="M540.875 146.375l44.75 1.25-.875 51.75-45-1.625z"/><path fill="#C4C4C2" d="M536.875 154.75l51.75 1.849-.875 6.901-46.375-2.875.25 8.488L587 171.531l-.375 7.964-45.375-2.133v8.248l46.5 3.271-.75 9.244-48.875-4.977z"/><path fill="#C4C4C2" d="M543.375 143.125L542.5 194l6.875.5.625-51.875 13.625 1.25-.375 45.25 4.875.5.75-48.5-24.25-1.25zM575.125 143.875l-.75 47.375h3.25l.75-46.875z"/><path fill="#C4C4C2" d="M555 143.5l-.75 47.375h3.25l.75-46.875z"/><path fill="#A3A1A1" d="M692 162.333L753 165l-.333 6.5-61-3.833zM706.667 148.5l32.166 1.5-.333 6.333-32.167-1.833zM706.938 137.813l32.062.854-.333 6.333-31.729-1.375zM707.5 126.688l32 .979-.333 6.333-32.104-1.062zM691.667 175.833l61 2.667-.334 6.5-61-3.833zM691 188.833l61 2.667-.333 6.5-61-3.833z"/><path fill="#C4C4C2" d="M719.125 124.625l-1.5 33.5h6.875l1-33.375zM703.734 159.375l-1.359 38.375h6.227l.906-38.232zM720.716 161l-1.359 38.375h6.227l.906-38.232zM736.226 162.125l-1.359 38.375h6.227l.906-38.232z"/><path fill="#A3A1A1" d="M794.667 122.333l-2.834 82.334 24 2.166 2.834-83.666z"/><path fill="#C4C4C2" d="M804.167 120.333l-3.334 87.834 4.667.166 3.333-88.833z"/><path fill="#C4C4C2" d="M791 130.667l29.833.687-.166 5.398-28.334-.981-.666 9.226 27.166.295v6.085l-27.166-1.374-.667 8.834 26.667.098v5.398l-31-1.472zM790.25 170.417l29.833.687-.166 5.398-28.334-.981-.666 9.226 27.583 2.003-.417 4.377-27.166-1.374-.667 8.834L817 200.5l.25 9-32-3.25zM572.917 94.083l40.25-1.5-33.25 14.5-28-4.25-13.25 2.5-1-13.25z"/><path fill="#D0CECD" d="M539.667 88.083l26.5-2.75 29.75 5.75 17.25 1.5-38.25 6.75-37.5-5.25z"/><path fill="#5EC0D9" d="M527.25 59.25l-.75 152.25 323.5 29 3.5-191-326.25 9.75zM824 214.5l-278.167-23V78.167l281.333-5.333L824 214.5z"/><path fill="#C4C4C2" d="M755.75 90.25l-15.25-1.5h-40L733 94l29 10 51.5-14.75-47.25 4.5z"/><path fill="#D0CECD" d="M700.5 88.75l43.75-2.5L769 89l44.5.25-48 8L733 91z"/></g><g><path opacity=".1" fill="#2B2B2B" d="M745.167 305.833L612.5 300.167 795 339.5l35.5 2 40.333-12-27-70z"/><path fill="#349496" d="M815.5 260.5l28.333-1 1 71-49.833 9-27.833-78.333z"/><path fill="#4EA9AA" d="M681.833 246.167l-86.666 2.666-1.334 62.667L795 339.5l.167-68z"/><path fill="#94D5D4" d="M673.167 240.167l-76 8.666 198 22.667 48.666-12zM610.833 265.167L609.5 300.5l163.333 23.667 1.667-38.334z"/><path fill="#4EA9AA" d="M679.833 270.167l-.666 47 12.666 1 1-47.334z"/><ellipse fill="#4EA9AA" cx="665.875" cy="291.5" rx="4" ry="5.5"/><ellipse fill="#4EA9AA" cx="707.125" cy="296.625" rx="4" ry="5.5"/></g><g><path opacity=".1" fill="#2B2B2B" d="M712.625 253.75l21.708 8.317 4.292.513L761 260.25l7.833 5.583L790 265.5l25.667-9-13.334-20.167L759 241.25z"/><path fill="#4EA9AA" d="M705.75 256.496l-1.375-4.338L740 246.512l27.5 2.243-29.375 10.657z"/><path fill="#D0CECD" d="M742.167 256.234l-7.834 5.833-30.208-3.253.25-6.656 30.792 3.179z"/><path fill="#DDDDDC" d="M734.333 262.067l33.5-7.03-.333-6.282-32.333 6.582z"/><path fill="#4EA9AA" d="M705.75 248.643l-1.375-4.337L740 238.659l27.5 2.244-29.375 10.657z"/><path fill="#D0CECD" d="M742.167 248.381L735 254.125l-30.875-3.163.25-6.656 30.792 3.178z"/><path fill="#DDDDDC" d="M735.188 254.063l32.645-6.878-.333-6.282-32.333 6.581z"/><g><path fill="#4EA9AA" d="M740.25 260.262l-1.375-4.338 35.625-5.646 27.5 2.243-29.375 10.657z"/><path fill="#D0CECD" d="M776.667 260l-7.834 5.833-30.208-3.253.25-6.656 30.792 3.179z"/><path fill="#DDDDDC" d="M768.833 265.833l33.5-7.03-.333-6.282-32.333 6.582z"/></g><g><path fill="#4EA9AA" d="M740.25 252.409l-1.375-4.337 35.625-5.647 27.5 2.244-29.375 10.657z"/><path fill="#D0CECD" d="M776.667 252.147l-7.834 5.834-30.208-3.253.25-6.656 30.792 3.178z"/><path fill="#DDDDDC" d="M768.833 257.981l33.5-7.03-.333-6.282-32.333 6.581z"/></g><g><path fill="#4EA9AA" d="M740.917 243.734l-1.375-4.338 35.625-5.646 27.5 2.244-29.375 10.657z"/><path fill="#D0CECD" d="M777.333 243.472l-7.833 5.834-30.25-2.618.292-7.292 30.791 3.179z"/><path fill="#DDDDDC" d="M769.5 249.306l33.5-7.03-.333-6.282-32.334 6.581z"/></g></g><g fill-rule="evenodd" clip-rule="evenodd"><path fill="#8F8F8F" d="M224.891 174.507l-29.989-17.678-12.627 7.261 15.784 81.444L227.1 250.9z"/><path fill="#A3A1A1" d="M194.902 156.829l16.415 89.021 70.079-6.945-17.362-78.288-60.609-5.366z"/><path opacity=".1" fill="#2B2B2B" d="M221.221 159.276l-17.796-4.025 11.522 44.273-.592 25.806 49.719 4.972s6.984-31.489-2.841-35.632c-9.826-4.142-40.012-35.394-40.012-35.394z"/></g><g><path fill="#72CBCC" d="M500.952 166.584l10.831 6.189-27.751 31.355-21.247-21.813s18.31-25.015 20.373-23.726c2.063 1.29 17.794 7.995 17.794 7.995z"/><path fill="#349496" d="M484.706 148.532l3.901-24.053 23.177 48.294-24.254-3.357z"/><path fill="#72CBCC" d="M409.918 159.105l-7.22 7.737 17.023 32.443 5.671-36.827z"/><path fill="#349496" d="M422.039 144.406l-7.43-18.043-11.911 40.479 9.971-1.891z"/><path fill="#6F7273" d="M448.782 209.51l35.519 3.498-4.574 74.267-30.407-9.418-33.9-15.597 4.301-62.975z"/><path fill="#4F5353" d="M427.256 183.14l-7.535 16.145 22.065 26.908 42.515-13.185-.269-8.88z"/><path fill="#4EA9AA" d="M426.987 153.271l-14.262 11.302 6.996 34.712 64.311 4.843 3.498-34.712z"/><path fill="#72CBCC" d="M436.943 118.29l-22.334 8.073-1.884 38.21 74.805 4.843 1.077-44.937-11.571-3.587z"/><path fill="#ECECEB" d="M447.258 133.808l-21.527 10.763 5.381-27.985 31.035-3.408 9.603-2.681 5.286 10.395-6.996 27.984z"/><path fill="#6F7273" d="M452.639 30.121l9.418-1.884 11.033 32.38-20.451 26.908-13.992-35.698z"/><path fill="#4F5353" d="M419.811 38.103l9.149-15.248 33.097 5.382-14.443 26.524-15.425-3.921z"/><path fill="#6F7273" d="M405.191 45.638l-3.498-19.823 27.267-2.96 6.518 24.839-.06 10.501-31.124-3.767z"/><path fill="#858686" d="M380.166 47.521l.538-8.88 20.989-12.826 15.696 26.819-25.114 1.973z"/><path fill="#6F7273" d="M398.733 63.128l-22.469-12.512 4.44-11.975 23.141 11.571z"/><path fill="#4F5353" d="M397.387 54.248l-11.032-3.946-10.091.314 8.387 18.432z"/><path fill="#C2927D" d="M413.282 106.366l33.975 27.441 23.083-21.94s-7.708-11.314-8.237-11.254c-.529.061-48.821 5.753-48.821 5.753zM471.454 73.228l1.344 4.498-.404 8.274-15.529-7.06z"/><path fill="#F5CBB4" d="M458.567 76.212l1.517-3.262-1.278-10.764 14.284-1.569-.292 17.109-9.083.817z"/><path fill="#F5CBB4" d="M439.418 96.133l5.845 17.705 15.488-.428-13.493 20.398 24.492-23.311.644-24.497-8.679-7.457-4.08-11.109-8.687 1.526-3.334-14.199-12.136-7.067z"/><path fill="#FCE4D5" d="M386.355 50.302l-1.704 18.746 10.913 51.064 49.699-6.274-9.785-66.144z"/><path fill="#F5CBB4" d="M414.552 66.705l11.08 2.486-10.371 20.646-4.449-2.578-4.042 3.932-16.397-17.897 9.3-3.56 3.042 1.568 5.94 1.238 3.836-2.021z"/><path fill="#C2927D" d="M409.927 85.813l-5.417 5.378 6.688 3.048 4.063-4.402z"/><path fill="#FFF1E9" d="M402.715 71.302l1.795 19.889 10.751-1.354-2.77-19.318z"/><path fill="#2A2B2A" d="M400.469 79.581c.408 1.763-.69 3.523-2.453 3.931-1.763.408-3.523-.69-3.931-2.453-.408-1.763.69-3.523 2.453-3.931 1.763-.408 3.523.69 3.931 2.453zM422.449 77.044c.408 1.763-.69 3.523-2.453 3.931-1.763.408-3.523-.69-3.931-2.453-.408-1.763.69-3.523 2.453-3.931 1.763-.408 3.523.69 3.931 2.453z"/><path fill="#505354" d="M414.037 64.217l-1.546 6.302 13.141-1.328zM397.667 65.961l5.048 5.341-13.439 2.061z"/><path fill="#C2927D" d="M404.841 101.714l18.234-2.497 1.427 2.814-19.978 2.616zM468.586 65.001l-4.735 1.258 1.958 8.457z"/><path fill="#308FA6" d="M419.288 291.831l-7.779 6.189.086 5.244 32.364.043.086-5.287z"/><path fill="#3AA0BA" d="M422.383 277.046l-10.874 20.974h32.536l-.343-21.662z"/></g><g fill-rule="evenodd" clip-rule="evenodd"><path fill="#FEE5D6" d="M272.242 175.612l5.245-18.841 39.975-4.124 3.788 15.626-21.311 14.455z"/><path fill="#F5CBB5" d="M300.653 154.541l16.809-1.894 3.788 15.626-9.707 6.155z"/><path fill="#327D7E" d="M206.766 90.802l3.791 38.502 45.863 45.348-9.1-31.607-9.782-54.481z"/><path fill="#45999A" d="M206.513 90.809l-8.334 1.062 12.374 37.349 4.821-19.215s-.009-19.849.022-18.583c.104.673-4.219.11-8.883-.613zM210.557 129.304l-6.804 25.949 21.76 22.642 4.628 2.931 25.691-5.992-21.026-32.224z"/><path fill="#327D7E" d="M203.753 155.253l26.208 45.369 5.933-9.81 13.222-14.365 1.544-2.578zM296.917 75.532l-3.633 9.203-25.119-13.607 14.421-10.765z"/><path fill="#FEE5D6" d="M293.284 84.735l10.913 51.988-26.607 7.56-7.009 6.602-6.383 17.567-13.638 5-7.09-51.677-7.991-24.711 18.723-23.069 21.817-3.071z"/><path fill="#C2927D" d="M242.042 92.84l33.973-21.917 6.657 5.322z"/><path fill="#F5CBB5" d="M270.581 150.885l-4.4 13.376-10.688 13.794-4.833-4.186-20.402-40.517 3.919-14.883 5.102-1.907-3.799-19.497 6.562-4.225 14.929 57.555z"/><path fill="#C2927D" d="M266.181 164.261l-16.586-11.647 27.995-8.331z"/><path fill="#FEE5D6" d="M238.429 129.34l-8.171 4.012-8.669-14.977 11.158-6.119z"/><path fill="#77CACD" d="M215.377 110.089l75.924-49.024-25.865-29.903-49.672 54.844z"/><path fill="#57AAAD" d="M265.436 31.162l-67.258 60.709 17.199 18.218z"/><path fill="#F5CBB5" d="M258.97 96.444l-10.404 1.828 13.256 4.949 12.883 14.614-3.595-14.771-4.213-6.141zM282.89 90.962l-5.845 3.246-1.39 14.734 3.67 7.928 5.082-18.968 5.828-10.205z"/><path fill="#FFF1E9" d="M266.897 96.923l7.808 20.914 4.621-.966-2.28-22.661z"/><path fill="#45999A" d="M248.566 98.272l13.732-4.972 4.599 3.623zM277.045 94.208l1.826-5.327 11.364-1.184z"/><path fill="#C2927D" d="M277.369 119.624l1.957-2.753-4.621.966zM226.852 119.42c.339-.009 4.173-1.967 4.173-1.967l2.423 8.721-6.596-6.754zM238.429 129.34l-3.623 13.27-4.548-9.258z"/><path fill="#2B2C2B" d="M265.81 104.277c.048 1.857-1.348 3.33-3.206 3.378-1.773.047-3.33-1.348-3.377-3.206-.048-1.858 1.434-3.248 3.207-3.294 1.857-.047 3.329 1.349 3.376 3.122zM287.218 98.843c.048 1.858-1.349 3.33-3.206 3.378-1.773.046-3.161-1.353-3.211-3.21-.046-1.858 1.35-3.33 3.038-3.373 1.858-.05 3.33 1.348 3.379 3.205z"/><path fill="#77CACD" d="M289.281 127.828l-8.871 3.984-13.405.923 12.366-4.871z"/><path fill="#327D7E" d="M289.281 127.828l-10.824-3.533-11.452 8.44 12.366-4.871z"/><path fill="#3C97AB" d="M248.343 218.984l17.402 31.43 21.2-22.431 12.994-45.255-26.464-18.316-32.534 37.863z"/><path fill="#FEE5D6" d="M277.487 156.771l-38.838 12.884-7.361 14.387 9.653 18.233 27.478-30.058z"/><path fill="#66C1DB" d="M299.939 182.728l-22.452-25.957-7.651 2.539-28.895 42.965z"/><path fill="#4E8899" d="M267.179 282.909l14.234-9.858-8.881-37.416-38.357.547 13.473 46.643z"/><path fill="#66C1DB" d="M288.13 253.016l-1.185-25.033-38.602-8.999-14.168 17.198 40.203 30.058z"/><path fill="#44A1BA" d="M298.373 282.913l-24.208-7.336.213-9.337 12.567-38.257z"/><path fill="#378090" d="M298.373 282.913l-31.194-.004 7.199-16.669z"/><path fill="#F5CBB5" d="M212.816 213.138l22.019-.119 4.261-7.576 1.845-3.168-2.292-32.62z"/><path fill="#ECECEB" d="M306.306 119.15l7.06 63.583 44.237-4.879-4.652-63.768z"/><path fill="#FEE5D6" d="M330.288 123.22l-12.97-5.456 9.924-4.812 13.49 2.271z"/><path fill="#F5CBB5" d="M317.303 117.762l6.758 9.591 14.27-.651 2.401-11.479z"/><g fill="#D0CECD"><path d="M320.383 137.764l-2.386-1.227 2.016-1.602-1.727-2.984-3.502.405.993 7.668 1.562-.23-.257-2.085 2.327 1.529.974-1.474zm-3.534-2.423l-.279-1.784.743-.132.922 1.171-1.386.745zM322.353 131.974l-.109 6.638 4.528.255.775-6.804-1.743-.023-.273 5.279-1.532.079.053-5.174zM329.589 131.696l1.458 6.495 4.689-1.115-.602-1.992-3.054.856-.936-4.623zM338.833 130.248l-.957 6.169 4.055 1.141.303-1.39-2.278-.582.319-1.091 1.467.35.538-1.202-1.657-.639.201-.96 1.923.476.283-1.289zM349.106 130.205l-4.075.595-.947 2.825 3.52.451.068.896-3.052.323-.099 1.708 4.737-.409-.024-3.389-2.967-.554.345-.907 2.893-.078z"/></g><path fill="#DDDDDC" d="M314.029 145.366l.296 2.19 37.112-3.373-.119-2.486zM314.424 150.654l.296 2.19 37.111-3.374-.118-2.486zM314.819 155.941l.295 2.191 37.112-3.374-.118-2.486zM315.213 161.229l.296 2.19 37.111-3.374-.118-2.486zM315.608 166.517l.296 2.19 37.111-3.374-.118-2.486zM316.002 171.804l.296 2.19 37.112-3.374-.119-2.486z"/><path fill="#ECECEB" d="M318.409 142.782l3.63 32.988-2.051.237-3.394-33.462z"/></g><g><path opacity=".1" fill="#2B2B2B" d="M128.833 310.5L280.5 350.167l266.667-37.334-199-34.666-151 3-12 20.666z"/><path fill-rule="evenodd" clip-rule="evenodd" fill="#349496" d="M475.22 292.569l-11.688 23.904-15.302-2.754-17.046-37.249 41.827-1.894z"/><path fill-rule="evenodd" clip-rule="evenodd" fill="#1F7678" d="M164.439 299.356l14.411 17.051 14.355-1.03 9.667-40.485-29.357-.316z"/><path fill-rule="evenodd" clip-rule="evenodd" fill="#4EA9AA" d="M270.506 280.732l10.89 54.769 20.059-1.912 3.775-31.707 151.05-14.364 7.252 28.955 22.264-2.122-.948-69.606-272.584 15.941z"/><path fill-rule="evenodd" clip-rule="evenodd" fill="#349496" d="M158.757 237.958l.947 74.341 19.146 4.108 5.082-31.098 73.947 12.785 3.028 33.5 20.489 3.907-.789-65.818z"/><path fill-rule="evenodd" clip-rule="evenodd" fill="#A3A1A1" d="M250.934 231.802l29.673 37.881 223.813-18.151-.473-20.204-250.488-.157z"/><path fill-rule="evenodd" clip-rule="evenodd" fill="#8F8F8F" d="M282.501 237.484l-137.634-10.733.632 20.203 135.108 22.729-.631-21.466z"/><path fill-rule="evenodd" clip-rule="evenodd" fill="#C4C4C2" d="M144.867 226.751l207.556-12.469 151.524 17.046-223.971 16.889z"/></g><g><path opacity=".1" fill="#2B2B2B" d="M357.31 226.672l36.619.129-36.877 12.765-5.158-2.837-6.576.774-28.11-11.347h29.786zM277.332 218.82l12.835-1.153-14 14.166 3.769 4.625-65.436-14.125 22.167-1z"/><path fill="#D0CECD" d="M352.281 220.74l41.648 6.061-32.88 9.284-30.302-6.963z"/><path fill="#DDDDDC" d="M382.582 227.832l-31.333 6.963-34.041-8.639 35.073-5.416z"/><path fill="#ECECEB" d="M317.595 221.127l30.431 11.605 30.043-8.51-30.43-6.963z"/><path fill="#D0CECD" d="M350.798 228.38l11.54-2.869-2.353-.644-10.606 2.869zM342.449 227.155l18.342-5.222-1.193-.29-19.019 4.932zM338.065 225.415l17.654-4.653-2.299-.623-17.225 4.695zM333.39 224.061l17.773-4.589-2.149-.58-17.493 4.588z"/></g><g fill-rule="evenodd" clip-rule="evenodd"><path fill="#FEE5D6" d="M271.65 224.975l5.682-6.155 8.76 11.246-6.156 6.392-8.168-3.551z"/><path fill="#F5CBB5" d="M259.339 220.24l1.657-3.669 16.336 2.249-5.208 14.324-13.969-4.736z"/><path fill="#FEE5D6" d="M260.996 216.571l-22.216-10.812-25.964 7.379 45.339 15.27z"/></g></svg>