<svg xmlns="http://www.w3.org/2000/svg" viewBox="0 0 900 350"><g fill-rule="evenodd" clip-rule="evenodd"><path fill="#DDDDDC" d="M478.5 102.5l23-88 395.75 34.75-7.75 259.25-435-54z"/><path fill="#5EC0D9" d="M478.5 102.5l23-88L899 .5l-1.75 48.75-396.875 4.625z"/><path fill="#ECECEB" d="M2.5 42.375l96.793-31.383 401.082 42.883L494.5 251.5l-485 28z"/><path fill="#75CFE3" d="M1.167.5l500.333 14-1.125 39.375L2.5 42.375z"/></g><g fill-rule="evenodd" clip-rule="evenodd"><path opacity=".102" fill="#2B2C2B" d="M839.333 115.167l6.667-18.5 9.167 100.166L773.333 187l-2.666-28.667z"/><path fill="#ECECEB" d="M762.833 96.167v84l81.334 8.666 1.333-91.666z"/><path fill="#DDDDDC" d="M773.667 107.833l30.083.417v5l-30.417-1.917zM773.667 122.333l30.083.417v5l-30.417-1.917zM773.667 136.833l30.083.417v5l-30.417-1.917zM773.667 151.333l30.083.417v5l-30.417-1.917zM773.667 165.833l30.083.417v5l-30.417-1.917zM817.875 109.25L821 116.5l11.375-9.125-9.875 4.125zM817.5 122.625l4.25 7.208 7.5-9.333-7.125 4.375zM817.125 136l3.125 7.25 9.583-7.583-8.083 2.583zM816.75 149.375l4.333 7.125 10.167-9-9.875 4.125zM816.375 162.75L819.5 170l11.375-9.125L821 165z"/></g><path fill-rule="evenodd" clip-rule="evenodd" fill="#29788C" d="M137.326 285.39l-15.939 8.665 10.732 4.633 23.544-.371v-4.262z"/><path fill-rule="evenodd" clip-rule="evenodd" fill="#308FA6" d="M108.798 288.861l-9.301 9.827v4.166h32.405l.217-4.166z"/><path fill-rule="evenodd" clip-rule="evenodd" fill="#5EC0D9" d="M168.055 122.349l25.402 48.219-34.404 4.367z"/><path fill-rule="evenodd" clip-rule="evenodd" fill="#308FA6" d="M193.457 170.568l-12.082 39.057-21.015-39.655z"/><path fill-rule="evenodd" clip-rule="evenodd" fill="#505354" d="M169.036 217.32l-37.805 5.1-1.198 10.417-11.618 25.854 3.833 18.123-.213 5.821 18.11-7.767z"/><path fill-rule="evenodd" clip-rule="evenodd" fill="#707274" d="M169.036 217.32l-37.805 5.1-14.081 10.362 8.438 25.166 25.875-5.624z"/><path fill-rule="evenodd" clip-rule="evenodd" fill="#308FA6" d="M140.145 274.868l15.518 19.187h-34.276l.861-17.241z"/><path fill-rule="evenodd" clip-rule="evenodd" fill="#5EC0D9" d="M85.989 127.542L58 186l30.5 1.333 1.367-17.363z"/><path fill-rule="evenodd" clip-rule="evenodd" fill="#3AA0BA" d="M147.757 117.318l20.362 20.448.917 79.554-40.361 6.858-42.686-6.431.355-64.134.055-10.352 21.812-28.081z"/><path fill-rule="evenodd" clip-rule="evenodd" fill="#308FA6" d="M126.768 217.515l-1.446-97.109 3.922-2.679 5.603 1.522 1.611 98.266z"/><path fill-rule="evenodd" clip-rule="evenodd" fill="#308FA6" d="M131.833 157.333l.5-39.333 15.424-.682 20.298 5.031-.222 21.151zM85.989 127.542l22.222-12.362 21.456 2.653L129.5 157l-43.101-13.739z"/><path fill-rule="evenodd" clip-rule="evenodd" fill="#505354" d="M169.036 217.32l-30.609 12.18-14.172 5.637-19.273-2.336-18.993-15.054z"/><path fill-rule="evenodd" clip-rule="evenodd" fill="#707274" d="M130.033 232.837l-7.785 43.977-7.171 8.803-15.58-1.156-13.508-66.714z"/><path fill-rule="evenodd" clip-rule="evenodd" fill="#8F8F8F" d="M130.033 232.837l-4.445 25.111-31.771-1.539-7.828-38.662z"/><path fill-rule="evenodd" clip-rule="evenodd" fill="#3AA0BA" d="M99.497 284.461v14.227h32.622l-9.871-21.874z"/><path fill-rule="evenodd" clip-rule="evenodd" fill="#FEE5D6" d="M192.917 49l-15.157 66.193-22.135-4.943-29.559 10.578-8.455-29.4-9.607-32.276 15.905-24.775 53.924 4.456z"/><path fill-rule="evenodd" clip-rule="evenodd" fill="#C3937D" d="M165.44 76.667l.942 3.062-.099 3.51-6.032 4.74L157 81.614l8.954-10.254-3.977-4.684 7.517-2.497z"/><path fill-rule="evenodd" clip-rule="evenodd" fill="#F6CBB4" d="M184.25 62.25l-17.868 17.479-.099 3.51-4.205-6.295-5.078 4.67-10.883-21.726 7.966-2.471 6.385 5.241 3.318 9.025 5.708-7.504z"/><path fill-rule="evenodd" clip-rule="evenodd" fill="#505354" d="M160.468 62.658l.365-5.075-8.583-4.166-6.133 6.471 7.8-1.055zM184.25 59.167l-14 .416-.756 4.596 14.756-1.929z"/><path fill-rule="evenodd" clip-rule="evenodd" fill="#FFF1E9" d="M169.494 64.179l-3.211 19.06L157 81.614l3.468-18.956z"/><path fill-rule="evenodd" clip-rule="evenodd" fill="#C3937D" d="M173.375 93.25l-28.722-1.501-.195 2.617 27.917 1.009z"/><path fill-rule="evenodd" clip-rule="evenodd" fill="#F6CBB4" d="M120.524 32.928l22.717.216-12.917 72.982 25.301 4.124L125.5 127.5l-17.25-12.625-1.054-27.725 2.42-7.122-2.085-3.7.473-17.176z"/><path fill-rule="evenodd" clip-rule="evenodd" fill="#C3937D" d="M130.324 106.126l-11.28-.728L125.5 127.5l9.583 6.5 20.542-23.75z"/><path fill-rule="evenodd" clip-rule="evenodd" fill="#505354" d="M192.917 49l-12.192-4.766-20.06-5.679-10.141 2.359-8.65-.749-10.505 1.19-7.666-5.455-6.137-5.465 12.349-9.703 15.75 3.842 1.287-2.211 25.55 2.409zM132.342 44.43l-4.294 26.993-5.54-.747.655-10.872-15.159-.652 7.165-26.999z"/><path fill-rule="evenodd" clip-rule="evenodd" fill="#C3937D" d="M116.233 78.518l-9.037 8.632.304-10.444zM118.297 72.972l-.012-8.797-5.771-.441z"/><path fill="#2B2C2B" d="M148.643 67.255c-.845 1.413-.381 3.241 1.027 4.086 1.414.846 3.241.386 4.086-1.028.845-1.408.384-3.235-1.029-4.08-1.408-.845-3.239-.386-4.084 1.022M171.33 71.005c-.845 1.413-.381 3.241 1.027 4.086 1.414.846 3.241.386 4.086-1.028.845-1.408.384-3.235-1.029-4.08-1.407-.845-3.239-.386-4.084 1.022"/><path fill-rule="evenodd" clip-rule="evenodd" fill="#747575" d="M141.874 40.165l-24.308-9.73-2.397 1.718 17.173 12.277zM180.725 44.234l-33.773-21.871-17.037-1.631 20.609 20.182z"/><g><path fill-rule="evenodd" clip-rule="evenodd" fill="#308FA6" d="M270.164 274.487l9.462 3.911.127 4.289-28.007-.252-.095-4.226z"/><path fill-rule="evenodd" clip-rule="evenodd" fill="#3AA0BA" d="M268.567 260.021l4.247 5.635 6.812 12.742-27.975-.189.599-12.301z"/><path fill-rule="evenodd" clip-rule="evenodd" fill="#308FA6" d="M300.19 266.918l-8.242 5.382.084 4.458 32.212-.084-.379-4.164z"/><path fill-rule="evenodd" clip-rule="evenodd" fill="#3AA0BA" d="M304.479 256.32l4.416 1.767 14.97 14.423-31.917-.21-.337-8.41z"/><path fill-rule="evenodd" clip-rule="evenodd" fill="#5EC0D9" d="M251.241 140.004l-13.288-14.718L216 176.875l37.75 6.458-5.789-21.377z"/><path fill-rule="evenodd" clip-rule="evenodd" fill="#494749" d="M295.169 228.169l12.716 4.56 1.01 25.358-17.284 5.803-10.849-24.222z"/><path fill-rule="evenodd" clip-rule="evenodd" fill="#4F5353" d="M274.984 209.498L304 200.667l3.885 32.062-27.123 6.939-15.87-21.339zM258.642 222.342l-8.536 17.263 2.144 26.303 20.564-.252 5.425-25.736z"/><path fill-rule="evenodd" clip-rule="evenodd" fill="#6F7273" d="M279.021 209.161l3.701 18.503-4.483 12.256-28.133-.315-5.024-40.241z"/><path fill-rule="evenodd" clip-rule="evenodd" fill="#494749" d="M265.034 177.262l-19.952 22.102 37.64 28.3L304 200.667z"/><path fill-rule="evenodd" clip-rule="evenodd" fill="#5EC0D9" d="M302.984 132.61l7.746-5.727 19.485 36.418-30.775 4.52z"/><path fill-rule="evenodd" clip-rule="evenodd" fill="#308FA6" d="M298.091 146.384l9.147 18.838L304 200.667l-20.101 4.625-38.817-5.928-3.092-39.763z"/><path fill-rule="evenodd" clip-rule="evenodd" fill="#3AA0BA" d="M270.172 115.138l-15.087 4.391-17.132 5.757 4.735 43.297 45.724.336 18.826-3.697 3.492-38.339-11.482-3.104z"/><path fill-rule="evenodd" clip-rule="evenodd" fill="#FEE5D6" d="M322.51 40.732l12.74 5.351 6.75 7.75-6.691 35.535-25.732 24.795-25.381.911 3.908-46.416 4.506-20.499 17.947-4.832z"/><path fill-rule="evenodd" clip-rule="evenodd" fill="#F6CBB4" d="M294.625 119.083l-8.766 3.786-1.018-7.116 7.768-67.594-14.074 8.635-.462 10.341-.501 6.025-1.75 3.593-1.162 6.738-2.732-3.891-.722-7.397-5.018 3.883-1.221 3.692.68 4.047.616 6.832-1.37-.602-4.687 8.233-1.098 9.552 1.024 1.628-1.652 2.922-.918 6.351 22.908 16.639zM297.771 66.533l10.576 11.188 2.515 14.305 3.758-11.102-2.006-7.661-.955-3.94-4.492-2.535zM323.245 71.749l-1.341 3.623-2.62 4.258.379 6.718 14.326-12.385-6.623-3.071z"/><path fill-rule="evenodd" clip-rule="evenodd" fill="#FFF1E9" d="M321.904 75.372l-.785 18.797-6.044.813-4.213-2.956 1.752-18.763z"/><path fill-rule="evenodd" clip-rule="evenodd" fill="#F6CBB4" d="M273.469 80.785l.007 7.457-12.969.615.735-14.802 11.131-4.353z"/><path fill-rule="evenodd" clip-rule="evenodd" fill="#908F8F" d="M322.125 46.398L342 53.833 328.834 29.56l-10.75 7.207z"/><path fill-rule="evenodd" clip-rule="evenodd" fill="#747474" d="M328.834 29.56l-40.756-9.908.77 15.839 33.277 10.907z"/><path fill-rule="evenodd" clip-rule="evenodd" fill="#908F8F" d="M322.125 46.398l-34.047-26.746-25.088 16.89 15.86 8.093 13.76 3.524z"/><path fill-rule="evenodd" clip-rule="evenodd" fill="#747474" d="M262.99 36.542l-6.188 25.592 10.13 2.114 11.603-7.454 14.075-8.635z"/><path fill-rule="evenodd" clip-rule="evenodd" fill="#484848" d="M285.003 52.875l-5.053 30.366-6.266 1.67-1.199-14.209-11.243 3.353-4.44-11.921z"/><path fill-rule="evenodd" clip-rule="evenodd" fill="#C3937D" d="M265.04 75.869l3.824-.742.085 6.434zM260.507 88.857l8.66-.564-8.961 9.995zM321.119 94.169l-5.92 2.144-4.329-4.285z"/><path fill="#2B2C2B" d="M330.745 80.71c-.49 1.408-2.029 2.153-3.437 1.663-1.409-.49-2.153-2.029-1.663-3.437s2.029-2.153 3.437-1.663c1.409.49 2.153 2.029 1.663 3.437zM309.236 76.695c-.49 1.408-2.029 2.153-3.437 1.663-1.409-.49-2.153-2.029-1.663-3.437.49-1.409 2.029-2.153 3.437-1.663s2.153 2.029 1.663 3.437z"/><path fill-rule="evenodd" clip-rule="evenodd" fill="#C3937D" d="M272.763 112.908l12.244 1.26 36.129-.606-13.961 2.702-26.705 19.116z"/><path fill-rule="evenodd" clip-rule="evenodd" fill="#484848" d="M311.659 69.323l1.345-3.522-15.233.732zM323.245 71.749l1.475-3.616 9.269 5.83z"/><path fill-rule="evenodd" clip-rule="evenodd" fill="#349496" d="M291.685 89.183l-2.832-9.737-16.368-8.744.448 7.507zM291.584 100.383l-4.957 8.765-27.519-1.308-.628 4.55 26.527 1.778 9.394-7.719z"/><path fill-rule="evenodd" clip-rule="evenodd" fill="#349496" d="M288.853 79.446l46.456 9.922-6.023 33.239-44.279-8.439z"/><path fill-rule="evenodd" clip-rule="evenodd" fill="#4EA9AA" d="M331.684 92.478l-19.24-4.1-18.493-3.94-2.685 25.768 35.868 7.232z"/></g><g><path fill="#3AA0BA" d="M424.167 188.833l-29.334-10.666 16.537-41.132z"/><path fill-rule="evenodd" clip-rule="evenodd" fill="#FEE5D6" d="M504 147l.875-8.687L513 128l10.5 6.875L516.25 148z"/><path fill-rule="evenodd" clip-rule="evenodd" fill="#F5CBB3" d="M498.25 144l3.5-1.75 3.125-3.937L516.25 148l-8.75 10.5H498z"/><path fill-rule="evenodd" clip-rule="evenodd" fill="#FEE5D6" d="M497.25 163.75l-.75-10.5-2.25-12.25 9-9.5 2.5 3.25-4 7.5 2 7.75z"/><path fill="#4F5353" d="M413.645 107.616l-1.805 6.544-.47 22.875 25.29 5.103-6.995-33.845z"/><path fill="#29788C" d="M456.085 264.525l12.304-23.755-19.221-5.164-1.556 8.231-2.191 17.918 7.805 14.256z"/><path fill="#308FA6" d="M468.389 240.77l-4.327-27.262-17.233-18.539-9.277 29.769 10.06 19.099z"/><path fill-rule="evenodd" clip-rule="evenodd" fill="#F5CBB3" d="M461.163 276.392l-3.472 2.699-5.652-2.308-6.582-14.884 10.572 2.807z"/><path fill-rule="evenodd" clip-rule="evenodd" fill="#2A788C" d="M441.142 280.013l2.785.701 4.437-6.876-3.563-6.801-2.639 1.979-.704 1.3z"/><path fill-rule="evenodd" clip-rule="evenodd" fill="#3B9FB9" d="M461.163 276.392l4.195 8.881-13.213-1.869-9.983-14.388 3.259-7.261 8.973 13.627z"/><path opacity=".1" fill="#2B2B2B" d="M438.888 279.031l-45.689 6.761 46.414 9.204 53.964-9.439z"/><path fill="#308FA6" d="M424.635 246.995l7.244 21.663 7.764 14.111 2.541-13.735 2.048-20.118-8.882-15.98z"/><path fill="#5EC0D9" d="M433.403 209.566l-23.32 8.195 14.552 29.234 19.597 1.921-1.785-23.93z"/><path fill="#29788C" d="M457.378 193.702l5.654 12.866 1.03 6.94-21.615 11.478-32.364-7.225 8.533-18.339z"/><path fill="#3AA0BA" d="M488.668 173.052l-27.25-35.566L452.75 175l20 7.75z"/><path fill="#4F5353" d="M486.45 49.628l-6.544-1.88-23.616 8.649 23.692 7.672z"/><path fill="#434445" d="M425.884 132.603l-1.386-26.337-5.212-13.541-21.21-7.371 13.764 28.806 9.949 10.393z"/><path fill="#308FA6" d="M471.831 170.143l-18.332-16.96-7.933-20.598-20.802 1.032 9.906 18.137-19.503 22.079 3.449 25.589 44.416 7.146z"/><path fill="#5EC0D9" d="M471.831 170.143l-10.413-32.657-10.286-3.254-27.939-.331-11.823 3.134 3.797 36.798z"/><path fill="#FFF" d="M452.302 135.64l-12.137-3.109-17.015 1.172 1.635 21.311 18.487-13.355 15.495 9.742z"/><path fill="#F5CBB3" d="M445.611 122.801l-4.892-56.532-11.321-12.83-14.903 11.309 2.711 15.403-1.031 20.844 6.975 32.708 20.122 7.956 2.713-10.566z"/><path fill="#C3927D" d="M462.812 119.014l-16.303-3.73-19.319 6.455-2.736.509 18.818 19.411zM413.867 93.372l2.308 7.623 4.92-8.822z"/><path fill="#FEE5D6" d="M475.024 122.865l1.747-20.143 3.211-38.653-46.032-17.511-6.157 13.322-.603 61.859z"/><path fill="#494749" d="M413.867 93.372l5.869-8.563 2.524-.901 5.671-20.39-29.855 21.836z"/><path fill="#F5CBB3" d="M412.187 79.538l9.19-1.407 1.7 13.517-9.21 1.724zM459.303 74.44l-.911 5.687-2.384 3.393-4.267-3.932-1.439-5.668-9.303-2.214-6.236-.264 10.796 10.685 5.017 12.048 6.188.942 6.778-10.906 3.435-3.051 6.296-5.099-6.41-1.312z"/><path fill="#C3927D" d="M420.129 86.844l-.929-6.206-4.485.835z"/><path fill="#4F5353" d="M460.932 70.971l-1.629 3.469 13.97 1.621zM448.913 69.648l1.389 4.272-15.539-2.478z"/><path fill="#FFF1E9" d="M458.186 96.526l.206-16.399-6.651-.539-2.548 16.324z"/><path fill="#C3927D" d="M453.271 99.486l4.915-2.96-8.993-.614z"/><path fill="#2B2C2B" d="M466.219 81.192c-1.552-.249-3.052.837-3.301 2.389-.249 1.551.837 3.052 2.389 3.301 1.552.248 3.052-.838 3.301-2.39.249-1.552-.837-3.052-2.389-3.3zM445.9 79.256c-1.552-.249-3.052.837-3.301 2.388-.249 1.552.837 3.052 2.39 3.301 1.552.248 3.052-.838 3.301-2.39.248-1.55-.838-3.05-2.39-3.299z"/><path fill-rule="evenodd" clip-rule="evenodd" fill="#2A788C" d="M431.879 268.658l-3.871 7.651 3.238 13.819 1.668.667 1.683-9.774z"/><path fill-rule="evenodd" clip-rule="evenodd" fill="#F5CBB3" d="M431.879 268.658l10.305.376-.422 12.953-8.49-.277z"/><path fill-rule="evenodd" clip-rule="evenodd" fill="#3B9FB9" d="M431.879 268.658l4.882 10.887 4.89-.167.533-10.344-.006-.002h.006l6.187 21.654-15.457.109z"/><path fill="#FFF" d="M453.244 104.136l8.304 2.483-9.294 4.942-10.517-7.058z"/><path fill="#72CBCC" d="M452.337 110.204l8.609-3.461.228-.466 1.795.212-11.157 8.143L440.45 104.3l1.715.306.514.241z"/><path fill="#349496" d="M462.969 106.489l-4.497-1.279-4.898-2.79-6.747 1.327-6.377.553 2.347.559 10.251 1.428 7.898.456z"/><path fill="#4F5353" d="M472.536 30.224l-51.67 4.061-18.277 23.165 38.809-7.822z"/><path fill="#737475" d="M439.744 64.295l46.706-14.667-13.914-19.404-69.947 27.226 9.026 8.65z"/><path fill="#4F5353" d="M398.076 85.354l4.513-27.904 37.155 6.845z"/><path fill-rule="evenodd" clip-rule="evenodd" fill="#5EC0D9" d="M496.5 153.25s-24.5 29.25-23.75 29.5 20.75 8.75 20.75 8.75l14-33-11-5.25z"/></g><g fill-rule="evenodd" clip-rule="evenodd"><path opacity=".102" fill="#2B2C2B" d="M25.25 300l166.5 40.5L318 332l57.75 15.25L422 342.5l42 7.25 86.75-6.5-45.5-13.5 90-13 65 7.75 49.5-10.5-74.25-14.5-27-22-73-23-320 7.25-139.5-4.5-12.5 40.25z"/><path fill="#349496" d="M619.5 289.125l-10.25 15.25-19.625-2.25-15.25-35.75 36.75 1z"/><path fill="#1F7678" d="M71 273.5l7.833 30.667 18.667-1.834 16.667-50.833-39.167-4z"/><path fill="#4EA9AA" d="M162.5 269.5l30 57.333 34.001-1.835L239.5 290l358-13.5 11.75 27.875L634 303l15.167-52.167-8.667-20-468.667 9.334z"/><path fill="#349496" d="M75.167 220.833l-28 8.667 7.333 70 23.984 4.75 6.683-38.75 67.333 14 6.912 40.78 33.088 6.553 2.667-68z"/><path fill="#B3B3B3" d="M153.167 204.833l42 54L650.5 245.5l.667-24-173.334-10z"/><path fill="#9B9FA0" d="M257.167 216.833L31.5 198l15.667 31.5 148 29.333 14-30z"/><path fill="#D0CECD" d="M209.167 228.833L671.5 221.5l-165-27-475 3.5z"/></g><g><path opacity=".1" fill="#2B2B2B" d="M367.917 195.5l-69.417 9-62.125-3.5 2.792-3.833 7.666-1zM188.667 197l8.666 15.333-3.833 5.334-36.333 1.666L85.833 197.5zM487.833 200.167l23.334 2.333.666 6 30.334 10.667-81 2.333-32-14-28.5-6.833L442.5 192.5z"/><path fill="#737475" d="M193.333 177.333l-12.166-4.5-19 9.667 33.333 14z"/><path fill="#A3A1A1" d="M179.167 172.333L181.75 177l18.75 19 7.826-9.862-14.159-22.805-5.479 1.323z"/><path fill="#8F8F8F" d="M160.833 174l-.546-12.168 28.401 2.824L181.75 177l-23.417-.417z"/><path fill="#A3A1A1" d="M146.887 178.151l-20.893-11.769L118 183.208l18.894 29.958 34.907-7.639z"/><path fill="#C4C4C2" d="M158.855 171.424l-14.696-3.719-18.165-1.323 20.651 30.253 29.284 1.788z"/><path fill="#8F8F8F" d="M180.498 183.089l27.828 3.049 3.446 10.962-3.322 11.684-71.556 4.382 9.751-16.531 24.063-1.265 1.025-16.289z"/><path fill="#A3A1A1" d="M160.287 161.832l-16.128 5.873 26.549 27.665 9.79-12.281zM205.208 185.813l3.118.325 2.007-21.471-21.5-18z"/><path fill="#737475" d="M182.658 186.424l-8.272 9.643 33.772.933-2.188-8.237z"/><path fill="#4F5353" d="M155.889 217.247l-2.977.256-3.114-2.845c-1.208-1.325-.805-3.149-.267-4.006 1.771-2.826 5.826-7.377 10.121-8.255 5.681-1.161 7.196.934 7.196.934l-10.959 13.916z"/><ellipse transform="rotate(-44.895 160.23979902 210.7090187)" fill="#6F7273" cx="160.223" cy="210.696" rx="10" ry="6.619"/><path fill="#A3A1A1" d="M163.428 213.969c-2.333 2.324-5.471 2.957-7.009 1.413-1.538-1.544-.895-4.68 1.438-7.004s5.471-2.957 7.009-1.413c1.539 1.544.895 4.68-1.438 7.004z"/><path fill="#858686" d="M164.866 206.965c-.469-.471-1.087-.736-1.785-.816 1.415 1.576.764 4.619-1.519 6.894-1.622 1.616-3.631 2.411-5.223 2.229.031.034.048.077.081.11 1.538 1.544 4.676.911 7.009-1.413 2.332-2.324 2.976-5.46 1.437-7.004z"/><path fill="#4F5353" d="M193.359 215.77l-2.699.274-2.785-2.587c-1.077-1.207-.689-2.896-.192-3.694 1.639-2.63 5.367-6.88 9.268-7.743 5.158-1.141 6.505.773 6.505.773l-10.097 12.977z"/><path fill="#6F7273" d="M201.536 213.939c-3.591 3.646-8.37 4.691-10.674 2.333-2.304-2.358-1.261-7.224 2.33-10.87 3.591-3.646 8.37-4.691 10.674-2.333 2.304 2.358 1.261 7.224-2.33 10.87z"/><path fill="#A3A1A1" d="M200.226 212.652c-2.141 2.174-4.99 2.797-6.364 1.391-1.374-1.406-.752-4.307 1.389-6.481 2.141-2.174 4.99-2.797 6.364-1.391 1.374 1.405.752 4.307-1.389 6.481z"/><path fill="#858686" d="M201.615 206.17c-.419-.428-.976-.666-1.607-.731 1.262 1.437.635 4.253-1.461 6.38-1.488 1.511-3.318 2.27-4.757 2.122.027.031.043.071.072.101 1.374 1.406 4.223.783 6.364-1.391 2.141-2.173 2.763-5.075 1.389-6.481z"/><path fill="#737475" d="M159.12 165.781l-8.837 3.427 19.743 20.802 5.428-6.756z"/><path fill="#8F8F8F" d="M188.646 164.708L185.375 147 201 159.25l4 6.875.208 19.688z"/><path fill="#C4C4C2" d="M185.375 147l3.458-.333 21.5 18-5.333 1.458z"/><g fill-rule="evenodd" clip-rule="evenodd"><path fill="#F6CBB4" d="M124.667 193.75l14.75-9.25 9.25 9-2.356 12.635-17.894-2.635z"/><path fill="#FEE5D6" d="M103.417 187.75L118 183.333l21.417 1.167-11 19-17.25-3.333z"/><path fill="#308FA6" d="M118 183.333l-31.833-15.5L58 186.5l53.167 13.667z"/></g><path fill="#FEE5D6" d="M198.875 156.375l11.292 8.042-7.542-16.667-13.792-1.083z"/><path fill="#F6CBB4" d="M188.833 146.667l.375 12 11.375 9.75 9.584-4z"/><g><path fill="#4EA9AA" d="M334.909 157.932l-24.357-6.335-7.078 15.745 29.795 26.966 32.201-15.49z"/><path fill="#72CBCC" d="M345.001 148.624l-15.158-.226-19.291 3.199 28.388 24.376 28.907-5.021z"/><path fill="#8F8F8F" d="M370.142 142.349l26.39 9.171 5.883 9.87-.535 12.136-68.611 20.782 5.671-18.335 23.121-6.786-2.763-16.086z"/><path fill="#A3A1A1" d="M376.613 141.236l-32.433-2.276-14.337 9.438 32.218 20.789 6.691-14.209z"/><path fill="#C4C4C2" d="M372.596 135.879l23.936 15.641-27.78 3.458-24.572-16.018z"/><path fill="#737475" d="M371.624 157.725l-5.823 11.291 33.075-6.888-4.031-7.51z"/><path fill="#4F5353" d="M352.693 193.894l-2.837.937-3.687-2.049c-1.481-1.01-1.51-2.878-1.185-3.836 1.071-3.159 3.966-8.523 7.943-10.368 5.259-2.441 7.218-.752 7.218-.752l-7.452 16.068z"/><ellipse transform="rotate(-58.244 355.40458978 186.51905702)" fill="#6F7273" cx="355.397" cy="186.52" rx="10" ry="6.619"/><path fill="#A3A1A1" d="M359.272 188.964c-1.733 2.8-4.64 4.14-6.493 2.993-1.853-1.147-1.951-4.347-.218-7.147s4.64-4.14 6.493-2.993c1.854 1.148 1.951 4.347.218 7.147z"/><path fill="#858686" d="M359.055 181.818c-.565-.35-1.228-.465-1.926-.382 1.741 1.207 1.81 4.318.113 7.058-1.205 1.947-2.976 3.185-4.568 3.375.038.026.065.064.104.089 1.853 1.147 4.76-.193 6.493-2.993 1.734-2.801 1.637-6-.216-7.147z"/><g><path fill="#4F5353" d="M388.81 183.807l-2.563.889-3.306-1.874c-1.327-.926-1.339-2.659-1.04-3.549.988-2.937 3.634-7.934 7.23-9.674 4.755-2.302 6.507-.75 6.507-.75l-6.828 14.958z"/><ellipse transform="rotate(-59.556 391.3230204 176.95423497)" fill="#6F7273" cx="391.299" cy="176.948" rx="9.267" ry="5.967"/><path fill="#A3A1A1" d="M394.772 179.188c-1.581 2.609-4.21 3.873-5.871 2.823-1.661-1.051-1.726-4.017-.145-6.627 1.581-2.609 4.21-3.873 5.871-2.823 1.662 1.05 1.726 4.017.145 6.627z"/><path fill="#858686" d="M394.627 172.561c-.506-.32-1.103-.423-1.732-.34 1.56 1.107 1.599 3.991.051 6.545-1.099 1.814-2.704 2.975-4.139 3.163.034.024.058.059.093.081 1.661 1.051 4.29-.213 5.871-2.823 1.582-2.609 1.518-5.576-.144-6.626z"/></g><path fill="#737475" d="M343.956 143.073l-7.807 5.374 24.012 15.682 3.721-7.826z"/></g><g fill-rule="evenodd" clip-rule="evenodd"><path fill="#C4C4C2" d="M314 161.875l1.583 4.125-1.5 1.5-3.583-.625z"/><path fill="#8F8F8F" d="M291.359 143.172l-.109-.734L314 161.875l-.667 3.792-2.833 1.208-24.812-18.562 5.562-5.875"/><path fill="#6F7273" d="M291.125 146.333l22.208 19.334-2.833 1.208-24.812-18.562 5.562-5.875"/><path fill="#C4C4C2" d="M291.125 146.333l.125-3.895-4.625 1.145-1.333 2.334.396 2.396z"/><path fill="#F6CBB4" d="M287 161l3.667-9 17.208 9.5-1.042 11.833-11.5 2.334z"/><path fill="#FEE5D6" d="M264.833 173.5l8.5-7.667L290.667 152l4.666 23.667-19.833 7z"/><path fill="#F6CBB4" d="M273.333 165.833l-57.666 11L236.375 201l39.125-18.333z"/></g><path fill="#4F5353" d="M444 185.5l-5.333-8.5 61.166.167 15.5 5.666-15.5 15.5z"/><path fill="#8F8F8F" d="M460 198.833l5.667-14.666 49.666-1.334.334 32.334-51.167.333z"/><path fill="#737475" d="M438.667 177l-.167 29.333 26 9.167 1.167-31.333z"/><g><path fill="#F5CBB3" d="M443.583 194.083l-5.083-4.25 12.25-6.416 2.083 3zM451 199.667l2.5-11.834 12.333 6.667-1.333 9-12 2z"/><path fill="#FEE5D6" d="M432.833 194.167l5.667-4.334 15-2-1 17.667-16.333-4.667z"/><path fill="#5EC0D9" d="M438.5 189.833L396.917 179l3.75 21.667 35.5.166z"/></g><path fill="#B3B3B3" d="M503 200.167l-2.167-4.333-12.667-.167-3.333 3-6.583 1.5-.167 4.25 4.405.015c-.014.098-.03.196-.03.298 0 1.185.961 2.146 2.146 2.146s2.146-.961 2.146-2.146c0-.097-.016-.189-.029-.283l9.354.032c-.017.11-.034.22-.034.335 0 1.185.961 2.146 2.146 2.146s2.146-.961 2.146-2.146c0-.11-.016-.215-.032-.32l2.366.008.333-4.335z"/></g><g><path fill="#C3927D" d="M600.317 110.417l-3.563 2.083-6.875-8.771 10.938-5.562 3.187 8.5z"/><path fill="#F5CAB4" d="M596.754 112.5l4.344-2.953 1.281-5.005 4.25 2.458 13.958 30.75-2.75 10.25-13.333-2.5z"/><path fill="#FEE5D6" d="M604.504 145.5l35.125 30.75 6.042 4.583 5.706-28.012-30.79-15.071z"/><path fill-rule="evenodd" clip-rule="evenodd" fill="#327D7E" d="M722.217 86.741l-3.798 38.567-45.939 45.423 9.114-31.66 9.799-54.571z"/><path fill-rule="evenodd" clip-rule="evenodd" fill="#45999A" d="M722.47 86.748l8.348 1.064-12.395 37.412-4.829-19.247s.009-19.882-.022-18.614c-.104.674 4.226.11 8.898-.615zM718.419 125.308l6.815 25.992-21.796 22.679-4.636 2.936-25.734-6.001 21.061-32.278z"/><path fill-rule="evenodd" clip-rule="evenodd" fill="#327D7E" d="M725.234 151.3l-26.252 45.444-5.942-9.825-13.244-14.39-1.547-2.582zM631.914 71.446l3.639 9.218 25.162-13.629-14.445-10.783z"/><path fill-rule="evenodd" clip-rule="evenodd" fill="#FEE5D6" d="M635.553 80.664l-10.931 52.075 26.652 7.573 7.02 6.613 6.394 17.596 13.661 5.008 7.102-51.763 8.004-24.752-18.754-23.108-21.854-3.076z"/><path fill-rule="evenodd" clip-rule="evenodd" fill="#C2927D" d="M686.881 88.783l-34.03-21.954-6.667 5.331z"/><path fill-rule="evenodd" clip-rule="evenodd" fill="#F5CBB5" d="M658.294 146.925l4.409 13.398 10.705 13.816 4.841-4.192 20.436-40.584-3.926-14.908-5.11-1.911 3.806-19.529-6.574-4.232-14.954 57.651z"/><path fill-rule="evenodd" clip-rule="evenodd" fill="#C2927D" d="M662.703 160.323l16.613-11.667-28.042-8.344z"/><path fill-rule="evenodd" clip-rule="evenodd" fill="#FEE5D6" d="M690.5 125.343l8.185 4.02 8.683-15.003-11.177-6.129z"/><path fill-rule="evenodd" clip-rule="evenodd" fill="#77CACD" d="M713.591 106.061L637.54 56.955l25.908-29.953 49.755 54.936z"/><path fill-rule="evenodd" clip-rule="evenodd" fill="#57AAAD" d="M663.448 27.002l67.37 60.81-17.227 18.249z"/><path fill-rule="evenodd" clip-rule="evenodd" fill="#F5CBB5" d="M669.925 92.393l10.384 5.187-13.241 1.601-12.904 14.639 3.601-14.796 4.219-6.152zM645.965 86.902l5.855 3.252 1.392 14.757-3.676 7.942-5.09-18.999-6.237-7.438z"/><path fill-rule="evenodd" clip-rule="evenodd" fill="#FFF1E9" d="M661.984 92.872l-7.82 20.949-4.628-.967 2.283-22.699z"/><path fill-rule="evenodd" clip-rule="evenodd" fill="#45999A" d="M680.309 97.58l-13.072-8.44-5.253 3.732zM651.82 90.154l-2.284-5.429-11.327 1.691z"/><path fill-rule="evenodd" clip-rule="evenodd" fill="#C2927D" d="M651.495 115.612l-1.959-2.758 4.628.967zM702.096 115.408c-.34-.009-4.18-1.97-4.18-1.97l-2.427 8.736 6.607-6.766zM690.5 125.343l3.629 13.293 4.556-9.273z"/><path fill-rule="evenodd" clip-rule="evenodd" fill="#2B2C2B" d="M641.63 94.796c-.049 1.861 1.351 3.335 3.211 3.384 1.776.047 3.167-1.355 3.216-3.216.046-1.861-1.353-3.336-3.043-3.378-1.86-.051-3.335 1.35-3.384 3.21z"/><path fill-rule="evenodd" clip-rule="evenodd" fill="#F5CBB5" d="M628.76 287.215l1.697-8.042 13.988-6.352-1.864 12.211-2.963 4.392-5.687 1.668zM681.685 277.698l-5.173 17.924-5.409 1.368-2.934-4.438-3.552-7.52 9.021-13.988z"/><path fill-rule="evenodd" clip-rule="evenodd" fill="#C2927D" d="M681.266 279.085l-16.649 5.947-3.464-7.334 9.128-12.867zM630.457 279.173c-.646-.107 12.124 5.859 12.124 5.859l4.215-5.859-4.64-8.128-11.699 8.128z"/><path fill-rule="evenodd" clip-rule="evenodd" fill="#378090" d="M636.304 310.406l3.22-.095 2.026-12.421-1.932-8.466-7.457 4.97 1.658 4.876zM676.542 295.128l4.97 10.674-5.642 9.389z"/><path fill-rule="evenodd" clip-rule="evenodd" fill="#FEE5D6" d="M668.169 292.552l-4.968 7.73 4.6 5.887 9.939 1.933-1.198-12.974z"/><path fill-rule="evenodd" clip-rule="evenodd" fill="#44A1BA" d="M677.74 308.102l-14.539-7.82-2.024 2.944 3.128 4.876 13.62 3.314z"/><path fill-rule="evenodd" clip-rule="evenodd" fill="#FEE5D6" d="M677.925 311.416l-16.748-8.19-5.157 8.19 8.1 1.565zM628.76 287.215l-8.467 9.202 4.417 4.786 6.53 2.391 8.378-14.17z"/><path fill-rule="evenodd" clip-rule="evenodd" fill="#44A1BA" d="M631.24 303.594l-10.947-7.177-2.76 2.484 4.048 4.511 8.005 2.391z"/><path fill-rule="evenodd" clip-rule="evenodd" fill="#FEE5D6" d="M629.586 306.539l-12.053-7.638-7.916 7.638 10.583 1.658z"/><path fill-rule="evenodd" clip-rule="evenodd" fill="#378090" d="M677.925 311.416l-2.055 3.775h-21.904v-3.775zM633.819 299.27l1.657 1.566-.643 1.655-7.915 8.097h-17.301v-4.049h14.263z"/><path fill-rule="evenodd" clip-rule="evenodd" fill="#F5CBB5" d="M677.925 311.416l-19.327-4.14-4.632 4.14zM623.88 306.539l-15.182-5.336.919 5.336z"/><path fill-rule="evenodd" clip-rule="evenodd" fill="#3C97AB" d="M680.57 215.137l-17.431 31.483-21.236-22.468-13.015-45.332 26.508-18.346 32.588 37.926z"/><path fill-rule="evenodd" clip-rule="evenodd" fill="#FEE5D6" d="M651.377 152.821l38.903 12.905 7.374 14.411-9.67 18.263-27.524-30.108z"/><path fill-rule="evenodd" clip-rule="evenodd" fill="#66C1DB" d="M628.888 178.82l22.489-25.999 7.664 2.542 28.943 43.037z"/><path fill-rule="evenodd" clip-rule="evenodd" fill="#4E8899" d="M661.703 279.168l-14.258-9.874 8.895-37.478 38.422.548-13.496 46.721z"/><path fill-rule="evenodd" clip-rule="evenodd" fill="#66C1DB" d="M640.716 249.225l.701-27.058 39.153-7.03 14.192 17.227-40.271 30.108z"/><path fill-rule="evenodd" clip-rule="evenodd" fill="#44A1BA" d="M630.457 279.173l24.248-7.348-.214-9.353-13.074-40.305z"/><path fill-rule="evenodd" clip-rule="evenodd" fill="#378090" d="M630.457 279.173l31.246-.005-7.212-16.696z"/><path fill-rule="evenodd" clip-rule="evenodd" fill="#F5CBB5" d="M711.254 201.5l-11.309-1.169-11.961-1.931 2.296-32.674z"/><g fill-rule="evenodd" clip-rule="evenodd"><path fill="#77CACD" d="M642.46 123.239l8.162 6.487 9.35 1.174-5.242-7.152z"/><path fill="#327D7E" d="M638.796 122.92l11.157-3.02 2.687 2.77 5.104-.448 2.228 8.678-8.749-6.896z"/></g><path fill-rule="evenodd" clip-rule="evenodd" fill="#2B2C2B" d="M663.004 99.688l4.064-.507 4.936 3.069-1.062 1.25-4.688-2.417-3.312-.02z"/><path fill-rule="evenodd" clip-rule="evenodd" fill="#ECECEB" d="M684.754 174l-10.125 42.375 35.875 8.875 9-43.5z"/><path fill-rule="evenodd" clip-rule="evenodd" fill="#FEE5D6" d="M710.879 203.438l5.938-8.563 1.5 9.563-5.75 10.812z"/><path fill-rule="evenodd" clip-rule="evenodd" fill="#F5CBB5" d="M706.129 200.063l10.688-5.188-4.25 20.375-5-5.062z"/><g><path fill="#3AA0BA" d="M559.171 89.5l-25.167-.167-3 17 35.5 18.834 27.417-22.917z"/><path fill="#5EC0D9" d="M566.671 78l-14.75 3.5-17.917 7.833 33.5 16.667 26.792-11.958z"/><path fill="#308FA6" d="M589.504 65.75l27.833 2.417 8.125 8.125 2.459 11.896-61.417 36.979 1-19.167 20.75-12.25-6.625-14.917z"/><path fill="#3AA0BA" d="M595.504 63.083l-32 5.75L551.921 81.5l36.333 12.25 3-15.417z"/><path fill="#5EC0D9" d="M590.296 58.875l27.041 9.292-26.083 10.166-27.75-9.5zM536.671 96.438l-1.125 6.062 4.187 2.188 1.563-6.188zM555.921 105.375l-1.125 6.063 5.375 3.062.562-6.812z"/><path fill="#29788C" d="M594.712 80.292l-2.875 12.375 30.375-14.792-5.75-6.292z"/><path fill="#4F5353" d="M585.233 120l-2.521 1.604-4.077-1.082c-1.684-.616-2.17-2.42-2.09-3.428.263-3.325 1.754-9.235 5.156-12 4.5-3.656 6.812-2.5 6.812-2.5L585.233 120z"/><path fill="#6F7273" d="M592.356 114.184c-1.666 5.266-5.841 8.64-9.326 7.538-3.485-1.103-4.96-6.265-3.294-11.53 1.666-5.266 5.841-8.64 9.326-7.538 3.485 1.102 4.96 6.264 3.294 11.53z"/><path fill="#A3A1A1" d="M590.402 113.607c-.993 3.139-3.483 5.152-5.561 4.494-2.078-.657-2.957-3.735-1.964-6.875.993-3.14 3.483-5.152 5.561-4.494 2.078.657 2.957 3.735 1.964 6.875z"/><path fill="#858686" d="M588.438 106.732c-.633-.2-1.305-.15-1.961.102 1.984.743 2.814 3.742 1.841 6.814-.69 2.183-2.104 3.818-3.6 4.392.043.016.079.047.123.061 2.078.657 4.568-1.355 5.561-4.494.993-3.14.114-6.218-1.964-6.875z"/><g><path fill="#4F5353" d="M617.772 101.361l-2.266 1.491-3.665-1.006c-1.513-.572-1.951-2.249-1.879-3.186.237-3.09 1.576-8.582 4.636-11.152 4.046-3.398 6.125-2.323 6.125-2.323l-2.951 16.176z"/><path fill="#6F7273" d="M624.175 95.956c-1.497 4.893-5.251 8.03-8.384 7.005-3.133-1.025-4.459-5.822-2.962-10.715 1.497-4.893 5.251-8.03 8.384-7.005 3.134 1.025 4.46 5.822 2.962 10.715z"/><path fill="#A3A1A1" d="M622.419 95.42c-.893 2.917-3.131 4.787-4.999 4.177-1.868-.611-2.659-3.471-1.766-6.389.893-2.918 3.131-4.788 4.999-4.177s2.658 3.472 1.766 6.389z"/><path fill="#858686" d="M620.653 89.031c-.569-.186-1.173-.139-1.763.095 1.783.691 2.529 3.477 1.656 6.333-.621 2.028-1.892 3.548-3.237 4.082.039.015.071.043.11.056 1.868.611 4.106-1.259 4.999-4.177.893-2.917.103-5.778-1.765-6.389z"/></g><path fill="#29788C" d="M564.296 72.875L558.046 80l27.125 9.313 1.687-8.5z"/></g><path fill="#FEE5D6" d="M601.098 109.547l5.531-2.547 1.563-7.125-7.188-7.833-2.062 3.208 3.125 5.313-2.146 4.416z"/></g><g><path opacity=".102" fill-rule="evenodd" clip-rule="evenodd" fill="#2B2C2B" d="M695.167 329.833l140.666 20.334 64-23.334-126.333-18z"/><path fill-rule="evenodd" clip-rule="evenodd" fill="#838484" d="M410.221 296.327l31.217 3.298-6.73 33.708-55.874 4.25-10.946-30.133 17.867-14.156z"/><path fill-rule="evenodd" clip-rule="evenodd" fill="#8F9293" d="M361.45 310.079l-25.242-15.746 66-3.75 39.667 9.98-61.432 3.045z"/><path fill-rule="evenodd" clip-rule="evenodd" fill="#737475" d="M334.167 326.5l2.041-32.167 44.235 9.275-1.609 33.975z"/><path fill="#B3B3B3" d="M422.004 317.846l-2.728-4.601-13.962.818-3.434 3.567-7.131 2.172.152 4.693 4.852-.332c-.007.109-.018.218-.01.33.094 1.305 1.228 2.287 2.533 2.193 1.305-.094 2.287-1.228 2.193-2.533-.008-.107-.033-.207-.054-.31l10.303-.704c-.01.122-.02.245-.011.371.094 1.305 1.228 2.287 2.533 2.193 1.305-.094 2.287-1.228 2.193-2.533-.009-.121-.035-.236-.061-.35l2.606-.178.026-4.796z"/><path opacity=".26" fill-rule="evenodd" clip-rule="evenodd" fill="#ECECEB" d="M366.875 296.375L352 297.75l.25 9.5 9.2 2.829 2.425-9.829 14-.625z"/><path fill-rule="evenodd" clip-rule="evenodd" fill="#838484" d="M410.221 258.952l26.279 4.736-1.792 32.27-55.874 4.25-10.946-30.133 17.867-14.156z"/><path fill-rule="evenodd" clip-rule="evenodd" fill="#8F9293" d="M361.45 272.704l-25.242-15.746L400 255l37.25 8.5-56.807 2.733z"/><path fill-rule="evenodd" clip-rule="evenodd" fill="#737475" d="M336.958 289.458l-.75-32.5 44.235 9.275-1.609 33.975z"/><path fill="#B3B3B3" d="M422.004 280.471l-2.728-4.601-13.962.818-3.434 3.567-7.131 2.172.152 4.693 4.852-.332c-.007.109-.018.218-.01.33.094 1.305 1.228 2.287 2.533 2.193 1.305-.094 2.287-1.228 2.193-2.533-.008-.107-.033-.207-.054-.31l10.303-.704c-.01.122-.02.245-.011.371.094 1.305 1.228 2.287 2.533 2.193 1.305-.094 2.287-1.228 2.193-2.533-.009-.121-.035-.236-.061-.35l2.606-.178.026-4.796z"/><path opacity=".26" fill-rule="evenodd" clip-rule="evenodd" fill="#ECECEB" d="M368.167 260l-14 .667-.084 5.75 10.5 4.833.584-7.917 9.166-.333zM400 257l7.75-.25 9.083 2.083-9.083.417z"/><g><path fill-rule="evenodd" clip-rule="evenodd" fill="#8F8F8F" d="M498.013 303.494l26.237 3.033-1.75 33.973-55.875 4.25-10.945-30.133 17.867-14.157z"/><path fill-rule="evenodd" clip-rule="evenodd" fill="#9B9FA0" d="M449.241 317.246L424 301.5l66-3.75 34.25 8.777-56.015 4.247z"/><path fill-rule="evenodd" clip-rule="evenodd" fill="#737475" d="M424.75 334l-.75-32.5 44.235 9.274-1.61 33.976z"/><path fill="#B3B3B3" d="M509.796 325.012l-2.729-4.6-13.962.818-3.434 3.567-7.131 2.172.152 4.693 4.852-.332c-.007.109-.017.218-.009.33.094 1.305 1.228 2.287 2.533 2.193 1.305-.094 2.287-1.228 2.193-2.533-.008-.107-.033-.208-.054-.31l10.303-.705c-.01.122-.02.245-.011.371.094 1.305 1.227 2.287 2.533 2.193 1.305-.094 2.287-1.228 2.193-2.533-.009-.121-.035-.236-.061-.35l2.606-.178.026-4.796z"/><path opacity=".26" fill-rule="evenodd" clip-rule="evenodd" fill="#ECECEB" d="M459.625 302.875l-21.125 1.688-.375 12.187 9-.25.938-9.812 16.812-2z"/></g><g><path fill-rule="evenodd" clip-rule="evenodd" fill="#8F8F8F" d="M498.013 266.119l26.237 3.033-1.75 33.973-55.875 4.25-10.945-30.133 17.867-14.157z"/><path fill-rule="evenodd" clip-rule="evenodd" fill="#9B9FA0" d="M449.241 279.871L424 264.125l66-3.75 34.25 8.777-56.015 4.247z"/><path fill-rule="evenodd" clip-rule="evenodd" fill="#737475" d="M424.75 296.625l-.75-32.5 44.235 9.274-1.61 33.976z"/><path fill="#B3B3B3" d="M509.796 287.637l-2.729-4.6-13.962.818-3.434 3.567-7.131 2.172.152 4.693 4.852-.332c-.007.109-.017.218-.009.33.094 1.305 1.228 2.287 2.533 2.193 1.305-.094 2.287-1.228 2.193-2.533-.008-.107-.033-.208-.054-.31l10.303-.705c-.01.122-.02.245-.011.371.094 1.305 1.227 2.287 2.533 2.193 1.305-.094 2.287-1.228 2.193-2.533-.009-.121-.035-.236-.061-.35l2.606-.178.026-4.796z"/><path opacity=".26" fill-rule="evenodd" clip-rule="evenodd" fill="#ECECEB" d="M452.75 266.75l-13.917.5.5 6.5 9.25 2.083.25-6.333 9.5-1.083zM488.833 264.083l11.084-1.25 7.583 2-10.583 1z"/></g><g fill-rule="evenodd" clip-rule="evenodd"><path fill="#9B9FA0" d="M756.53 314.47l-22.458-21.574 41.406-9.005 39.022 6.003-42.024 31.705z"/><path fill="#8F8F8F" d="M769.85 314.095l10.262 16.072 35.138-10.819-.75-29.454-33.761 6.76z"/><path fill="#737475" d="M734.072 324.842v-31.946l46.667 3.758-.627 33.513z"/><path fill="#B3B3B3" d="M808.309 310.343l-.75-4.596-3.377-2.064-9.005 1.876-1.688 4.503-3.096.938-.281 3.846 2.994-.741c.113.882.673 1.554 1.352 1.554.76 0 1.376-.84 1.376-1.876 0-.119-.01-.234-.026-.346l8.636-2.137c.18.75.692 1.295 1.302 1.295.76 0 1.376-.84 1.376-1.876 0-.027-.005-.053-.006-.08l1.193-.296z"/><path opacity=".26" fill="#ECECEB" d="M761.625 292.313l-9.937 2-.063 7.625L762.063 303l1.062-7.75 9.688-2.375z"/></g><g fill-rule="evenodd" clip-rule="evenodd"><path fill="#9B9FA0" d="M756.53 278.638l-22.458-21.575 41.406-9.005 39.022 6.003-42.024 31.706z"/><path fill="#8F8F8F" d="M769.85 278.263l10.262 16.071 34.576-8.192-.188-32.081-33.761 6.761z"/><path fill="#737475" d="M734.072 289.01v-31.947l46.667 3.759-.627 33.512z"/><path fill="#B3B3B3" d="M808.309 274.51l-.75-4.596-3.377-2.064-9.005 1.876-1.688 4.503-3.095.938-.281 3.846 2.994-.741c.113.882.673 1.554 1.352 1.554.76 0 1.376-.84 1.376-1.876 0-.119-.01-.234-.026-.346l8.636-2.137c.18.75.692 1.295 1.302 1.295.76 0 1.376-.84 1.376-1.876 0-.027-.005-.053-.006-.08l1.192-.296z"/><path opacity=".26" fill="#ECECEB" d="M760.313 256.813l-10.125 1.437.125 7.188 11.25.812.625-6.937 9-1.438z"/></g><g fill-rule="evenodd" clip-rule="evenodd"><path fill="#9B9FA0" d="M756.53 242.617l-22.458-21.574L769.75 214l44.75 4.041-42.024 31.706z"/><path fill="#8F8F8F" d="M769.85 242.242l10.262 16.072 34.576-8.192-.188-32.081-33.761 6.76z"/><path fill="#737475" d="M734.072 252.989v-31.946l46.667 3.758-.627 33.513z"/><path fill="#B3B3B3" d="M808.309 238.49l-.75-4.596-3.377-2.064-9.005 1.876-1.688 4.502-3.095.938-.281 3.846 2.994-.741c.113.882.673 1.554 1.352 1.554.76 0 1.376-.84 1.376-1.876 0-.119-.01-.234-.026-.346l8.636-2.137c.18.75.692 1.295 1.302 1.295.76 0 1.376-.84 1.376-1.876 0-.027-.005-.053-.006-.08l1.192-.295z"/><path opacity=".26" fill="#ECECEB" d="M759.313 220.75l-9.625 1.563V227l10.625.875.437-4.625 9.875-1.812zM777 216.167l6.583-.959 6.792.667-4.375.958z"/></g><g fill-rule="evenodd" clip-rule="evenodd"><path fill="#9B9FA0" d="M810.53 326.978l-22.458-21.575 41.406-9.005 39.022 6.003-42.024 31.706z"/><path fill="#8F8F8F" d="M823.85 326.603l10.262 16.071 35.138-10.819-.75-29.454-33.761 6.76z"/><path fill="#737475" d="M788.072 337.35v-31.947l46.667 3.758-.627 33.513z"/><path fill="#B3B3B3" d="M862.309 322.85l-.75-4.596-3.377-2.064-9.005 1.876-1.688 4.503-3.095.938-.281 3.846 2.994-.741c.113.882.673 1.554 1.352 1.554.76 0 1.376-.84 1.376-1.876 0-.119-.01-.234-.026-.346l8.636-2.137c.18.75.692 1.295 1.302 1.295.76 0 1.376-.84 1.376-1.876 0-.027-.005-.053-.006-.08l1.192-.296z"/><path opacity=".26" fill="#ECECEB" d="M815.625 304.82l-9.937 2-.063 7.625 10.438 1.062 1.062-7.75 9.688-2.375z"/></g><g fill-rule="evenodd" clip-rule="evenodd"><path fill="#9B9FA0" d="M810.53 291.145l-22.458-21.575 41.406-9.005 39.022 6.004-42.024 31.705z"/><path fill="#8F8F8F" d="M823.85 290.77l10.262 16.071 34.576-8.192-.188-32.08-33.761 6.76z"/><path fill="#737475" d="M788.072 301.517V269.57l46.667 3.759-.627 33.512z"/><path fill="#B3B3B3" d="M862.309 287.018l-.75-4.596-3.377-2.064-9.005 1.876-1.688 4.503-3.095.938-.281 3.846 2.994-.741c.113.882.673 1.554 1.352 1.554.76 0 1.376-.84 1.376-1.876 0-.119-.01-.234-.026-.346l8.636-2.137c.18.75.692 1.295 1.302 1.295.76 0 1.376-.84 1.376-1.876 0-.027-.005-.053-.006-.08l1.192-.296z"/><path opacity=".26" fill="#ECECEB" d="M814.313 269.32l-10.125 1.437.125 7.188 11.25.812.625-6.937 9-1.438z"/></g><g fill-rule="evenodd" clip-rule="evenodd"><path fill="#9B9FA0" d="M810.53 255.125l-22.458-21.575 35.678-7.043 44.75 4.041-42.024 31.706z"/><path fill="#8F8F8F" d="M823.85 254.75l10.262 16.071 34.576-8.192-.188-32.081-33.761 6.761z"/><path fill="#737475" d="M788.072 265.497V233.55l46.667 3.759-.627 33.512z"/><path fill="#B3B3B3" d="M862.309 250.997l-.75-4.596-3.377-2.064-9.005 1.876-1.688 4.503-3.095.938-.281 3.846 2.994-.741c.113.882.673 1.554 1.352 1.554.76 0 1.376-.84 1.376-1.876 0-.119-.01-.234-.026-.346l8.636-2.137c.18.75.692 1.295 1.302 1.295.76 0 1.376-.84 1.376-1.876 0-.027-.005-.053-.006-.08l1.192-.296z"/><path opacity=".26" fill="#ECECEB" d="M813.313 233.257l-9.625 1.563v4.687l10.625.875.437-4.625 9.875-1.812zM831 228.674l6.583-.958 6.792.666-4.375.959z"/></g></g></svg>